<svg width="17" height="16" viewBox="0 0 17 16" fill="none" xmlns="http://www.w3.org/2000/svg">
<ellipse cx="8.03241" cy="8" rx="8.03241" ry="8" fill="black"/>
<path d="M10.5804 8.31485C10.5389 8.27319 10.4895 8.24013 10.4352 8.21757C10.3808 8.195 10.3224 8.18338 10.2635 8.18338C10.2046 8.18338 10.1463 8.195 10.0919 8.21757C10.0375 8.24013 9.98819 8.27319 9.9467 8.31485L8.47856 9.77707V5.33263C8.47856 5.21475 8.43154 5.10171 8.34786 5.01836C8.26417 4.93501 8.15067 4.88818 8.03231 4.88818C7.91396 4.88818 7.80046 4.93501 7.71677 5.01836C7.63308 5.10171 7.58607 5.21475 7.58607 5.33263V9.77707L6.11792 8.31485C6.07644 8.27319 6.02709 8.24013 5.97271 8.21757C5.91833 8.195 5.86 8.18338 5.80109 8.18338C5.74218 8.18338 5.68385 8.195 5.62948 8.21757C5.5751 8.24013 5.52574 8.27319 5.48426 8.31485C5.40114 8.39812 5.35449 8.51077 5.35449 8.62818C5.35449 8.7456 5.40114 8.85824 5.48426 8.94152L7.40311 10.8482C7.56971 11.0151 7.79599 11.1094 8.03231 11.1104C8.26709 11.1082 8.49155 11.014 8.65706 10.8482L10.5759 8.94152C10.6596 8.85883 10.7071 8.74652 10.7079 8.6291C10.7087 8.51168 10.6629 8.39871 10.5804 8.31485Z" fill="white"/>
</svg>
