<svg width="123" height="60" viewBox="0 0 123 60" fill="none" xmlns="http://www.w3.org/2000/svg">
<path d="M4 26C1.79086 26 1.93129e-07 27.7909 0 30C-1.93129e-07 32.2091 1.79086 34 4 34L4 26ZM121.828 32.8284C123.391 31.2663 123.391 28.7337 121.828 27.1716L96.3726 1.71574C94.8105 0.153639 92.2778 0.153639 90.7157 1.71574C89.1536 3.27783 89.1536 5.81049 90.7157 7.37259L113.343 30L90.7157 52.6274C89.1536 54.1895 89.1536 56.7222 90.7157 58.2843C92.2778 59.8464 94.8105 59.8464 96.3726 58.2843L121.828 32.8284ZM4 34L119 34L119 26L4 26L4 34Z" fill="#3A3A3A"/>
</svg>
