<svg width="14" height="14" viewBox="0 0 14 14" fill="none" xmlns="http://www.w3.org/2000/svg">
<g id="fi-rr-clip" clip-path="url(#clip0_3_572)">
<path id="Vector" d="M13.3876 5.59978C13.2782 5.49043 13.1298 5.42899 12.9752 5.42899C12.8205 5.42899 12.6721 5.49043 12.5627 5.59978L6.20907 11.9809C5.93824 12.2517 5.6167 12.4666 5.26283 12.6132C4.90895 12.7598 4.52966 12.8353 4.14661 12.8353C3.37302 12.8354 2.63109 12.5281 2.08403 11.9812C1.53698 11.4342 1.22962 10.6923 1.22956 9.9187C1.22951 9.1451 1.53677 8.40317 2.08374 7.85612L8.23732 1.67745C8.56638 1.35364 9.01005 1.17297 9.47171 1.17479C9.93337 1.17662 10.3756 1.36079 10.7021 1.68719C11.0286 2.0136 11.2128 2.45579 11.2148 2.91745C11.2167 3.3791 11.0361 3.82282 10.7124 4.15195L4.55882 10.3306C4.44785 10.4369 4.3001 10.4963 4.14641 10.4963C3.99272 10.4963 3.84497 10.4369 3.73399 10.3306C3.62463 10.2212 3.5632 10.0729 3.5632 9.9182C3.5632 9.76352 3.62463 9.61517 3.73399 9.50578L9.21266 4.00203C9.31892 3.89201 9.37771 3.74466 9.37638 3.59172C9.37506 3.43877 9.31371 3.29246 9.20555 3.18431C9.0974 3.07615 8.95109 3.0148 8.79814 3.01347C8.64519 3.01214 8.49784 3.07094 8.38783 3.1772L2.90916 8.68095C2.74662 8.84346 2.61769 9.03639 2.52973 9.24873C2.44176 9.46107 2.39649 9.68865 2.39649 9.91849C2.39649 10.1483 2.44176 10.3759 2.52973 10.5883C2.61769 10.8006 2.74662 10.9935 2.90916 11.156C3.2426 11.4742 3.6858 11.6518 4.1467 11.6518C4.6076 11.6518 5.0508 11.4742 5.38424 11.156L11.5372 4.97678C12.0727 4.42746 12.3703 3.68928 12.3653 2.92215C12.3604 2.15502 12.0535 1.42071 11.511 0.878296C10.9685 0.33588 10.2341 0.0290339 9.46701 0.0242273C8.69988 0.0194206 7.96174 0.317041 7.41249 0.852616L1.25891 7.03128C0.493095 7.7971 0.0628662 8.83576 0.0628662 9.91878C0.0628662 11.0018 0.493095 12.0405 1.25891 12.8063C2.02472 13.5721 3.06339 14.0023 4.14641 14.0023C5.22943 14.0023 6.2681 13.5721 7.03391 12.8063L13.3876 6.42695C13.4421 6.37274 13.4853 6.3083 13.5148 6.23732C13.5443 6.16634 13.5595 6.09023 13.5595 6.01337C13.5595 5.9365 13.5443 5.86039 13.5148 5.78941C13.4853 5.71843 13.4421 5.65399 13.3876 5.59978Z" fill="white"/>
</g>
<defs>
<clipPath id="clip0_3_572">
<rect width="14" height="14" fill="white"/>
</clipPath>
</defs>
</svg>
