<svg width="24" height="24" viewBox="0 0 24 24" fill="none" xmlns="http://www.w3.org/2000/svg">
<path d="M11.9998 24C18.6165 24 23.9996 18.6168 23.9996 11.9999C23.9996 5.38325 18.6165 0 11.9998 0C5.38314 0 0 5.38325 0 11.9999C0 18.6168 5.38314 24 11.9998 24ZM11.9998 1.6427C17.7107 1.6427 22.3569 6.28892 22.357 11.9999C22.357 17.711 17.7109 22.3572 11.9998 22.3573C6.28892 22.3572 1.64281 17.711 1.64281 11.9998C1.64281 6.28903 6.28892 1.6427 11.9998 1.6427Z" fill="black"/>
<path d="M10.3883 17.1395C10.7091 17.4602 11.2291 17.4601 11.5498 17.1395C11.8707 16.8186 11.8707 16.2987 11.5497 15.9778L8.39351 12.8217L17.5332 12.8209C17.9868 12.8207 18.3544 12.4531 18.3544 11.9993C18.3543 11.5457 17.9867 11.1781 17.5331 11.1781L8.39307 11.179L11.55 8.0223C11.8708 7.70153 11.8708 7.18134 11.55 6.86069C11.3896 6.70036 11.1794 6.62009 10.9692 6.62009C10.759 6.62009 10.5488 6.70036 10.3884 6.86058L5.82947 11.4194C5.67538 11.5734 5.58887 11.7822 5.58887 12.0002C5.58898 12.2181 5.67549 12.4268 5.82958 12.5811L10.3883 17.1395Z" fill="black"/>
</svg>
