<svg xmlns="http://www.w3.org/2000/svg" width="22" height="22" fill="none" viewBox="0 0 22 22"><g filter="url(#filter0_d_500_1369)"><path fill="#50E2D0" d="M15.5699 13.2659C14.4582 14.9404 12.8251 15.9997 11.0017 15.9997C9.17823 15.9997 7.54514 14.9404 6.43343 13.2659L4.95483 7.33771C5.20862 3.22742 7.81824 -0.00012207 11.0017 -0.00012207C14.1851 -0.00012207 16.7947 3.22742 17.0485 7.33771L15.5699 13.2659Z"/><path fill="#fff" d="M13.2052 11.862V15.4537C11.8241 16.1819 10.1726 16.1819 8.7915 15.4537V11.862C8.7915 10.6432 9.77955 9.65515 10.9984 9.65515C12.2172 9.65515 13.2052 10.6432 13.2052 11.862Z"/><path fill="#12776B" d="M14.8627 5.51729C14.8627 7.65023 13.1336 7.72416 11.0007 7.72416C8.86775 7.72416 7.13867 7.65023 7.13867 5.51729C7.13867 3.38436 8.86776 1.65527 11.0007 1.65527C13.1336 1.65527 14.8627 3.38436 14.8627 5.51729Z"/><path fill="#2A3A5C" d="M11.0007 7.99975C9.06111 7.99975 6.86279 7.99975 6.86279 5.51703C6.86279 3.23174 8.71538 1.37915 11.0007 1.37915C13.286 1.37915 15.1385 3.23174 15.1385 5.51703C15.1385 7.99975 12.9402 7.99975 11.0007 7.99975ZM11.0007 1.93087C9.02103 1.93315 7.41679 3.53739 7.41451 5.51703C7.41451 7.25769 8.56291 7.44804 11.0007 7.44804C13.4384 7.44804 14.5868 7.25769 14.5868 5.51703C14.5845 3.53739 12.9803 1.93315 11.0007 1.93087Z"/><path fill="#fff" d="M9.89494 4.13753C9.89494 3.83283 9.64793 3.58582 9.34322 3.58582C9.03852 3.58582 8.7915 3.83283 8.7915 4.13753V5.79268C8.7915 6.09739 9.03852 6.3444 9.34322 6.3444C9.64793 6.3444 9.89494 6.09739 9.89494 5.79268V4.13753Z"/><path fill="#fff" d="M13.2057 4.13753C13.2057 3.83283 12.9587 3.58582 12.654 3.58582C12.3493 3.58582 12.1023 3.83283 12.1023 4.13753V5.79268C12.1023 6.09739 12.3493 6.3444 12.654 6.3444C12.9587 6.3444 13.2057 6.09739 13.2057 5.79268V4.13753Z"/><path fill="#12776B" fill-rule="evenodd" d="M7.03768 11.2958C7.09594 10.9356 7.12817 10.5716 7.13414 10.2068C7.15345 8.593 6.60173 7.32956 5.71899 7.18612C5.45267 7.1486 5.18149 7.20206 4.94934 7.33784C4.12728 7.78197 3.37695 9.08678 3.10109 10.7143C3.08178 10.8357 3.06247 10.9571 3.04868 11.0757C3.04991 11.0771 3.05114 11.0784 3.05238 11.0798C2.81654 13.0503 3.39573 14.7196 4.41565 14.8822C5.1384 15.0008 5.89701 14.3415 6.43217 13.2657C6.72278 12.6604 6.92529 12.0166 7.03354 11.354L7.04182 11.2961L7.03768 11.2958Z" clip-rule="evenodd"/><path fill="#12776B" fill-rule="evenodd" d="M14.9599 11.2963C14.9599 11.2963 14.9598 11.2963 14.9598 11.2963C14.9015 10.9359 14.8693 10.5717 14.8633 10.2066C14.844 8.59287 15.3957 7.32944 16.2784 7.186C16.5448 7.14848 16.8159 7.20194 17.0481 7.33772C17.8701 7.78185 18.6205 9.08666 18.8963 10.7142C18.9156 10.8355 18.9349 10.9568 18.9487 11.0754L18.9487 11.0754C19.186 13.0478 18.6067 14.7195 17.586 14.8822C16.8632 15.0008 16.1046 14.3415 15.5695 13.2657C15.2789 12.6604 15.0764 12.0167 14.9681 11.354L14.9599 11.2963Z" clip-rule="evenodd"/></g><defs><filter id="filter0_d_500_1369" width="21.335" height="21.334" x=".333" y="0" color-interpolation-filters="sRGB" filterUnits="userSpaceOnUse"><feFlood flood-opacity="0" result="BackgroundImageFix"/><feColorMatrix in="SourceAlpha" result="hardAlpha" type="matrix" values="0 0 0 0 0 0 0 0 0 0 0 0 0 0 0 0 0 0 127 0"/><feOffset dy="2.667"/><feGaussianBlur stdDeviation="1.333"/><feComposite in2="hardAlpha" operator="out"/><feColorMatrix type="matrix" values="0 0 0 0 0 0 0 0 0 0 0 0 0 0 0 0 0 0 0.14 0"/><feBlend in2="BackgroundImageFix" mode="normal" result="effect1_dropShadow_500_1369"/><feBlend in="SourceGraphic" in2="effect1_dropShadow_500_1369" mode="normal" result="shape"/></filter></defs></svg>