<svg width="14" height="16" viewBox="0 0 14 16" fill="none" xmlns="http://www.w3.org/2000/svg">
<path id="Vector" d="M8.28261 8.14334L13.7339 2.17255C14.0887 1.78417 14.0887 1.15622 13.7339 0.767844C13.3793 0.379469 12.806 0.379469 12.4514 0.767844L6.99992 6.73864L1.5486 0.767844C1.19384 0.379469 0.620668 0.379469 0.266072 0.767844C-0.0886906 1.15622 -0.0886906 1.78417 0.266072 2.17255L5.71739 8.14334L0.266072 14.1141C-0.0886906 14.5025 -0.0886906 15.1305 0.266072 15.5188C0.442789 15.7126 0.675145 15.8099 0.907335 15.8099C1.13953 15.8099 1.37172 15.7126 1.5486 15.5188L6.99992 9.54804L12.4514 15.5188C12.6283 15.7126 12.8605 15.8099 13.0927 15.8099C13.3249 15.8099 13.557 15.7126 13.7339 15.5188C14.0887 15.1305 14.0887 14.5025 13.7339 14.1141L8.28261 8.14334Z" fill="white"/>
</svg>
