<svg width="561" height="554" viewBox="0 0 561 554" fill="none" xmlns="http://www.w3.org/2000/svg">
<g filter="url(#filter0_f_49_262)">
<circle cx="101.11" cy="55.1305" r="51.82" fill="url(#paint0_linear_49_262)"/>
</g>
<g filter="url(#filter1_f_49_262)">
<circle cx="517.355" cy="339.719" r="40.4449" fill="url(#paint1_linear_49_262)"/>
</g>
<g filter="url(#filter2_f_49_262)">
<circle cx="483.862" cy="162.983" r="56.4543" fill="url(#paint2_linear_49_262)"/>
</g>
<g filter="url(#filter3_f_49_262)">
<circle cx="81.9407" cy="354.043" r="77.9407" fill="url(#paint3_linear_49_262)"/>
</g>
<g filter="url(#filter4_f_49_262)">
<path d="M100.373 55.4465L483.756 163.405" stroke="white" stroke-width="1.05325"/>
</g>
<g filter="url(#filter5_f_49_262)">
<path fill-rule="evenodd" clip-rule="evenodd" d="M93.3275 550.97C95.6186 545.24 98.1719 538.776 100.869 531.949L100.869 531.949C114.715 496.898 132.338 452.287 137.623 448.312C146.299 441.785 157.359 432.544 162.2 427.773C167.041 423.004 172.699 417.79 174.774 416.187C178.231 413.515 178.414 413.06 176.974 410.753C175.589 408.532 175.688 407.923 177.813 405.589C181.375 401.68 182.818 398.363 182.826 394.075C182.829 391.97 183.362 388.338 184.01 386.004C184.658 383.67 185.565 378.742 186.027 375.053C186.749 369.27 187.299 368.138 190.034 366.828C193.745 365.048 193.776 364.643 191.467 348.121C188.213 324.83 184.902 316.093 173.181 299.867C169.194 294.349 164.411 287.249 162.55 284.088C160.69 280.927 158.527 277.292 157.745 276.008C151.045 265.022 145.973 252.185 144.739 243.091C144.008 237.696 142.623 229.905 141.662 225.779C140.701 221.653 139.629 214.251 139.281 209.332C138.933 204.413 138.268 200.387 137.805 200.387C136.172 200.387 135.502 191.073 136.773 186.024C137.481 183.211 139.046 180.017 140.249 178.928C141.452 177.837 142.438 175.778 142.438 174.35C142.438 169.856 148.533 159.33 155.308 152.124C158.897 148.308 162.162 144.148 162.564 142.882C162.965 141.616 164.053 139.949 164.981 139.179C165.907 138.409 166.667 136.884 166.667 135.787C166.667 134.612 168.439 132.974 170.993 131.791C173.373 130.689 177.013 127.691 179.082 125.127C185.21 117.54 198.388 106.343 203.771 104.15C206.525 103.028 211.571 100.752 214.982 99.0927C218.394 97.433 223.067 96.0076 225.366 95.9245C227.665 95.8414 230.924 95.1927 232.607 94.4829C236.943 92.6547 249.47 90.5103 251.81 91.1958C252.891 91.5132 258.671 91.908 264.656 92.073L275.537 92.3742L276.578 89.2499C277.151 87.5302 278.355 86.1244 279.253 86.1244C280.153 86.1244 280.759 85.4758 280.6 84.6817C280.182 82.5904 284.085 83.5518 286.723 86.1902C289.636 89.1045 289.953 89.0687 298.238 84.856C306.827 80.4909 309.835 80.8072 322.812 87.4425C327.785 89.9851 332.526 91.8076 333.348 91.4913C335.192 90.7838 341.417 92.8948 351.267 97.568C355.392 99.5255 359.546 101.13 360.497 101.133C361.449 101.136 364.965 103.214 368.308 105.75C371.653 108.287 375.315 110.362 376.446 110.362C379.405 110.362 387.673 116.758 390.382 121.144C393.265 125.809 395.349 136.144 395.54 146.718C395.674 154.093 395.888 154.77 397.994 154.48C399.959 154.21 400.028 154.333 398.455 155.308C396.002 156.826 390.495 172.182 390.495 177.502C390.495 182.48 396.143 203.548 398.868 208.734C402.582 215.803 402.955 233.528 399.482 237.945L397.134 240.931L400.172 248.07C401.842 251.997 406.967 260.876 411.563 267.801C427.025 291.108 427.196 291.588 422.485 298.579C419.959 302.331 417.842 303.775 410.915 306.471L407.683 307.73L407.949 318.124C408.205 328.076 408.081 328.659 405.021 331.854C401.915 335.097 401.88 335.274 403.788 338.185C406.333 342.072 405.273 346.331 400.827 350.072C396.972 353.317 396.675 355.294 399.148 361.216C402.63 369.551 400.653 377.976 394.124 382.627C390.285 385.361 372.719 391.466 363.737 393.188C360.369 393.833 352.292 395.06 345.787 395.914C339.283 396.768 333.196 398.102 332.261 398.879C330.367 400.451 329.728 403.321 328.271 416.794C327.721 421.872 326.913 427.145 326.473 428.513C325.843 430.473 326.245 431.177 328.376 431.843C332.271 433.062 365.79 467.251 366.718 470.952C367.929 475.778 365.545 482.257 360.727 487.235C358.29 489.755 355.188 493.42 353.834 495.382L351.372 498.949L357.119 506.924C362.342 514.171 366.004 520.75 367.821 526.151C368.195 527.261 369.43 528.171 370.564 528.171C376.34 528.171 415.033 510.397 423.906 503.668C430.927 498.344 466.983 520.53 502.203 542.202L502.203 542.202C502.261 542.238 502.318 542.273 502.376 542.308C496.712 547.677 489.062 550.97 480.642 550.97H93.3275ZM172.724 141.134C171.931 141.455 170.633 141.455 169.839 141.134C169.047 140.815 169.695 140.553 171.282 140.553C172.868 140.553 173.517 140.815 172.724 141.134Z" fill="url(#paint4_linear_49_262)"/>
</g>
<g filter="url(#filter6_f_49_262)">
<path d="M100.373 56.4997L81.9407 354.57M81.9407 354.57L517.987 340.351L484.283 162.878L81.9407 354.57Z" stroke="white" stroke-width="1.05325"/>
</g>
<circle cx="100.899" cy="55.9731" r="5.26626" fill="white"/>
<circle cx="81.9406" cy="354.043" r="5.26626" fill="white"/>
<circle cx="516.934" cy="339.298" r="5.26626" fill="white"/>
<circle cx="484.283" cy="163.405" r="5.26626" fill="white"/>
<defs>
<filter id="filter0_f_49_262" x="46.1301" y="0.150729" width="109.96" height="109.96" filterUnits="userSpaceOnUse" color-interpolation-filters="sRGB">
<feFlood flood-opacity="0" result="BackgroundImageFix"/>
<feBlend mode="normal" in="SourceGraphic" in2="BackgroundImageFix" result="shape"/>
<feGaussianBlur stdDeviation="1.57988" result="effect1_foregroundBlur_49_262"/>
</filter>
<filter id="filter1_f_49_262" x="473.751" y="296.115" width="87.2093" height="87.2093" filterUnits="userSpaceOnUse" color-interpolation-filters="sRGB">
<feFlood flood-opacity="0" result="BackgroundImageFix"/>
<feBlend mode="normal" in="SourceGraphic" in2="BackgroundImageFix" result="shape"/>
<feGaussianBlur stdDeviation="1.57988" result="effect1_foregroundBlur_49_262"/>
</filter>
<filter id="filter2_f_49_262" x="424.248" y="103.369" width="119.228" height="119.228" filterUnits="userSpaceOnUse" color-interpolation-filters="sRGB">
<feFlood flood-opacity="0" result="BackgroundImageFix"/>
<feBlend mode="normal" in="SourceGraphic" in2="BackgroundImageFix" result="shape"/>
<feGaussianBlur stdDeviation="1.57988" result="effect1_foregroundBlur_49_262"/>
</filter>
<filter id="filter3_f_49_262" x="0.840243" y="272.943" width="162.201" height="162.201" filterUnits="userSpaceOnUse" color-interpolation-filters="sRGB">
<feFlood flood-opacity="0" result="BackgroundImageFix"/>
<feBlend mode="normal" in="SourceGraphic" in2="BackgroundImageFix" result="shape"/>
<feGaussianBlur stdDeviation="1.57988" result="effect1_foregroundBlur_49_262"/>
</filter>
<filter id="filter4_f_49_262" x="99.7032" y="54.4129" width="384.723" height="110.025" filterUnits="userSpaceOnUse" color-interpolation-filters="sRGB">
<feFlood flood-opacity="0" result="BackgroundImageFix"/>
<feBlend mode="normal" in="SourceGraphic" in2="BackgroundImageFix" result="shape"/>
<feGaussianBlur stdDeviation="0.263313" result="effect1_foregroundBlur_49_262"/>
</filter>
<filter id="filter5_f_49_262" x="91.221" y="79.8453" width="413.261" height="473.231" filterUnits="userSpaceOnUse" color-interpolation-filters="sRGB">
<feFlood flood-opacity="0" result="BackgroundImageFix"/>
<feBlend mode="normal" in="SourceGraphic" in2="BackgroundImageFix" result="shape"/>
<feGaussianBlur stdDeviation="1.05325" result="effect1_foregroundBlur_49_262"/>
</filter>
<filter id="filter6_f_49_262" x="80.8527" y="55.9406" width="438.293" height="299.701" filterUnits="userSpaceOnUse" color-interpolation-filters="sRGB">
<feFlood flood-opacity="0" result="BackgroundImageFix"/>
<feBlend mode="normal" in="SourceGraphic" in2="BackgroundImageFix" result="shape"/>
<feGaussianBlur stdDeviation="0.263313" result="effect1_foregroundBlur_49_262"/>
</filter>
<linearGradient id="paint0_linear_49_262" x1="101.11" y1="3.31049" x2="101.11" y2="106.951" gradientUnits="userSpaceOnUse">
<stop stop-color="#A342B3"/>
<stop offset="1" stop-color="#BC4E95"/>
</linearGradient>
<linearGradient id="paint1_linear_49_262" x1="517.355" y1="299.274" x2="517.355" y2="380.164" gradientUnits="userSpaceOnUse">
<stop stop-color="#8432D8"/>
<stop offset="1" stop-color="#7CDFD1"/>
</linearGradient>
<linearGradient id="paint2_linear_49_262" x1="483.862" y1="106.529" x2="483.862" y2="219.438" gradientUnits="userSpaceOnUse">
<stop stop-color="#C85487"/>
<stop offset="1" stop-color="#E0606B"/>
</linearGradient>
<linearGradient id="paint3_linear_49_262" x1="47.4041" y1="276.103" x2="137.479" y2="431.984" gradientUnits="userSpaceOnUse">
<stop stop-color="#8A35D1"/>
<stop offset="1" stop-color="#E36166"/>
</linearGradient>
<linearGradient id="paint4_linear_49_262" x1="-401.502" y1="-596.517" x2="471.644" y2="595.238" gradientUnits="userSpaceOnUse">
<stop offset="0.6" stop-color="#8432D8"/>
<stop offset="1" stop-color="#E76361"/>
</linearGradient>
</defs>
</svg>
