<svg width="67" height="70" viewBox="0 0 67 70" fill="none" xmlns="http://www.w3.org/2000/svg">
<path d="M29.9997 13.3332H19.9998L33.333 0L46.6661 13.3332H36.6662V28.0997C34.1663 29.633 31.933 31.533 29.9997 33.7329V13.3332ZM66.6659 33.3329L53.3327 19.9998V29.9997C47.543 29.7616 41.8847 31.7674 37.5377 35.599C33.1907 39.4306 30.4903 44.7922 29.9997 50.5661C27.5003 51.4535 25.4547 53.2956 24.3113 55.6887C23.1678 58.0818 23.0198 60.8306 23.8997 63.3326C24.7871 65.832 26.6292 67.8776 29.0223 69.021C31.4154 70.1644 34.1642 70.3124 36.6662 69.4325C39.1634 68.5422 41.2067 66.6997 42.3497 64.3076C43.4927 61.9154 43.6424 59.1682 42.7662 56.666C41.7662 53.7994 39.4995 51.5661 36.6662 50.5661C38.2329 37.2329 51.5661 36.5662 53.1661 36.5662V46.5661L66.6659 33.3329ZM28.7663 35.2996C24.3437 31.8858 18.9201 30.0232 13.3332 29.9997V19.9998L0 33.3329L13.3332 46.6661V36.6662C17.7998 36.7662 22.0997 38.3329 25.4664 41.3329C26.2997 39.1995 27.3997 37.1662 28.7663 35.2996Z" fill="#0460A9"/>
</svg>
