<svg xmlns="http://www.w3.org/2000/svg" width="71" height="71" fill="none" viewBox="0 0 71 71"><path fill="#0460A9" d="M68.7812 0H2.21875C1.03542 0 0 1.03542 0 2.21875V9.61458C0 10.7979 1.03542 11.8333 2.21875 11.8333H68.7812C69.9645 11.8333 71 10.7979 71 9.61458V2.21875C71 1.03542 69.9645 0 68.7812 0Z"/><path fill="#0460A9" d="M27.3645 17.75H17.0104C15.827 17.75 14.7916 18.7854 14.7916 19.9687V24.4062C14.7916 25.5896 15.827 26.625 17.0104 26.625H27.3645C28.5479 26.625 29.5833 25.5896 29.5833 24.4062V19.9687C29.5833 18.7854 28.5479 17.75 27.3645 17.75Z"/><path fill="#0460A9" d="M48.0728 17.75H37.7187C36.5354 17.75 35.4999 18.7854 35.4999 19.9687V24.4062C35.4999 25.5896 36.5354 26.625 37.7187 26.625H48.0728C49.2562 26.625 50.2916 25.5896 50.2916 24.4062V19.9687C50.2916 18.7854 49.2562 17.75 48.0728 17.75Z"/><path fill="#0460A9" d="M68.7812 17.75H58.4271C57.2437 17.75 56.2083 18.7854 56.2083 19.9687V24.4062C56.2083 25.5896 57.2437 26.625 58.4271 26.625H68.7812C69.9646 26.625 71 25.5896 71 24.4062V19.9687C71 18.7854 69.9646 17.75 68.7812 17.75Z"/><path fill="#0460A9" d="M27.3645 47.3334H17.0104C15.827 47.3334 14.7916 48.3688 14.7916 49.5521V53.9896C14.7916 55.173 15.827 56.2084 17.0104 56.2084H27.3645C28.5479 56.2084 29.5833 55.173 29.5833 53.9896V49.5521C29.5833 48.3688 28.5479 47.3334 27.3645 47.3334Z"/><path fill="#0460A9" d="M48.0728 47.3334H37.7187C36.5354 47.3334 35.4999 48.3688 35.4999 49.5521V53.9896C35.4999 55.173 36.5354 56.2084 37.7187 56.2084H48.0728C49.2562 56.2084 50.2916 55.173 50.2916 53.9896V49.5521C50.2916 48.3688 49.2562 47.3334 48.0728 47.3334Z"/><path fill="#0460A9" d="M68.7812 47.3334H58.4271C57.2437 47.3334 56.2083 48.3688 56.2083 49.5521V53.9896C56.2083 55.173 57.2437 56.2084 58.4271 56.2084H68.7812C69.9646 56.2084 71 55.173 71 53.9896V49.5521C71 48.3688 69.9646 47.3334 68.7812 47.3334Z"/><path fill="#0460A9" d="M68.7812 62.125H11.0937C9.91041 62.125 8.875 61.0896 8.875 59.9063V49.5521C8.875 48.3688 7.83958 47.3334 6.65625 47.3334H2.21875C1.03542 47.3334 0 48.3688 0 49.5521V68.7813C0 69.9646 1.03542 71 2.21875 71H6.65625H8.875H68.7812C69.9645 71 71 69.9646 71 68.7813V64.3438C71 63.1604 69.9645 62.125 68.7812 62.125Z"/><path fill="#0460A9" d="M68.7812 32.5417H11.0937C9.91041 32.5417 8.875 31.5062 8.875 30.3229V19.9687C8.875 18.7854 7.83958 17.75 6.65625 17.75H2.21875C1.03542 17.75 0 18.7854 0 19.9687V39.1979C0 40.3812 1.03542 41.4167 2.21875 41.4167H5.17708H8.875H68.7812C69.9645 41.4167 71 40.3812 71 39.1979V34.7604C71 33.5771 69.9645 32.5417 68.7812 32.5417Z"/></svg>