<svg xmlns="http://www.w3.org/2000/svg" width="85" height="71" fill="none" viewBox="0 0 85 71"><path fill="#0460A9" d="M48.8125 17.75H42.1119C39.3162 17.75 36.565 19.0812 35.0563 20.8562L31.0625 8.875H18.3269L7.72125 39.9375H15.2206L18.5044 31.0625H31.0625V48.8125H8.875C3.99375 48.8125 0 44.8187 0 39.9375V8.875C0 3.99375 3.99375 0 8.875 0H39.9375C44.8187 0 48.8125 3.99375 48.8125 8.875V17.75ZM28.8881 26.625H19.9244L24.3619 13.6231L28.8881 26.625ZM44.375 22.1875H75.4375C80.3187 22.1875 84.3125 26.1812 84.3125 31.0625V62.125C84.3125 67.0062 80.3187 71 75.4375 71H44.375C39.4938 71 35.5 67.0062 35.5 62.125V31.0625C35.5 26.1812 39.4938 22.1875 44.375 22.1875ZM76.5469 44.375V39.5825H62.48V29.9531H57.3325V39.5825H43.2656V44.375H48.9456C49.4338 48.1469 51.4306 52.5844 54.6256 56.0013C50.765 57.5988 46.2388 58.7525 44.375 58.7525C44.3306 58.8412 45.3512 63.0569 45.2625 65.2313C48.99 65.2313 55.0694 63.0125 59.8175 60.1281C64.6544 63.0125 70.8225 65.2313 74.6387 65.2313C74.55 63.0569 75.5263 58.8412 75.5263 58.7525C73.6181 58.7525 68.9144 57.5544 64.965 55.9569C68.0713 52.54 70.0238 48.1025 70.5119 44.375H76.5469ZM59.64 52.9394C57.4212 50.8981 55.8681 47.925 55.1581 44.375H64.4325C63.6781 47.925 62.1694 50.8981 59.995 52.9394L59.8175 53.0725C59.8175 53.0725 59.6844 52.9838 59.64 52.9394Z"/></svg>