<svg xmlns="http://www.w3.org/2000/svg" width="475" height="180" fill="none" viewBox="0 0 475 180"><path stroke="#000" stroke-width="3.165" d="M182.494 104.56L171.177 101.879C170.737 101.775 170.386 101.444 170.256 101.011L168.783 96.1002C168.649 95.6562 168.284 95.3205 167.831 95.225L156.538 92.8476"/><path stroke="#000" stroke-width="3.165" d="M126.783 112.157L115.466 109.477C115.026 109.373 114.675 109.042 114.545 108.609L113.072 103.698C112.938 103.254 112.573 102.918 112.12 102.823L100.827 100.445"/><path stroke="#000" stroke-width="3.165" d="M150.524 117.538L147.843 128.856C147.739 129.296 147.408 129.647 146.975 129.777L142.064 131.25C141.62 131.383 141.285 131.748 141.189 132.202L138.812 143.494"/><path stroke="#000" stroke-width="3.165" d="M144.193 60.5605L141.512 71.8781C141.408 72.3181 141.077 72.6691 140.644 72.799L135.733 74.2722C135.29 74.4054 134.954 74.7706 134.858 75.2241L132.481 86.5168"/><path fill="#000" fill-rule="evenodd" d="M129.522 46.9709C112.277 50.6498 97.6543 62.4143 90.158 78.6395C75.223 110.963 94.1009 149.092 129.008 157.11C139.7 159.566 152.756 158.358 163.32 153.935L168.14 151.917L182.698 155.213C190.706 157.026 197.309 158.456 197.374 158.392C197.438 158.328 196.034 151.678 194.253 143.614L191.015 128.954L192.788 124.783C202.942 100.89 196.128 73.8629 175.893 57.7738C168.947 52.2508 159.366 48.0003 150.689 46.5924C144.986 45.6674 134.776 45.8498 129.522 46.9709ZM153.262 64.2895C159.641 66.4154 163.918 69.1376 169.158 74.408C176.895 82.1898 180.485 90.9187 180.485 101.949C180.485 113.177 176.87 121.812 168.818 129.825C158.567 140.025 145.179 143.769 131.482 140.267C124.222 138.41 119.491 135.643 113.635 129.828C108.062 124.293 104.761 118.628 102.942 111.471C101.712 106.631 101.712 97.2679 102.942 92.428C106.555 78.2141 118.068 66.956 132.687 63.3418C137.98 62.0332 147.857 62.4884 153.262 64.2895Z" clip-rule="evenodd"/><circle cx="131.215" cy="92.847" r="8.23" fill="#0460A9"/><circle cx="131.215" cy="111.84" r="8.23" fill="#E74A21"/><circle cx="151.473" cy="92.847" r="8.23" fill="#EC9A1E"/><circle cx="151.473" cy="111.84" r="8.23" fill="#09C705"/><path fill="#000" d="M297.17 98.3659V137.308C297.17 139.946 297.766 141.862 298.958 143.053C300.234 144.16 302.362 144.713 305.341 144.713H314.279V156.842H302.788C296.234 156.842 291.212 155.31 287.722 152.246C284.232 149.182 282.487 144.202 282.487 137.308V98.3659H274.188V86.4919H282.487V69H297.17V86.4919H314.279V98.3659H297.17Z"/><path fill="#000" d="M388.957 119.943C388.957 122.582 388.787 124.965 388.446 127.093H334.694C335.12 132.711 337.205 137.223 340.95 140.627C344.695 144.032 349.292 145.734 354.739 145.734C362.57 145.734 368.103 142.457 371.338 135.903H387.042C384.914 142.372 381.041 147.692 375.423 151.863C369.891 155.949 362.996 157.992 354.739 157.992C348.015 157.992 341.972 156.502 336.609 153.523C331.332 150.459 327.161 146.203 324.097 140.755C321.118 135.222 319.628 128.838 319.628 121.603C319.628 114.368 321.075 108.027 323.969 102.579C326.948 97.0466 331.076 92.7907 336.354 89.8115C341.716 86.8324 347.845 85.3428 354.739 85.3428C361.379 85.3428 367.294 86.7898 372.487 89.6838C377.679 92.5779 381.722 96.6636 384.616 101.941C387.51 107.133 388.957 113.134 388.957 119.943ZM373.763 115.347C373.678 109.985 371.763 105.686 368.018 102.452C364.273 99.2171 359.634 97.5999 354.101 97.5999C349.079 97.5999 344.781 99.2171 341.206 102.452C337.631 105.601 335.503 109.899 334.822 115.347H373.763Z"/><path fill="#000" d="M267.187 86.957V156.85H253.347V148.959C251.162 151.711 248.289 153.896 244.727 155.514C241.247 157.052 237.524 157.821 233.558 157.821C228.298 157.821 223.563 156.729 219.354 154.543C215.227 152.358 211.949 149.121 209.521 144.831C207.174 140.541 206 135.362 206 129.291V86.957H219.719V127.228C219.719 133.217 221.216 137.83 224.21 141.068C227.205 144.224 231.292 145.802 236.472 145.802C241.652 145.802 245.739 144.224 248.734 141.068C251.809 137.83 253.347 133.217 253.347 127.228V86.957H267.187Z"/><path fill="#C5C5C5" d="M404.881 164.42C412.262 162.659 417.588 159.891 420.859 156.117C424.046 152.426 425.64 147.645 425.64 141.774V124.161C425.64 120.303 426.647 117.116 428.659 114.599C430.589 111.999 433.776 110.364 438.221 109.693V105.918C433.776 105.247 430.589 103.654 428.659 101.138C426.647 98.5376 425.64 95.3085 425.64 91.4503V73.8369C425.64 68.0496 424.046 63.3108 420.859 59.6204C417.588 55.9299 412.262 53.1202 404.881 51.1911V54.9654C409.075 56.2235 411.927 57.859 413.436 59.872C414.862 61.8849 415.575 64.8625 415.575 68.8045V90.1922C415.575 95.1407 416.666 98.9989 418.846 101.767C420.943 104.535 424.256 106.547 428.785 107.806C424.256 109.064 420.943 111.077 418.846 113.844C416.666 116.612 415.575 120.47 415.575 125.419V146.807C415.575 150.749 414.862 153.726 413.436 155.739C411.927 157.836 409.075 159.472 404.881 160.646V164.42Z"/><path fill="#C5C5C5" d="M439.126 164.42C446.507 162.659 451.833 159.891 455.104 156.117C458.291 152.426 459.885 147.645 459.885 141.774V124.161C459.885 120.303 460.891 117.116 462.904 114.599C464.833 111.999 468.021 110.364 472.466 109.693V105.918C468.021 105.247 464.833 103.654 462.904 101.138C460.891 98.5376 459.885 95.3085 459.885 91.4503V73.8369C459.885 68.0496 458.291 63.3108 455.104 59.6204C451.833 55.9299 446.507 53.1202 439.126 51.1911V54.9654C443.32 56.2235 446.172 57.859 447.681 59.872C449.107 61.8849 449.82 64.8625 449.82 68.8045V90.1922C449.82 95.1407 450.91 98.9989 453.091 101.767C455.188 104.535 458.501 106.547 463.03 107.806C458.501 109.064 455.188 111.077 453.091 113.844C450.91 116.612 449.82 120.47 449.82 125.419V146.807C449.82 150.749 449.107 153.726 447.681 155.739C446.172 157.836 443.32 159.472 439.126 160.646V164.42Z"/><path fill="#C5C5C5" d="M69.415 164.42C62.0341 162.659 56.7082 159.891 53.4371 156.117C50.2499 152.426 48.6563 147.645 48.6563 141.774V124.161C48.6563 120.303 47.6499 117.116 45.6369 114.599C43.7078 111.999 40.5206 110.364 36.0753 109.693V105.918C40.5206 105.247 43.7078 103.654 45.6369 101.138C47.6499 98.5376 48.6563 95.3085 48.6563 91.4503V73.8369C48.6563 68.0496 50.2499 63.3108 53.4371 59.6204C56.7082 55.9299 62.0341 53.1202 69.415 51.1911V54.9654C65.2213 56.2235 62.3696 57.859 60.8599 59.872C59.4341 61.8849 58.7211 64.8625 58.7211 68.8045V90.1922C58.7211 95.1407 57.6308 98.9989 55.4501 101.767C53.3532 104.535 50.0402 106.547 45.5111 107.806C50.0402 109.064 53.3532 111.077 55.4501 113.844C57.6308 116.612 58.7211 120.47 58.7211 125.419V146.807C58.7211 150.749 59.4341 153.726 60.8599 155.739C62.3696 157.836 65.2213 159.472 69.415 160.646V164.42Z"/><path fill="#C5C5C5" d="M35.1186 164.42C27.7378 162.659 22.4118 159.891 19.1408 156.117C15.9536 152.426 14.36 147.645 14.36 141.774V124.161C14.36 120.303 13.3535 117.116 11.3405 114.599C9.41145 111.999 6.22426 110.364 1.77897 109.693V105.918C6.22426 105.247 9.41145 103.654 11.3405 101.138C13.3535 98.5376 14.36 95.3085 14.36 91.4503V73.8369C14.36 68.0496 15.9536 63.3108 19.1408 59.6204C22.4118 55.9299 27.7378 53.1202 35.1186 51.1911V54.9654C30.925 56.2235 28.0733 57.859 26.5635 59.872C25.1377 61.8849 24.4248 64.8625 24.4248 68.8045V90.1922C24.4248 95.1407 23.3344 98.9989 21.1537 101.767C19.0569 104.535 15.7439 106.547 11.2147 107.806C15.7439 109.064 19.0569 111.077 21.1537 113.844C23.3344 116.612 24.4248 120.47 24.4248 125.419V146.807C24.4248 150.749 25.1377 153.726 26.5635 155.739C28.0733 157.836 30.925 159.472 35.1186 160.646V164.42Z"/></svg>