<svg width="59" height="56" viewBox="0 0 59 56" fill="none" xmlns="http://www.w3.org/2000/svg">
<path fill-rule="evenodd" clip-rule="evenodd" d="M10.57 0.890264C10.2428 1.21749 9.56389 3.55335 8.40716 8.33297C2.86724 31.2217 0.606433 40.9547 0.735694 41.3616C0.816101 41.6147 1.08099 42.002 1.32424 42.2224C1.57488 42.4491 5.73872 43.5743 10.9234 44.8162C15.9595 46.0226 23.3867 47.8083 27.4287 48.7842C31.4704 49.7602 34.8238 50.5121 34.8806 50.4554C34.9376 50.3987 34.6935 49.487 34.3386 48.4295C33.8737 47.0445 33.693 45.9676 33.693 44.5796V42.6524H24.2783H14.8636V23.6741V4.69584L26.0893 4.76582C32.2635 4.80449 37.6452 4.88439 38.0485 4.94368L38.7821 5.05131V8.71185V12.3726H42.5988H46.4156V21.1512V29.9298H47.8151H49.2146V18.7935V7.6569L46.3479 4.79864L43.4815 1.94013H31.0671H18.6527L15.4585 1.17678C11.7178 0.282888 11.2074 0.252863 10.57 0.890264ZM19.3801 10.6118C18.8689 10.9096 18.7903 11.8719 19.2402 12.3218C19.671 12.7525 29.1401 12.7525 29.5709 12.3218C29.9936 11.8991 29.9526 11.2131 29.4765 10.7368C29.1417 10.4022 28.3238 10.3383 24.4511 10.3447C21.785 10.3492 19.6369 10.4625 19.3801 10.6118ZM20.1992 12.2454C20.1992 12.3854 20.0883 12.3281 19.9526 12.1182C19.817 11.9083 19.7061 11.622 19.7061 11.4821C19.7061 11.3421 19.817 11.3994 19.9526 11.6093C20.0883 11.8192 20.1992 12.1055 20.1992 12.2454ZM19.4748 16.6739C19.2705 16.8032 19.2071 17.0304 19.3231 17.2182C19.4529 17.4278 19.4198 17.4769 19.2287 17.3586C18.8025 17.0955 18.8603 17.9322 19.2984 18.3703C19.588 18.6601 20.6481 18.7339 24.5147 18.7339C27.1836 18.7339 29.3803 18.6479 29.3964 18.5431C29.5966 17.225 29.5521 16.9334 29.1144 16.6991C28.5289 16.3859 19.9651 16.3632 19.4748 16.6739ZM19.2865 23.2001C19.3733 23.4265 19.3305 23.5286 19.1865 23.4395C19.0481 23.354 18.9348 23.5265 18.9348 23.823C18.9348 24.1194 19.0481 24.2919 19.1865 24.2064C19.331 24.1171 19.373 24.2199 19.2855 24.4484C19.1483 24.8059 20.2984 24.8392 30.675 24.7797L42.2172 24.7135L42.3011 23.9787C42.367 23.4016 42.3004 23.2764 41.9912 23.3952C41.7747 23.4782 41.5187 23.4192 41.4228 23.2637C41.3207 23.0988 41.3632 23.0522 41.524 23.1517C41.6759 23.2456 41.8721 23.2059 41.9602 23.0637C42.0675 22.8902 38.3472 22.8052 30.6274 22.8052C20.3455 22.8052 19.1509 22.8466 19.2865 23.2001ZM19.2529 29.2927C18.7814 29.8283 18.8672 30.639 19.4269 30.9387C20.1015 31.2998 41.1777 31.2998 41.8523 30.9387C42.3477 30.6736 42.4757 30.0588 42.1899 29.3145C42.0523 28.9558 40.8167 28.913 30.8032 28.9217C21.429 28.9298 19.5183 28.9911 19.2529 29.2927ZM44.8024 33.3066C44.265 33.4786 43.9042 33.6975 44.0006 33.7929C44.097 33.8883 43.9642 33.912 43.7054 33.8456C43.1953 33.7143 40.5546 35.3204 39.6268 36.326C38.4655 37.5852 37.2676 39.9539 36.8554 41.8074C36.3266 44.1842 36.6124 46.5048 37.7276 48.888C38.6406 50.8391 41.3105 53.7521 41.9579 53.5037C42.1851 53.4165 42.3093 53.445 42.2337 53.5668C42.0167 53.9182 44.5604 54.8941 46.3573 55.1485C48.0993 55.3951 51.369 55.0098 51.1087 54.5885C51.0321 54.4645 51.1359 54.4269 51.3395 54.505C51.795 54.6798 53.6545 53.7572 54.4497 52.962C54.7721 52.6394 55.0868 52.4261 55.1486 52.488C55.3675 52.7068 57.1138 50.4279 56.985 50.0918C56.913 49.9043 56.9568 49.8142 57.0825 49.8918C57.3723 50.0709 58.2532 48.2445 58.6496 46.6419C58.8295 45.9155 58.8985 44.5666 58.8194 43.3341C58.6845 41.2392 58.0044 38.9745 57.5873 39.232C57.4639 39.3084 57.4209 39.2193 57.4921 39.0341C57.827 38.1611 53.7171 34.0356 52.8456 34.37C52.627 34.454 52.5642 34.3937 52.6782 34.2094C52.8011 34.0107 52.7181 33.9692 52.4237 34.0822C52.1782 34.1763 52.0515 34.1456 52.1342 34.012C52.5721 33.3031 46.6064 32.729 44.8024 33.3066ZM50.1634 33.6458C50.0789 33.7303 49.8594 33.7395 49.6759 33.6659C49.4728 33.5848 49.5331 33.5244 49.8296 33.5122C50.0978 33.5013 50.2479 33.5613 50.1634 33.6458ZM54.0881 35.7822C54.2067 35.7822 54.2998 35.9254 54.2952 36.1003C54.2904 36.2753 54.0614 36.1481 53.7863 35.8176C53.511 35.4873 53.2934 35.0865 53.3031 34.927C53.3125 34.7677 53.4446 34.8947 53.5962 35.2097C53.7481 35.5247 53.9695 35.7822 54.0881 35.7822ZM19.2402 35.3242C18.7728 35.7916 18.8768 36.7511 19.4269 37.0455C19.7348 37.2102 22.7735 37.3089 27.5401 37.3089H35.1612L35.6146 36.6171C35.864 36.2364 36.0678 35.7835 36.0678 35.6104C36.0678 35.4374 36.1554 35.3499 36.2625 35.4158C36.3694 35.4819 36.5286 35.4196 36.6167 35.2774C36.863 34.8789 19.6392 34.9252 19.2402 35.3242ZM55.1832 36.3087C55.1028 36.4389 54.9006 36.5364 54.7339 36.5254C54.5171 36.5112 54.5217 36.4687 54.7504 36.3766C54.9263 36.3056 54.9944 36.1252 54.9021 35.9756C54.8018 35.8135 54.8542 35.7779 55.0318 35.8878C55.1957 35.9891 55.2639 36.1784 55.1832 36.3087ZM20.158 36.6794C20.0796 36.7578 19.9374 36.6165 19.8417 36.3657C19.7038 36.0031 19.7328 35.9738 19.9842 36.2232C20.1582 36.3959 20.2364 36.6013 20.158 36.6794ZM54.183 36.7509C54.1049 36.8293 53.8995 36.7511 53.7268 36.5771C53.4774 36.3257 53.5067 36.2967 53.8693 36.4346C54.1201 36.5303 54.2614 36.6725 54.183 36.7509ZM56.0766 37.5478C56.2692 37.9081 56.2545 38.0908 56.0219 38.2249C55.8466 38.3257 55.785 38.3176 55.885 38.2069C55.985 38.0959 55.9525 37.7913 55.8125 37.53C55.6726 37.2684 55.6153 37.0545 55.6853 37.0545C55.7553 37.0545 55.9313 37.2766 56.0766 37.5478ZM38.8793 38.9761C38.966 39.2025 38.9233 39.3046 38.7793 39.2155C38.6408 39.13 38.5276 38.9524 38.5276 38.8206C38.5276 38.4547 38.7101 38.5354 38.8793 38.9761ZM54.8853 39.7761C54.7797 40.0519 54.825 40.13 55.0209 40.0091C55.2148 39.8893 55.2626 39.9651 55.1606 40.2308C55.0754 40.4527 54.4756 40.9987 53.8278 41.4443C52.3738 42.4435 51.2225 43.6738 51.4286 44.0076C51.5138 44.1453 51.4599 44.1814 51.309 44.0883C50.984 43.8875 49.8792 45.3402 50.0932 45.6865C50.1744 45.8178 50.1067 46.0078 49.9428 46.1091C49.7441 46.232 49.7136 46.1824 49.8507 45.9603C49.9894 45.7358 49.9573 45.6885 49.7525 45.8152C49.5802 45.9216 49.5153 46.2422 49.6026 46.5541C49.7153 46.9572 49.6907 47.0094 49.5105 46.7488C49.3186 46.4709 49.152 46.6124 48.7561 47.3882C48.1316 48.6122 46.9993 49.777 46.4339 49.777C46.2021 49.777 45.51 49.2648 44.8958 48.6391C43.9604 47.686 43.7141 47.5516 43.3797 47.8122C43.037 48.0791 43.025 48.0658 43.2955 47.7193C43.5556 47.3854 43.5082 47.2193 43.022 46.7625C42.6986 46.4587 42.3805 46.2636 42.3151 46.3287C42.25 46.3938 42.1785 46.2061 42.1561 45.9114C42.0978 45.1351 41.6197 44.7224 41.3273 45.1959C41.1452 45.4903 41.1037 45.4524 41.136 45.0221C41.1688 44.5885 41.2686 44.5208 41.6083 44.7025C41.9138 44.8661 42.0815 44.8226 42.1851 44.5524C42.2655 44.3427 42.637 44.0552 43.0108 43.9132C43.5688 43.701 43.8421 43.7585 44.5421 44.2351C45.0108 44.5542 45.395 44.9134 45.396 45.0333C45.397 45.1531 45.5754 45.1832 45.7927 45.0997C46.0192 45.0129 46.1212 45.0557 46.0322 45.1997C45.9467 45.3381 45.9693 45.4506 46.0825 45.4496C46.1958 45.4486 46.5632 45.0442 46.8993 44.5508C47.6917 43.3875 50.3835 40.8979 51.1744 40.5972C51.5459 40.456 51.7176 40.2468 51.6079 40.0689C51.5079 39.9071 51.5326 39.8407 51.6632 39.9214C51.7937 40.002 52.5237 39.857 53.2858 39.599C54.784 39.0918 55.1331 39.1303 54.8853 39.7761ZM55.1924 41.3773C55.2817 41.5219 55.1787 41.5638 54.9502 41.4761C54.6471 41.3598 54.595 41.4343 54.7308 41.7888C54.8896 42.2023 54.8647 42.2124 54.5074 41.8806C54.2214 41.615 54.1891 41.4534 54.3955 41.3203C54.7919 41.0649 55.0089 41.0801 55.1924 41.3773ZM49.2146 41.4631C49.2146 41.5086 48.8996 41.8234 48.5148 42.1628L47.8151 42.7796L48.4319 42.0799C49.0085 41.4259 49.2146 41.2633 49.2146 41.4631ZM53.3191 42.485C53.1634 42.6727 53.1207 42.9201 53.2245 43.0346C53.328 43.1491 53.2644 43.157 53.0825 43.0521C52.828 42.9053 52.8207 42.7791 53.0502 42.5025C53.214 42.3051 53.4054 42.1435 53.4754 42.1435C53.5453 42.1435 53.4751 42.2972 53.3191 42.485ZM47.4385 43.5369C47.2614 43.7501 47.0161 43.9246 46.8935 43.9246C46.7706 43.9246 46.8703 43.7147 47.1153 43.4582C47.64 42.9084 47.9062 42.9733 47.4385 43.5369ZM44.8889 43.9829C44.8889 44.132 44.7273 44.1073 44.5072 43.9246C44.2973 43.7503 44.1255 43.5682 44.1255 43.5198C44.1255 43.4715 44.2973 43.4977 44.5072 43.5781C44.7171 43.6587 44.8889 43.8409 44.8889 43.9829ZM52.268 43.528C52.268 43.5898 52.1535 43.7109 52.0135 43.7974C51.8736 43.8839 51.7591 43.8333 51.7591 43.6852C51.7591 43.5371 51.8736 43.4157 52.0135 43.4157C52.1535 43.4157 52.268 43.4661 52.268 43.528ZM41.8355 44.1791C41.8355 44.319 41.7851 44.4335 41.7233 44.4335C41.6614 44.4335 41.5403 44.319 41.4538 44.1791C41.3673 44.0392 41.4179 43.9246 41.566 43.9246C41.7141 43.9246 41.8355 44.0392 41.8355 44.1791ZM51.7591 44.688C51.7591 44.8279 51.6377 44.9425 51.4896 44.9425C51.3415 44.9425 51.2909 44.8279 51.3774 44.688C51.4639 44.548 51.585 44.4335 51.6469 44.4335C51.7087 44.4335 51.7591 44.548 51.7591 44.688ZM51.2502 45.3516C51.2502 45.562 50.756 45.6811 50.6428 45.4979C50.5693 45.3791 50.6759 45.2816 50.8797 45.2816C51.0835 45.2816 51.2502 45.3132 51.2502 45.3516ZM50.9957 46.5653C50.9957 46.618 50.7952 46.8185 50.5504 47.0106C50.1469 47.3269 50.138 47.318 50.4543 46.9145C50.7868 46.4905 50.9957 46.3559 50.9957 46.5653ZM37.7958 48.0638C37.5444 48.3132 37.5154 48.2839 37.6533 47.9213C37.749 47.6704 37.8912 47.5292 37.9696 47.6076C38.048 47.6857 37.9698 47.891 37.7958 48.0638ZM44.1581 48.4412C44.4744 48.8447 44.4655 48.8536 44.0619 48.5373C43.638 48.2048 43.5034 47.9959 43.7128 47.9959C43.7655 47.9959 43.966 48.1964 44.1581 48.4412ZM39.0365 50.3564C39.0365 50.6694 39.0238 50.6544 38.4355 49.6498L37.9884 48.8865L38.5126 49.4872C38.8006 49.8175 39.0365 50.2088 39.0365 50.3564ZM56.0848 49.6348C56.0848 49.6966 55.9703 49.8177 55.8303 49.9043C55.6904 49.9908 55.5759 49.9401 55.5759 49.792C55.5759 49.644 55.6904 49.5226 55.8303 49.5226C55.9703 49.5226 56.0848 49.573 56.0848 49.6348ZM46.6701 50.2859C46.6701 50.4259 46.5556 50.5404 46.4156 50.5404C46.2757 50.5404 46.1612 50.4259 46.1612 50.2859C46.1612 50.146 46.2757 50.0315 46.4156 50.0315C46.5556 50.0315 46.6701 50.146 46.6701 50.2859ZM55.8273 51.3712L54.9514 52.1943L55.6731 51.388C56.1224 50.8862 56.3222 50.4539 56.2026 50.2429C56.0466 49.9684 56.0759 49.9653 56.3568 50.2261C56.6453 50.4943 56.5568 50.6859 55.8273 51.3712ZM54.0581 53.0396C53.5163 53.22 53.4593 53.1976 53.398 52.7801C53.3446 52.4152 53.4107 52.3953 53.8217 52.6518C54.0896 52.8193 54.196 52.9936 54.0581 53.0396ZM44.6344 54.3572C44.8444 54.4928 44.9016 54.6037 44.7617 54.6037C44.6217 54.6037 44.3355 54.4928 44.1255 54.3572C43.9156 54.2215 43.8584 54.1106 43.9983 54.1106C44.1383 54.1106 44.4245 54.2215 44.6344 54.3572Z" fill="white"/>
</svg>
