<svg width="352" height="138" viewBox="0 0 352 138" fill="none" xmlns="http://www.w3.org/2000/svg">
<path d="M311.292 108.315L313.318 104.457L310.713 81.9829L320.359 78.4141L320.938 71.3729L310.81 65.3927L309.074 44.5586L306.855 41.2791L297.692 37.2281L294.509 44.3657L301.55 47.4522L303.19 68.0934L305.119 71.18L309.845 73.9772L305.119 75.7133L302.611 79.7644L305.408 102.721L290.94 110.148L294.509 116.899L311.292 108.315Z" fill="#DDDDDD"/>
<path d="M337.547 108.315L339.572 104.457L336.968 81.9829L346.613 78.4141L347.192 71.3729L337.064 65.3927L335.328 44.5586L333.11 41.2791L323.947 37.2281L320.764 44.3657L327.805 47.4522L329.444 68.0934L331.374 71.18L336.1 73.9772L331.374 75.7133L328.866 79.7644L331.663 102.721L317.195 110.148L320.764 116.899L337.547 108.315Z" fill="#DDDDDD"/>
<path d="M40.7473 108.315L38.7218 104.457L41.3261 81.9829L31.6806 78.4141L31.1019 71.3729L41.2296 65.3927L42.9658 44.5586L45.1842 41.2791L54.3474 37.2281L57.5304 44.3657L50.4892 47.4522L48.8495 68.0934L46.9204 71.18L42.1942 73.9772L46.9204 75.7133L49.4282 79.7644L46.6311 102.721L61.0992 110.148L57.5304 116.899L40.7473 108.315Z" fill="#DDDDDD"/>
<path d="M14.4534 108.315L12.4279 104.457L15.0321 81.9829L5.38669 78.4141L4.80797 71.3729L14.9357 65.3927L16.6718 44.5586L18.8903 41.2791L28.0535 37.2281L31.2365 44.3657L24.1953 47.4522L22.5556 68.0934L20.6265 71.18L15.9002 73.9772L20.6265 75.7133L23.1343 79.7644L20.3371 102.721L34.8053 110.148L31.2365 116.899L14.4534 108.315Z" fill="#DDDDDD"/>
<path d="M129.649 117.218L117.707 104.297C114.77 105.145 111.54 105.569 108.016 105.569C101.686 105.569 95.8457 104.101 90.4946 101.165C85.2087 98.1627 80.9996 94.0189 77.8673 88.733C74.8002 83.3819 73.2666 77.3782 73.2666 70.7219C73.2666 64.0656 74.8002 58.0946 77.8673 52.8087C80.9996 47.5228 85.2087 43.4116 90.4946 40.475C95.8457 37.4732 101.686 35.9722 108.016 35.9722C114.412 35.9722 120.252 37.4732 125.538 40.475C130.889 43.4116 135.098 47.5228 138.165 52.8087C141.232 58.0946 142.766 64.0656 142.766 70.7219C142.766 76.9866 141.396 82.664 138.655 87.7541C135.979 92.779 132.259 96.825 127.496 99.8921L143.843 117.218H129.649ZM84.7193 70.7219C84.7193 75.7467 85.6982 80.1843 87.6559 84.0345C89.6789 87.8194 92.4523 90.756 95.9763 92.8442C99.5002 94.8672 103.514 95.8787 108.016 95.8787C112.519 95.8787 116.532 94.8672 120.056 92.8442C123.58 90.756 126.321 87.8194 128.279 84.0345C130.302 80.1843 131.313 75.7467 131.313 70.7219C131.313 65.6971 130.302 61.2922 128.279 57.5072C126.321 53.7223 123.58 50.8183 120.056 48.7954C116.532 46.7724 112.519 45.7609 108.016 45.7609C103.514 45.7609 99.5002 46.7724 95.9763 48.7954C92.4523 50.8183 89.6789 53.7223 87.6559 57.5072C85.6982 61.2922 84.7193 65.6971 84.7193 70.7219Z" fill="black"/>
<path d="M193.901 50.9833V104.919H182.742V98.5561C180.98 100.775 178.664 102.537 175.792 103.842C172.986 105.082 169.984 105.702 166.787 105.702C162.545 105.702 158.727 104.821 155.334 103.059C152.006 101.297 149.363 98.6866 147.405 95.228C145.513 91.7693 144.567 87.5929 144.567 82.6985V50.9833H155.628V81.0345C155.628 85.8635 156.835 89.5832 159.25 92.1935C161.664 94.7386 164.96 96.0111 169.136 96.0111C173.313 96.0111 176.608 94.7386 179.023 92.1935C181.502 89.5832 182.742 85.8635 182.742 81.0345V50.9833H193.901Z" fill="black"/>
<path d="M213.697 60.0523V89.9076C213.697 91.9306 214.154 93.3989 215.067 94.3125C216.046 95.1609 217.678 95.5851 219.962 95.5851H226.814V104.884H218.004C212.979 104.884 209.129 103.71 206.453 101.36C203.778 99.0111 202.44 95.1935 202.44 89.9076V60.0523H196.077V50.9489H202.44V37.5384H213.697V50.9489H226.814V60.0523H213.697Z" fill="black"/>
<path d="M278.7 76.5951C278.7 78.6181 278.57 80.4453 278.309 82.0767H237.099C237.425 86.3837 239.024 89.8424 241.895 92.4527C244.766 95.063 248.29 96.3681 252.467 96.3681C258.471 96.3681 262.712 93.8557 265.192 88.8309H277.232C275.601 93.7905 272.631 97.8691 268.324 101.067C264.083 104.199 258.797 105.765 252.467 105.765C247.312 105.765 242.678 104.623 238.567 102.339C234.521 99.9899 231.323 96.7271 228.974 92.5506C226.69 88.3088 225.548 83.4145 225.548 77.8676C225.548 72.3207 226.657 67.459 228.876 63.2825C231.16 59.0408 234.325 55.7779 238.371 53.4939C242.482 51.2099 247.181 50.0679 252.467 50.0679C257.557 50.0679 262.092 51.1773 266.073 53.396C270.054 55.6148 273.154 58.7471 275.372 62.7931C277.591 66.7738 278.7 71.3745 278.7 76.5951ZM267.052 73.0712C266.987 68.96 265.518 65.6644 262.647 63.1847C259.776 60.7049 256.219 59.465 251.977 59.465C248.127 59.465 244.832 60.7049 242.091 63.1847C239.35 65.5992 237.719 68.8947 237.197 73.0712H267.052Z" fill="black"/>
</svg>
