<svg width="312" height="97" viewBox="0 0 312 97" fill="none" xmlns="http://www.w3.org/2000/svg">
<path d="M106.233 15.8891H113.734V28.9793H127.541V15.8891H135.041V50H127.541V35.2855H113.734V50H106.233V15.8891ZM140.641 32.8968C140.737 31.3043 141.135 29.9825 141.835 28.9315C142.536 27.8805 143.428 27.0364 144.511 26.3995C145.594 25.7625 146.804 25.3166 148.142 25.0618C149.511 24.7751 150.881 24.6318 152.25 24.6318C153.492 24.6318 154.75 24.7273 156.024 24.9184C157.298 25.0777 158.461 25.4121 159.512 25.9217C160.563 26.4313 161.423 27.1479 162.092 28.0716C162.761 28.9633 163.095 30.1577 163.095 31.6546V44.5059C163.095 45.6207 163.159 46.6876 163.286 47.7068C163.414 48.726 163.636 49.4904 163.955 50H157.075C156.948 49.6178 156.837 49.2356 156.741 48.8534C156.677 48.4394 156.63 48.0253 156.598 47.6113C155.515 48.726 154.241 49.5063 152.776 49.9522C151.311 50.3981 149.814 50.6211 148.285 50.6211C147.107 50.6211 146.008 50.4777 144.989 50.1911C143.969 49.9045 143.078 49.4586 142.313 48.8534C141.549 48.2483 140.944 47.4839 140.498 46.5602C140.084 45.6366 139.877 44.5378 139.877 43.2638C139.877 41.8624 140.116 40.7158 140.593 39.8241C141.103 38.9004 141.74 38.1679 142.504 37.6264C143.301 37.085 144.192 36.6869 145.18 36.4321C146.199 36.1454 147.218 35.9225 148.237 35.7632C149.256 35.604 150.26 35.4766 151.247 35.381C152.234 35.2855 153.11 35.1422 153.875 34.9511C154.639 34.76 155.244 34.4892 155.69 34.1389C156.136 33.7567 156.343 33.2153 156.311 32.5146C156.311 31.782 156.184 31.2087 155.929 30.7947C155.706 30.3488 155.387 30.0144 154.973 29.7914C154.591 29.5366 154.129 29.3774 153.588 29.3137C153.078 29.2181 152.521 29.1704 151.916 29.1704C150.578 29.1704 149.527 29.457 148.763 30.0303C147.998 30.6036 147.552 31.5591 147.425 32.8968H140.641ZM156.311 37.9131C156.024 38.1679 155.658 38.3749 155.212 38.5341C154.798 38.6615 154.336 38.773 153.827 38.8686C153.349 38.9641 152.839 39.0437 152.298 39.1074C151.757 39.1711 151.215 39.2508 150.674 39.3463C150.164 39.4419 149.655 39.5693 149.145 39.7285C148.667 39.8878 148.237 40.1107 147.855 40.3973C147.505 40.6521 147.218 40.9866 146.995 41.4006C146.772 41.8147 146.661 42.3402 146.661 42.9772C146.661 43.5823 146.772 44.0919 146.995 44.5059C147.218 44.92 147.521 45.2544 147.903 45.5092C148.285 45.7322 148.731 45.8914 149.24 45.987C149.75 46.0825 150.276 46.1303 150.817 46.1303C152.155 46.1303 153.19 45.9073 153.922 45.4614C154.655 45.0155 155.196 44.49 155.547 43.8849C155.897 43.2479 156.104 42.6109 156.168 41.9739C156.263 41.3369 156.311 40.8273 156.311 40.4451V37.9131ZM196.595 50H189.62L185.225 33.4223H185.129L180.925 50H173.902L166.067 25.3006H173.234L177.772 42.0695H177.868L181.976 25.3006H188.569L192.773 42.0217H192.869L197.407 25.3006H204.383L196.595 50ZM207.892 15.8891H214.676V34.1867L223.227 25.3006H231.253L221.937 34.3778L232.304 50H224.087L217.303 38.9641L214.676 41.4962V50H207.892V15.8891ZM251.329 34.9988C251.011 33.279 250.437 31.9731 249.609 31.0813C248.813 30.1896 247.587 29.7437 245.931 29.7437C244.848 29.7437 243.94 29.9348 243.207 30.317C242.507 30.6673 241.933 31.1132 241.488 31.6546C241.074 32.1961 240.771 32.7694 240.58 33.3745C240.421 33.9797 240.325 34.5211 240.293 34.9988H251.329ZM240.293 39.2985C240.389 41.4962 240.946 43.0886 241.965 44.076C242.985 45.0633 244.45 45.557 246.361 45.557C247.73 45.557 248.909 45.2226 249.896 44.5537C250.883 43.853 251.488 43.1205 251.711 42.3561H257.683C256.728 45.3181 255.263 47.4361 253.288 48.7101C251.313 49.9841 248.924 50.6211 246.122 50.6211C244.179 50.6211 242.427 50.3185 240.867 49.7134C239.306 49.0764 237.984 48.1846 236.901 47.038C235.818 45.8914 234.974 44.5219 234.369 42.9294C233.796 41.3369 233.509 39.5852 233.509 37.6742C233.509 35.8269 233.812 34.1071 234.417 32.5146C235.022 30.9221 235.882 29.5526 236.997 28.406C238.112 27.2275 239.433 26.3039 240.962 25.6351C242.523 24.9662 244.243 24.6318 246.122 24.6318C248.224 24.6318 250.055 25.0458 251.616 25.8739C253.176 26.6702 254.45 27.7531 255.438 29.1226C256.457 30.4921 257.189 32.0528 257.635 33.8045C258.081 35.5562 258.24 37.3876 258.113 39.2985H240.293ZM274.319 53.0576C273.586 55.0641 272.567 56.4973 271.261 57.3573C269.956 58.2172 268.14 58.6472 265.815 58.6472C265.115 58.6472 264.414 58.6153 263.713 58.5516C263.044 58.5198 262.36 58.472 261.659 58.4083V52.8187C262.296 52.8824 262.949 52.9461 263.618 53.0098C264.286 53.0735 264.955 53.0894 265.624 53.0576C266.516 52.962 267.169 52.6117 267.583 52.0065C268.029 51.4014 268.252 50.7325 268.252 50C268.252 49.4586 268.156 48.949 267.965 48.4712L259.318 25.3006H266.532L272.121 42.2128H272.217L277.615 25.3006H284.638L274.319 53.0576ZM303.536 34.9988C303.217 33.279 302.644 31.9731 301.816 31.0813C301.02 30.1896 299.793 29.7437 298.137 29.7437C297.054 29.7437 296.147 29.9348 295.414 30.317C294.713 30.6673 294.14 31.1132 293.694 31.6546C293.28 32.1961 292.978 32.7694 292.786 33.3745C292.627 33.9797 292.532 34.5211 292.5 34.9988H303.536ZM292.5 39.2985C292.595 41.4962 293.153 43.0886 294.172 44.076C295.191 45.0633 296.656 45.557 298.567 45.557C299.937 45.557 301.115 45.2226 302.102 44.5537C303.09 43.853 303.695 43.1205 303.918 42.3561H309.89C308.934 45.3181 307.469 47.4361 305.494 48.7101C303.52 49.9841 301.131 50.6211 298.328 50.6211C296.385 50.6211 294.634 50.3185 293.073 49.7134C291.512 49.0764 290.191 48.1846 289.108 47.038C288.025 45.8914 287.181 44.5219 286.576 42.9294C286.002 41.3369 285.716 39.5852 285.716 37.6742C285.716 35.8269 286.018 34.1071 286.624 32.5146C287.229 30.9221 288.089 29.5526 289.203 28.406C290.318 27.2275 291.64 26.3039 293.169 25.6351C294.729 24.9662 296.449 24.6318 298.328 24.6318C300.43 24.6318 302.262 25.0458 303.822 25.8739C305.383 26.6702 306.657 27.7531 307.644 29.1226C308.663 30.4921 309.396 32.0528 309.842 33.8045C310.288 35.5562 310.447 37.3876 310.32 39.2985H292.5Z" fill="white"/>
<path d="M115.749 73.7014C115.654 73.3711 115.521 73.0793 115.349 72.8259C115.177 72.5681 114.967 72.3509 114.718 72.1745C114.473 71.9935 114.193 71.8555 113.876 71.7605C113.564 71.6655 113.218 71.618 112.838 71.618C112.128 71.618 111.503 71.7944 110.965 72.1473C110.431 72.5002 110.015 73.0137 109.716 73.6878C109.418 74.3573 109.268 75.1762 109.268 76.1444C109.268 77.1125 109.415 77.9359 109.71 78.6145C110.004 79.2931 110.42 79.8111 110.958 80.1685C111.497 80.5214 112.132 80.6979 112.865 80.6979C113.53 80.6979 114.098 80.5802 114.568 80.345C115.043 80.1052 115.405 79.7682 115.654 79.3338C115.908 78.8995 116.034 78.386 116.034 77.7934L116.631 77.8816H113.048V75.6693H118.864V77.4202C118.864 78.6417 118.606 79.6912 118.09 80.5689C117.575 81.4421 116.864 82.1162 115.96 82.5912C115.055 83.0617 114.019 83.2969 112.852 83.2969C111.549 83.2969 110.404 83.0097 109.418 82.4351C108.431 81.856 107.662 81.0349 107.11 79.9717C106.563 78.9041 106.289 77.6373 106.289 76.1715C106.289 75.045 106.452 74.0407 106.778 73.1585C107.108 72.2717 107.57 71.5207 108.162 70.9055C108.755 70.2902 109.445 69.8219 110.232 69.5007C111.019 69.1795 111.872 69.0189 112.79 69.0189C113.578 69.0189 114.311 69.1343 114.989 69.365C115.668 69.5912 116.269 69.9124 116.794 70.3286C117.324 70.7449 117.756 71.2402 118.09 71.8148C118.425 72.3848 118.64 73.0137 118.735 73.7014H115.749ZM124.129 83.1069V69.2089H133.494V71.6316H127.067V74.9432H133.012V77.3659H127.067V80.6843H133.521V83.1069H124.129ZM150.512 69.2089V83.1069H147.974L141.928 74.3596H141.826V83.1069H138.887V69.2089H141.466L147.465 77.9495H147.587V69.2089H150.512ZM155.997 83.1069V69.2089H165.362V71.6316H158.936V74.9432H164.88V77.3659H158.936V80.6843H165.389V83.1069H155.997ZM170.756 83.1069V69.2089H176.239C177.289 69.2089 178.184 69.3967 178.926 69.7722C179.673 70.1432 180.241 70.6702 180.63 71.3534C181.023 72.032 181.22 72.8305 181.22 73.7489C181.22 74.6718 181.021 75.4657 180.623 76.1308C180.225 76.7913 179.648 77.298 178.892 77.6509C178.141 78.0038 177.232 78.1802 176.164 78.1802H172.493V75.8186H175.689C176.25 75.8186 176.716 75.7417 177.087 75.5879C177.458 75.4341 177.734 75.2033 177.915 74.8957C178.101 74.5881 178.193 74.2058 178.193 73.7489C178.193 73.2874 178.101 72.8983 177.915 72.5816C177.734 72.265 177.456 72.0252 177.08 71.8623C176.71 71.6949 176.241 71.6112 175.676 71.6112H173.694V83.1069H170.756ZM178.261 76.7823L181.715 83.1069H178.472L175.092 76.7823H178.261ZM188.75 83.1069H185.601L190.399 69.2089H194.185L198.976 83.1069H195.828L192.346 72.3848H192.238L188.75 83.1069ZM188.553 77.6441H195.99V79.9378H188.553V77.6441ZM201.479 71.6316V69.2089H212.893V71.6316H208.639V83.1069H205.734V71.6316H201.479ZM220.769 69.2089V83.1069H217.831V69.2089H220.769ZM228.755 69.2089L232.114 79.7682H232.243L235.609 69.2089H238.866L234.075 83.1069H230.289L225.491 69.2089H228.755ZM243.597 83.1069V69.2089H252.962V71.6316H246.535V74.9432H252.48V77.3659H246.535V80.6843H252.989V83.1069H243.597ZM268.231 83.1069H265.083L269.88 69.2089H273.667L278.458 83.1069H275.309L271.828 72.3848H271.719L268.231 83.1069ZM268.035 77.6441H275.472V79.9378H268.035V77.6441ZM286.127 69.2089V83.1069H283.188V69.2089H286.127Z" fill="white"/>
<g filter="url(#filter0_d_193_7616)">
<path fill-rule="evenodd" clip-rule="evenodd" d="M30.3946 3C30.4531 3 30.5116 3 30.57 3.00021C47.865 3.00021 55.9213 8.51706 55.9213 20.514V24.8637C55.8869 24.8629 55.8524 24.8625 55.8179 24.8626C55.138 24.8612 54.4692 25.0344 53.8754 25.3656C53.2817 25.6967 52.7829 26.1748 52.4268 26.7539C52.0707 27.3331 51.8693 27.9939 51.8418 28.6732C51.8143 29.3525 51.9616 30.0275 52.2697 30.6336L46.4353 36.4679C46.2044 36.6988 46.0746 37.012 46.0746 37.3385V41.6983C45.1755 42.0002 44.4136 42.6129 43.926 43.4264C43.4384 44.2398 43.257 45.2006 43.4145 46.1358C43.5719 47.0711 44.0579 47.9194 44.785 48.5284C45.5121 49.1373 46.4326 49.4668 47.381 49.4576C48.3294 49.4485 49.2433 49.1013 49.9586 48.4784C50.6738 47.8556 51.1433 46.998 51.2827 46.0599C51.4221 45.1218 51.2222 44.1647 50.719 43.3608C50.2157 42.5569 49.4422 41.959 48.5375 41.6745V37.8484L54.0058 32.3801C54.5417 32.6557 55.1331 32.8061 55.7355 32.8199C55.7975 32.8213 55.8595 32.8213 55.9213 32.8198V52.8989H42.8993L37.7467 47.7463C38.1854 46.9053 38.3097 45.9355 38.0972 45.0111C37.8847 44.0867 37.3493 43.2685 36.5874 42.7036C35.8255 42.1387 34.8871 41.8642 33.9408 41.9294C32.9946 41.9947 32.1027 42.3954 31.4255 43.0595C30.7483 43.7236 30.3303 44.6076 30.2467 45.5524C30.1631 46.4972 30.4193 47.4408 30.9693 48.2135C31.5193 48.9863 32.3269 49.5374 33.247 49.7679C34.1671 49.9983 35.1391 49.8929 35.9884 49.4706L41.5188 55.001C41.7497 55.232 42.0629 55.3617 42.3895 55.3618H55.9213V61.0458H46.3608C46.1026 60.2439 45.5969 59.5443 44.9164 59.0478C44.2358 58.5512 43.4154 58.283 42.5729 58.2819C41.84 58.2817 41.1214 58.4839 40.4962 58.8663C39.8711 59.2487 39.3637 59.7963 39.03 60.4488C38.6964 61.1012 38.5494 61.8332 38.6054 62.5639C38.6614 63.2946 38.9182 63.9956 39.3473 64.5896C39.7765 65.1836 40.3614 65.6476 41.0375 65.9302C41.7136 66.2129 42.4547 66.3033 43.1789 66.1915C43.9032 66.0796 44.5825 65.7699 45.1419 65.2965C45.7012 64.8231 46.119 64.2043 46.349 63.5085H55.9213V81.8125C55.8121 85.7767 52.51 88.9019 48.5458 88.7927C44.9535 88.6938 41.9876 85.9546 41.6038 82.3816V81.8562V70.5598C41.628 69.4718 40.7656 68.5704 39.6778 68.5462L39.6676 68.5459L39.6546 68.5458L39.6335 68.5457C38.5453 68.5455 37.6629 69.4275 37.6627 70.5156L37.6628 70.5324L37.6632 70.56V81.7688V82.3379C37.39 86.0636 34.3056 88.9575 30.57 88.9932C26.7758 89.0449 23.6214 86.0841 23.4332 82.2942V81.7688V70.56C23.4577 69.472 22.5956 68.5704 21.5077 68.5459C21.4781 68.5453 21.4486 68.5453 21.4192 68.5459C20.3312 68.5215 19.4296 69.3835 19.4052 70.4715C19.4046 70.5011 19.4046 70.5306 19.4052 70.5602V81.769V82.2944C19.086 85.3038 16.9513 87.681 14.2054 88.4526V81.6458C14.2053 81.3192 14.0755 81.006 13.8446 80.7751L8.1087 75.0392C7.87779 74.8083 7.5646 74.6785 7.23802 74.6784H5.08762V70.5602H4.99998V59.7951H8.39028L14.6798 66.0846C14.9107 66.3156 15.2239 66.4454 15.5505 66.4454H20.9129C21.1797 67.2101 21.6775 67.873 22.3374 68.3425C22.9973 68.812 23.7868 69.0649 24.5967 69.0662C25.318 69.0662 26.0252 68.8664 26.6399 68.489C27.2546 68.1115 27.7528 67.5711 28.079 66.9278C28.4053 66.2845 28.5471 65.5633 28.4885 64.8444C28.4299 64.1254 28.1733 63.4367 27.7471 62.8547C27.321 62.2727 26.7419 61.8201 26.0742 61.5472C25.4065 61.2742 24.6762 61.1916 23.9644 61.3084C23.2526 61.4252 22.587 61.7369 22.0415 62.2089C21.4961 62.6809 21.092 63.2948 20.8742 63.9825H16.0603L9.77081 57.693C9.53991 57.4621 9.22672 57.3323 8.90014 57.3322H4.99998V29.0815L10.9915 23.09H30.4004C30.6789 23.9938 31.2706 24.7686 32.0693 25.2752C32.8679 25.7818 33.8211 25.9869 34.7574 25.8537C35.6937 25.7205 36.5518 25.2576 37.1774 24.5484C37.8031 23.8391 38.1552 22.93 38.1706 21.9844C38.1859 21.0387 37.8635 20.1186 37.2612 19.3895C36.6589 18.6603 35.8163 18.1698 34.8848 18.0063C33.9533 17.8427 32.994 18.0168 32.1793 18.4972C31.3647 18.9776 30.7481 19.7328 30.4404 20.6271H10.4811C10.1546 20.6272 9.84138 20.7569 9.61048 20.9879L5.17695 25.4216C6.66689 12.8128 17.3811 3.02262 30.3946 3ZM55.9213 27.3291V30.3545C55.887 30.3568 55.8525 30.358 55.8179 30.358C55.4159 30.3576 55.0305 30.1977 54.7462 29.9135C54.4619 29.6293 54.302 29.2439 54.3014 28.8419C54.3014 28.542 54.3903 28.2489 54.5569 27.9995C54.7234 27.7502 54.9602 27.5558 55.2373 27.441C55.4544 27.351 55.6886 27.3131 55.9213 27.3291ZM5.08762 77.1414H6.72813L11.7425 82.1558V88.6989C11.6643 88.6931 11.5859 88.6861 11.5073 88.6778C7.94313 88.2997 5.20338 85.3512 5.08762 81.769V77.1414ZM25.9499 52.4309C26.8005 52.0138 27.772 51.9138 28.6897 52.149C29.6075 52.3841 30.4112 52.939 30.9564 53.7137C31.5016 54.4885 31.7526 55.4324 31.6641 56.3756C31.5756 57.3188 31.1535 58.1995 30.4738 58.8594C29.794 59.5193 28.9011 59.9149 27.9556 59.9753C27.0102 60.0357 26.0742 59.7568 25.316 59.1888C24.5578 58.6208 24.0271 57.8009 23.8194 56.8766C23.6116 55.9523 23.7404 54.9842 24.1827 54.1464L12.0523 42.016C11.8214 41.7851 11.6916 41.4719 11.6915 41.1453V33.8429C10.7908 33.5497 10.0242 32.9448 9.52956 32.137C9.03492 31.3292 8.84471 30.3714 8.99313 29.4358C9.14153 28.5003 9.61884 27.6484 10.3392 27.0333C11.0596 26.4182 11.9757 26.0802 12.923 26.0802C13.8702 26.0802 14.7864 26.4182 15.5068 27.0333C16.2271 27.6484 16.7044 28.5003 16.8528 29.4358C17.0012 30.3714 16.811 31.3292 16.3164 32.137C15.8218 32.9448 15.0552 33.5497 14.1544 33.8429V40.6356L25.9499 52.4309ZM27.7017 57.515C28.0016 57.515 28.2948 57.4261 28.5442 57.2594C28.7936 57.0928 28.9879 56.856 29.1027 56.5789C29.2175 56.3018 29.2475 55.9969 29.189 55.7027C29.1305 55.4086 28.9861 55.1384 28.774 54.9263C28.5619 54.7142 28.2917 54.5698 27.9976 54.5113C27.7034 54.4528 27.3985 54.4828 27.1214 54.5976C26.8443 54.7123 26.6075 54.9067 26.4408 55.1561C26.2742 55.4055 26.1853 55.6986 26.1853 55.9986C26.1857 56.4006 26.3456 56.7861 26.6299 57.0703C26.9142 57.3546 27.2997 57.5145 27.7017 57.515ZM14.4391 30.0609C14.439 29.761 14.3501 29.4679 14.1834 29.2186C14.0168 28.9693 13.78 28.775 13.5029 28.6602C13.2258 28.5455 12.921 28.5155 12.6269 28.5741C12.3328 28.6326 12.0626 28.777 11.8506 28.9891C11.6386 29.2012 11.4942 29.4714 11.4357 29.7655C11.3772 30.0596 11.4073 30.3645 11.5221 30.6415C11.6369 30.9186 11.8313 31.1553 12.0806 31.3219C12.33 31.4885 12.6231 31.5774 12.923 31.5774C13.325 31.5768 13.7104 31.4169 13.9946 31.1326C14.2788 30.8483 14.4387 30.4629 14.4391 30.0609ZM43.4155 63.5223C43.166 63.6889 42.8728 63.7777 42.5729 63.7777C42.1709 63.7771 41.7855 63.6172 41.5013 63.3329C41.2171 63.0486 41.0573 62.6632 41.0568 62.2612C41.0568 61.9613 41.1458 61.6681 41.3124 61.4187C41.479 61.1693 41.7159 60.975 41.993 60.8602C42.2701 60.7454 42.5751 60.7154 42.8692 60.774C43.1634 60.8325 43.4336 60.977 43.6457 61.1891C43.8577 61.4012 44.0021 61.6714 44.0606 61.9656C44.1191 62.2598 44.089 62.5647 43.9741 62.8418C43.8593 63.1189 43.6649 63.3557 43.4155 63.5223ZM24.5967 63.7192C24.3115 63.7192 24.0326 63.8037 23.7955 63.9621C23.5583 64.1205 23.3734 64.3457 23.2642 64.6092C23.155 64.8727 23.1264 65.1627 23.182 65.4424C23.2376 65.7222 23.375 65.9792 23.5766 66.1809C23.7783 66.3826 24.0352 66.52 24.3149 66.5756C24.5947 66.6313 24.8846 66.6028 25.1481 66.4937C25.4117 66.3846 25.6369 66.1998 25.7954 65.9627C25.9539 65.7255 26.0385 65.4467 26.0386 65.1615C26.0381 64.7792 25.8861 64.4126 25.6158 64.1423C25.3455 63.8719 24.979 63.7197 24.5967 63.7192ZM33.3767 44.6506C33.626 44.484 33.9192 44.395 34.2191 44.395C34.6212 44.3955 35.0066 44.5554 35.2909 44.8397C35.5752 45.124 35.7351 45.5094 35.7356 45.9115C35.7356 46.2114 35.6466 46.5046 35.48 46.754C35.3134 47.0033 35.0766 47.1977 34.7995 47.3125C34.5224 47.4273 34.2175 47.4573 33.9233 47.3988C33.6291 47.3403 33.3589 47.1958 33.1469 46.9838C32.9348 46.7717 32.7904 46.5015 32.7318 46.2073C32.6733 45.9132 32.7034 45.6083 32.8181 45.3312C32.9329 45.0541 33.1273 44.8172 33.3767 44.6506ZM34.2016 23.4305C34.5015 23.4305 34.7947 23.3416 35.044 23.175C35.2934 23.0085 35.4878 22.7717 35.6025 22.4946C35.7173 22.2176 35.7474 21.9127 35.6889 21.6186C35.6305 21.3245 35.4861 21.0543 35.2741 20.8422C35.062 20.6302 34.7919 20.4857 34.4978 20.4272C34.2037 20.3686 33.8988 20.3986 33.6217 20.5134C33.3447 20.6281 33.1078 20.8224 32.9412 21.0717C32.7746 21.321 32.6856 21.6142 32.6856 21.914C32.686 22.316 32.8459 22.7014 33.1301 22.9857C33.4143 23.27 33.7997 23.4299 34.2016 23.4305ZM47.3385 43.952C47.0385 43.9519 46.7453 44.0408 46.4959 44.2074C46.2465 44.3739 46.052 44.6107 45.9372 44.8878C45.8224 45.1649 45.7923 45.4698 45.8508 45.764C45.9092 46.0582 46.0536 46.3284 46.2657 46.5406C46.4778 46.7527 46.748 46.8971 47.0421 46.9557C47.3363 47.0142 47.6412 46.9842 47.9183 46.8694C48.1955 46.7547 48.4323 46.5603 48.599 46.3109C48.7656 46.0615 48.8546 45.7683 48.8546 45.4684C48.8541 45.0664 48.6942 44.681 48.41 44.3968C48.1258 44.1125 47.7405 43.9525 47.3385 43.952ZM50.62 18.3252C50.0799 18.0665 49.4884 17.9331 48.8895 17.9348C48.2019 17.9343 47.5258 18.1122 46.9274 18.451C46.329 18.7898 45.8286 19.278 45.4753 19.868C45.1219 20.4579 44.9276 21.1294 44.9113 21.8169C44.895 22.5044 45.0572 23.1844 45.3822 23.7904L35.023 34.15H28.6737C28.3805 33.2491 27.7756 32.4824 26.9677 31.9877C26.1598 31.4931 25.2019 31.3028 24.2663 31.4512C23.3307 31.5996 22.4787 32.077 21.8635 32.7974C21.2484 33.5178 20.9104 34.4341 20.9104 35.3814C20.9104 36.3287 21.2484 37.245 21.8635 37.9654C22.4787 38.6858 23.3307 39.1632 24.2663 39.3116C25.2019 39.46 26.1598 39.2698 26.9677 38.7751C27.7756 38.2804 28.3805 37.5137 28.6737 36.6128H35.5328C35.8594 36.6128 36.1726 36.483 36.4035 36.2521L47.1622 25.4931C47.7008 25.7548 48.2916 25.8915 48.8905 25.8931C49.4893 25.8947 50.0808 25.7611 50.6208 25.5022C51.1608 25.2434 51.6355 24.866 52.0093 24.3982C52.3832 23.9304 52.6467 23.3843 52.7801 22.8005C52.9135 22.2167 52.9135 21.6103 52.7799 21.0265C52.6463 20.4427 52.3828 19.8967 52.0088 19.4289C51.6348 18.9612 51.1601 18.584 50.62 18.3252ZM49.7318 23.1746C49.4825 23.3412 49.1894 23.4301 48.8895 23.4302C48.4875 23.4297 48.102 23.27 47.8177 22.9856C47.5334 22.7013 47.3735 22.3158 47.3731 21.9137C47.3731 21.6139 47.4621 21.3208 47.6287 21.0714C47.7953 20.8221 48.0321 20.6278 48.3092 20.5131C48.5862 20.3984 48.8911 20.3683 49.1852 20.4269C49.4793 20.4854 49.7494 20.6298 49.9615 20.8418C50.1735 21.0538 50.3179 21.324 50.3764 21.6181C50.4349 21.9122 50.4049 22.217 50.2902 22.4941C50.1755 22.7711 49.9812 23.0079 49.7318 23.1746ZM24.0493 34.1205C24.2987 33.9539 24.5919 33.865 24.8918 33.865C25.2939 33.8654 25.6793 34.0253 25.9636 34.3096C26.2479 34.5939 26.4078 34.9794 26.4083 35.3814C26.4083 35.6813 26.3193 35.9745 26.1527 36.2239C25.9861 36.4733 25.7492 36.6676 25.4721 36.7824C25.1951 36.8972 24.8901 36.9272 24.596 36.8687C24.3018 36.8102 24.0316 36.6658 23.8195 36.4537C23.6075 36.2416 23.463 35.9714 23.4045 35.6772C23.346 35.3831 23.376 35.0782 23.4908 34.8011C23.6056 34.524 23.8 34.2872 24.0493 34.1205ZM66.8339 27.772C70.4127 27.7478 73.3335 30.6293 73.3577 34.2081L73.3579 34.252V38.6304C71.5319 37.1295 69.2414 36.3094 66.8779 36.3098H59.4344V27.7718L66.8339 27.772ZM71.2772 41.914C70.0741 40.8028 68.4925 40.1922 66.8549 40.2064H59.4553V45.986H66.4171C68.7956 45.9472 70.8224 44.249 71.2772 41.914Z" fill="white"/>
</g>
<defs>
<filter id="filter0_d_193_7616" x="0.222562" y="0.611281" width="77.9128" height="95.5485" filterUnits="userSpaceOnUse" color-interpolation-filters="sRGB">
<feFlood flood-opacity="0" result="BackgroundImageFix"/>
<feColorMatrix in="SourceAlpha" type="matrix" values="0 0 0 0 0 0 0 0 0 0 0 0 0 0 0 0 0 0 127 0" result="hardAlpha"/>
<feOffset dy="2.38872"/>
<feGaussianBlur stdDeviation="2.38872"/>
<feComposite in2="hardAlpha" operator="out"/>
<feColorMatrix type="matrix" values="0 0 0 0 0 0 0 0 0 0 0 0 0 0 0 0 0 0 0.1 0"/>
<feBlend mode="normal" in2="BackgroundImageFix" result="effect1_dropShadow_193_7616"/>
<feBlend mode="normal" in="SourceGraphic" in2="effect1_dropShadow_193_7616" result="shape"/>
</filter>
</defs>
</svg>
