<svg width="132" height="40" viewBox="0 0 132 40" fill="none" xmlns="http://www.w3.org/2000/svg">
<g filter="url(#filter0_d_3_338)">
<path d="M44.3798 6.72H47.5198V12.2H53.2998V6.72H56.4398V21H53.2998V14.84H47.5198V21H44.3798V6.72ZM58.784 13.84C58.824 13.1733 58.9906 12.62 59.284 12.18C59.5773 11.74 59.9506 11.3867 60.404 11.12C60.8573 10.8533 61.364 10.6667 61.924 10.56C62.4973 10.44 63.0706 10.38 63.644 10.38C64.164 10.38 64.6906 10.42 65.224 10.5C65.7573 10.5667 66.244 10.7067 66.684 10.92C67.124 11.1333 67.484 11.4333 67.764 11.82C68.044 12.1933 68.184 12.6933 68.184 13.32V18.7C68.184 19.1667 68.2106 19.6133 68.264 20.04C68.3173 20.4667 68.4106 20.7867 68.544 21H65.664C65.6106 20.84 65.564 20.68 65.524 20.52C65.4973 20.3467 65.4773 20.1733 65.464 20C65.0106 20.4667 64.4773 20.7933 63.864 20.98C63.2506 21.1667 62.624 21.26 61.984 21.26C61.4906 21.26 61.0306 21.2 60.604 21.08C60.1773 20.96 59.804 20.7733 59.484 20.52C59.164 20.2667 58.9106 19.9467 58.724 19.56C58.5506 19.1733 58.464 18.7133 58.464 18.18C58.464 17.5933 58.564 17.1133 58.764 16.74C58.9773 16.3533 59.244 16.0467 59.564 15.82C59.8973 15.5933 60.2706 15.4267 60.684 15.32C61.1106 15.2 61.5373 15.1067 61.964 15.04C62.3906 14.9733 62.8106 14.92 63.224 14.88C63.6373 14.84 64.004 14.78 64.324 14.7C64.644 14.62 64.8973 14.5067 65.084 14.36C65.2706 14.2 65.3573 13.9733 65.344 13.68C65.344 13.3733 65.2906 13.1333 65.184 12.96C65.0906 12.7733 64.9573 12.6333 64.784 12.54C64.624 12.4333 64.4306 12.3667 64.204 12.34C63.9906 12.3 63.7573 12.28 63.504 12.28C62.944 12.28 62.504 12.4 62.184 12.64C61.864 12.88 61.6773 13.28 61.624 13.84H58.784ZM65.344 15.94C65.224 16.0467 65.0706 16.1333 64.884 16.2C64.7106 16.2533 64.5173 16.3 64.304 16.34C64.104 16.38 63.8906 16.4133 63.664 16.44C63.4373 16.4667 63.2106 16.5 62.984 16.54C62.7706 16.58 62.5573 16.6333 62.344 16.7C62.144 16.7667 61.964 16.86 61.804 16.98C61.6573 17.0867 61.5373 17.2267 61.444 17.4C61.3506 17.5733 61.304 17.7933 61.304 18.06C61.304 18.3133 61.3506 18.5267 61.444 18.7C61.5373 18.8733 61.664 19.0133 61.824 19.12C61.984 19.2133 62.1706 19.28 62.384 19.32C62.5973 19.36 62.8173 19.38 63.044 19.38C63.604 19.38 64.0373 19.2867 64.344 19.1C64.6506 18.9133 64.8773 18.6933 65.024 18.44C65.1706 18.1733 65.2573 17.9067 65.284 17.64C65.324 17.3733 65.344 17.16 65.344 17V15.94ZM82.2084 21H79.2883L77.4483 14.06H77.4084L75.6483 21H72.7083L69.4283 10.66H72.4283L74.3283 17.68H74.3684L76.0883 10.66H78.8484L80.6083 17.66H80.6484L82.5484 10.66H85.4684L82.2084 21ZM86.9374 6.72H89.7774V14.38L93.3574 10.66H96.7174L92.8174 14.46L97.1574 21H93.7174L90.8774 16.38L89.7774 17.44V21H86.9374V6.72ZM105.122 14.72C104.988 14 104.748 13.4533 104.402 13.08C104.068 12.7067 103.555 12.52 102.862 12.52C102.408 12.52 102.028 12.6 101.722 12.76C101.428 12.9067 101.188 13.0933 101.002 13.32C100.828 13.5467 100.702 13.7867 100.622 14.04C100.555 14.2933 100.515 14.52 100.502 14.72H105.122ZM100.502 16.52C100.542 17.44 100.775 18.1067 101.202 18.52C101.628 18.9333 102.242 19.14 103.042 19.14C103.615 19.14 104.108 19 104.522 18.72C104.935 18.4267 105.188 18.12 105.282 17.8H107.782C107.382 19.04 106.768 19.9267 105.942 20.46C105.115 20.9933 104.115 21.26 102.942 21.26C102.128 21.26 101.395 21.1333 100.742 20.88C100.088 20.6133 99.5351 20.24 99.0818 19.76C98.6285 19.28 98.2751 18.7067 98.0218 18.04C97.7818 17.3733 97.6618 16.64 97.6618 15.84C97.6618 15.0667 97.7885 14.3467 98.0418 13.68C98.2951 13.0133 98.6551 12.44 99.1218 11.96C99.5885 11.4667 100.142 11.08 100.782 10.8C101.435 10.52 102.155 10.38 102.942 10.38C103.822 10.38 104.588 10.5533 105.242 10.9C105.895 11.2333 106.428 11.6867 106.842 12.26C107.268 12.8333 107.575 13.4867 107.762 14.22C107.948 14.9533 108.015 15.72 107.962 16.52H100.502ZM114.746 22.28C114.439 23.12 114.013 23.72 113.466 24.08C112.919 24.44 112.159 24.62 111.186 24.62C110.893 24.62 110.599 24.6067 110.306 24.58C110.026 24.5667 109.739 24.5467 109.446 24.52V22.18C109.713 22.2067 109.986 22.2333 110.266 22.26C110.546 22.2867 110.826 22.2933 111.106 22.28C111.479 22.24 111.753 22.0933 111.926 21.84C112.113 21.5867 112.206 21.3067 112.206 21C112.206 20.7733 112.166 20.56 112.086 20.36L108.466 10.66H111.486L113.826 17.74H113.866L116.126 10.66H119.066L114.746 22.28ZM126.977 14.72C126.844 14 126.604 13.4533 126.257 13.08C125.924 12.7067 125.411 12.52 124.717 12.52C124.264 12.52 123.884 12.6 123.577 12.76C123.284 12.9067 123.044 13.0933 122.857 13.32C122.684 13.5467 122.557 13.7867 122.477 14.04C122.411 14.2933 122.371 14.52 122.357 14.72H126.977ZM122.357 16.52C122.397 17.44 122.631 18.1067 123.057 18.52C123.484 18.9333 124.097 19.14 124.897 19.14C125.471 19.14 125.964 19 126.377 18.72C126.791 18.4267 127.044 18.12 127.137 17.8H129.637C129.237 19.04 128.624 19.9267 127.797 20.46C126.971 20.9933 125.971 21.26 124.797 21.26C123.984 21.26 123.251 21.1333 122.597 20.88C121.944 20.6133 121.391 20.24 120.937 19.76C120.484 19.28 120.131 18.7067 119.877 18.04C119.637 17.3733 119.517 16.64 119.517 15.84C119.517 15.0667 119.644 14.3467 119.897 13.68C120.151 13.0133 120.511 12.44 120.977 11.96C121.444 11.4667 121.997 11.08 122.637 10.8C123.291 10.52 124.011 10.38 124.797 10.38C125.677 10.38 126.444 10.5533 127.097 10.9C127.751 11.2333 128.284 11.6867 128.697 12.26C129.124 12.8333 129.431 13.4867 129.617 14.22C129.804 14.9533 129.871 15.72 129.817 16.52H122.357Z" fill="#002068"/>
<path d="M48.3634 31.0625C48.3236 30.9242 48.2677 30.8021 48.1958 30.696C48.1238 30.5881 48.0357 30.4972 47.9316 30.4233C47.8293 30.3475 47.7119 30.2898 47.5793 30.25C47.4486 30.2102 47.3037 30.1903 47.1446 30.1903C46.8473 30.1903 46.5859 30.2642 46.3606 30.4119C46.1371 30.5597 45.9628 30.7746 45.8378 31.0568C45.7128 31.3371 45.6503 31.6799 45.6503 32.0852C45.6503 32.4905 45.7119 32.8352 45.835 33.1193C45.9581 33.4034 46.1323 33.6203 46.3577 33.7699C46.5831 33.9176 46.8492 33.9915 47.156 33.9915C47.4344 33.9915 47.6721 33.9422 47.8691 33.8438C48.0679 33.7434 48.2195 33.6023 48.3236 33.4205C48.4297 33.2386 48.4827 33.0237 48.4827 32.7756L48.7327 32.8125H47.2327V31.8864H49.6674V32.6193C49.6674 33.1307 49.5594 33.5701 49.3435 33.9375C49.1276 34.303 48.8302 34.5852 48.4515 34.7841C48.0727 34.9811 47.639 35.0795 47.1503 35.0795C46.6049 35.0795 46.1257 34.9593 45.7128 34.7188C45.2999 34.4763 44.978 34.1326 44.7469 33.6875C44.5177 33.2405 44.4032 32.7102 44.4032 32.0966C44.4032 31.625 44.4713 31.2045 44.6077 30.8352C44.746 30.464 44.9391 30.1496 45.1873 29.892C45.4354 29.6345 45.7242 29.4384 46.0537 29.304C46.3833 29.1695 46.7403 29.1023 47.1248 29.1023C47.4543 29.1023 47.7611 29.1506 48.0452 29.2472C48.3293 29.3419 48.5812 29.4763 48.8009 29.6506C49.0225 29.8248 49.2034 30.0322 49.3435 30.2727C49.4837 30.5114 49.5736 30.7746 49.6134 31.0625H48.3634ZM51.8714 35V29.1818H55.7918V30.196H53.1015V31.5824H55.5901V32.5966H53.1015V33.9858H55.8032V35H51.8714ZM62.9163 29.1818V35H61.8538L59.3225 31.3381H59.2799V35H58.0498V29.1818H59.1294L61.6407 32.8409H61.6919V29.1818H62.9163ZM65.2126 35V29.1818H69.1331V30.196H66.4427V31.5824H68.9314V32.5966H66.4427V33.9858H69.1444V35H65.2126ZM71.3911 35V29.1818H73.6865C74.1259 29.1818 74.5009 29.2604 74.8115 29.4176C75.124 29.5729 75.3617 29.7936 75.5246 30.0795C75.6894 30.3636 75.7717 30.6979 75.7717 31.0824C75.7717 31.4687 75.6884 31.8011 75.5217 32.0795C75.3551 32.3561 75.1136 32.5682 74.7973 32.7159C74.4829 32.8636 74.1022 32.9375 73.6553 32.9375H72.1183V31.9489H73.4564C73.6913 31.9489 73.8863 31.9167 74.0416 31.8523C74.1969 31.7879 74.3125 31.6913 74.3882 31.5625C74.4659 31.4337 74.5047 31.2737 74.5047 31.0824C74.5047 30.8892 74.4659 30.7263 74.3882 30.5938C74.3125 30.4612 74.196 30.3608 74.0388 30.2926C73.8835 30.2225 73.6875 30.1875 73.4507 30.1875H72.6212V35H71.3911ZM74.5331 32.3523L75.9791 35H74.6212L73.2064 32.3523H74.5331ZM78.9239 35H77.6057L79.6142 29.1818H81.1995L83.2052 35H81.887L80.4296 30.5114H80.3841L78.9239 35ZM78.8415 32.7131H81.9552V33.6733H78.8415V32.7131ZM84.2529 30.196V29.1818H89.0313V30.196H87.2501V35H86.0342V30.196H84.2529ZM92.3284 29.1818V35H91.0982V29.1818H92.3284ZM95.6716 29.1818L97.0778 33.6023H97.1318L98.5409 29.1818H99.9045L97.8988 35H96.3136L94.3051 29.1818H95.6716ZM101.885 35V29.1818H105.805V30.196H103.115V31.5824H105.604V32.5966H103.115V33.9858H105.817V35H101.885ZM112.198 35H110.879L112.888 29.1818H114.473L116.479 35H115.161L113.703 30.5114H113.658L112.198 35ZM112.115 32.7131H115.229V33.6733H112.115V32.7131ZM119.689 29.1818V35H118.459V29.1818H119.689Z" fill="#1C2B52"/>
</g>
<g filter="url(#filter1_d_3_338)">
<path fill-rule="evenodd" clip-rule="evenodd" d="M12.631 1L12.7045 1.00009C19.9448 1.00009 23.3174 3.30963 23.3174 8.33195V10.1529C23.303 10.1526 23.2885 10.1524 23.2741 10.1524C22.9895 10.1519 22.7095 10.2244 22.4609 10.363C22.2123 10.5016 22.0035 10.7017 21.8545 10.9442C21.7054 11.1866 21.6211 11.4633 21.6095 11.7477C21.598 12.0321 21.6597 12.3146 21.7887 12.5683L19.3462 15.0108C19.2495 15.1075 19.1952 15.2386 19.1952 15.3753V17.2004C18.8188 17.3268 18.4999 17.5833 18.2957 17.9239C18.0916 18.2644 18.0157 18.6666 18.0816 19.0581C18.1475 19.4497 18.351 19.8048 18.6553 20.0597C18.9597 20.3146 19.3451 20.4526 19.7421 20.4488C20.1391 20.4449 20.5217 20.2996 20.8212 20.0388C21.1206 19.7781 21.3171 19.4191 21.3755 19.0263C21.4338 18.6336 21.3502 18.233 21.1395 17.8964C20.9288 17.5599 20.605 17.3096 20.2262 17.1905V15.5888L22.5155 13.2995C22.7398 13.4149 22.9874 13.4779 23.2396 13.4836C23.2656 13.4842 23.2915 13.4842 23.3174 13.4836V21.8894H17.866L15.7089 19.7323C15.8926 19.3803 15.9446 18.9743 15.8557 18.5873C15.7667 18.2003 15.5426 17.8578 15.2236 17.6213C14.9047 17.3848 14.5118 17.2699 14.1157 17.2972C13.7195 17.3245 13.3461 17.4923 13.0627 17.7703C12.7792 18.0483 12.6042 18.4184 12.5692 18.8139C12.5342 19.2094 12.6414 19.6044 12.8717 19.9279C13.1019 20.2514 13.44 20.4822 13.8252 20.5786C14.2104 20.6751 14.6173 20.631 14.9729 20.4542L17.2881 22.7694C17.3847 22.8661 17.5158 22.9204 17.6525 22.9204H23.3174V25.3H19.3149C19.2069 24.9642 18.9952 24.6714 18.7103 24.4635C18.4253 24.2556 18.0819 24.1434 17.7292 24.1429C17.4224 24.1428 17.1216 24.2275 16.8598 24.3876C16.5981 24.5476 16.3857 24.7769 16.246 25.05C16.1064 25.3232 16.0448 25.6296 16.0683 25.9355C16.0917 26.2414 16.1992 26.5349 16.3789 26.7835C16.5585 27.0322 16.8034 27.2264 17.0864 27.3448C17.3695 27.4631 17.6797 27.5009 17.9829 27.4541C18.2861 27.4073 18.5705 27.2776 18.8047 27.0795C19.0388 26.8813 19.2137 26.6222 19.31 26.3309H23.3174V33.9936C23.2717 35.6532 21.8893 36.9615 20.2298 36.9158C18.7259 36.8744 17.4842 35.7277 17.3236 34.2319V34.0119V29.2828C17.3337 28.8274 16.9727 28.45 16.5173 28.4399C16.5142 28.4398 16.5112 28.4397 16.5081 28.4397C16.505 28.4397 16.5019 28.4397 16.4987 28.4397C16.0432 28.4396 15.6738 28.8088 15.6737 29.2644L15.6739 29.2829V33.9753V34.2136C15.5595 35.7733 14.2683 36.9848 12.7045 36.9997C11.1161 37.0214 9.79555 35.7819 9.71676 34.1953V33.9753V29.2829C9.72698 28.8275 9.36612 28.45 8.91065 28.4398C8.90582 28.4397 8.901 28.4396 8.89618 28.4396C8.88864 28.4396 8.88111 28.4396 8.87362 28.4398C8.41815 28.4296 8.0407 28.7904 8.03048 29.2459C8.03022 29.2583 8.03022 29.2706 8.03048 29.283V33.9754V34.1954C7.89686 35.4552 7.00321 36.4504 5.85366 36.7734V33.9238C5.85364 33.7871 5.79931 33.656 5.70263 33.5593L3.30139 31.1581C3.20473 31.0614 3.07361 31.0071 2.9369 31.0071H2.03666V29.283H1.99997V24.7764H3.41916L6.05217 27.4094C6.14883 27.5061 6.27994 27.5604 6.41666 27.5604H8.66154C8.77325 27.8805 8.98164 28.1581 9.25791 28.3546C9.53417 28.5511 9.86467 28.657 10.2037 28.6576C10.5057 28.6576 10.8018 28.574 11.0591 28.4159C11.3164 28.2579 11.525 28.0317 11.6616 27.7624C11.7982 27.4931 11.8575 27.1912 11.833 26.8902C11.8084 26.5892 11.701 26.3009 11.5226 26.0572C11.3442 25.8136 11.1018 25.6241 10.8223 25.5099C10.5427 25.3956 10.237 25.361 9.93902 25.4099C9.64103 25.4588 9.3624 25.5893 9.13405 25.7869C8.9057 25.9845 8.73656 26.2415 8.64537 26.5294H6.6301L3.9971 23.8964C3.90043 23.7997 3.76932 23.7454 3.63261 23.7453H1.99997V11.9186L4.50823 9.41035H12.6335C12.7501 9.78872 12.9978 10.1131 13.3321 10.3252C13.6665 10.5372 14.0655 10.6231 14.4575 10.5673C14.8494 10.5116 15.2087 10.3178 15.4706 10.0209C15.7325 9.72397 15.8799 9.34337 15.8863 8.9475C15.8928 8.55162 15.7578 8.16644 15.5056 7.86118C15.2535 7.55592 14.9008 7.3506 14.5108 7.28214C14.1208 7.21367 13.7192 7.28654 13.3782 7.48765C13.0372 7.68876 12.779 8.00492 12.6502 8.3793H4.2946C4.15788 8.37932 4.02677 8.43365 3.93011 8.53033L2.07405 10.3865C2.69778 5.108 7.1831 1.00947 12.631 1ZM23.3174 11.185V12.4515C23.303 12.4525 23.2886 12.453 23.2741 12.453C23.1058 12.4528 22.9444 12.3859 22.8254 12.2669C22.7064 12.1479 22.6395 11.9866 22.6392 11.8183C22.6392 11.6928 22.6764 11.57 22.7462 11.4657C22.8159 11.3613 22.915 11.2799 23.031 11.2318C23.1219 11.1942 23.22 11.1783 23.3174 11.185ZM2.03666 32.0382H2.72343L4.82261 34.1373V36.8765C4.78987 36.8741 4.75706 36.8711 4.72417 36.8677C3.23207 36.7094 2.08511 35.4751 2.03666 33.9754V32.0382ZM10.7704 21.6935C11.1265 21.5189 11.5332 21.477 11.9174 21.5754C12.3015 21.6739 12.638 21.9062 12.8663 22.2305C13.0945 22.5548 13.1996 22.95 13.1625 23.3448C13.1255 23.7397 12.9488 24.1084 12.6642 24.3847C12.3796 24.6609 12.0058 24.8265 11.61 24.8518C11.2142 24.8771 10.8224 24.7604 10.505 24.5226C10.1876 24.2848 9.96542 23.9415 9.87845 23.5546C9.79148 23.1676 9.84541 22.7624 10.0305 22.4116L4.95235 17.3334C4.85567 17.2368 4.80134 17.1057 4.80132 16.9689V13.9119C4.42424 13.7892 4.10332 13.5359 3.89625 13.1977C3.68917 12.8596 3.60955 12.4586 3.67168 12.0669C3.73381 11.6753 3.93362 11.3186 4.23519 11.0611C4.53676 10.8036 4.9203 10.6622 5.31685 10.6622C5.71339 10.6622 6.09693 10.8036 6.3985 11.0611C6.70007 11.3186 6.89989 11.6753 6.96202 12.0669C7.02415 12.4586 6.94452 12.8596 6.73745 13.1977C6.53038 13.5359 6.20945 13.7892 5.83237 13.9119V16.7555L10.7704 21.6935ZM11.5037 23.8218C11.6293 23.8218 11.752 23.7846 11.8564 23.7149C11.9608 23.6451 12.0422 23.546 12.0902 23.43C12.1383 23.314 12.1509 23.1863 12.1264 23.0632C12.1019 22.94 12.0414 22.8269 11.9526 22.7381C11.8638 22.6493 11.7507 22.5889 11.6276 22.5644C11.5044 22.5399 11.3768 22.5525 11.2608 22.6005C11.1448 22.6486 11.0456 22.7299 10.9759 22.8343C10.9061 22.9387 10.8689 23.0615 10.8689 23.187C10.8691 23.3553 10.936 23.5167 11.055 23.6357C11.1741 23.7547 11.3354 23.8217 11.5037 23.8218ZM5.95154 12.3286C5.95152 12.2031 5.91428 12.0804 5.84452 11.976C5.77476 11.8716 5.67562 11.7903 5.55963 11.7422C5.44364 11.6942 5.31601 11.6817 5.19288 11.7062C5.06976 11.7307 4.95667 11.7911 4.8679 11.8799C4.77915 11.9687 4.71871 12.0818 4.69423 12.2049C4.66975 12.3281 4.68234 12.4557 4.73039 12.5717C4.77845 12.6877 4.85982 12.7868 4.96421 12.8565C5.0686 12.9263 5.19132 12.9635 5.31686 12.9635C5.48515 12.9632 5.64647 12.8963 5.76546 12.7773C5.88444 12.6583 5.95136 12.4969 5.95154 12.3286ZM18.0819 26.3367C17.9775 26.4064 17.8548 26.4437 17.7292 26.4436C17.5609 26.4434 17.3996 26.3764 17.2806 26.2574C17.1616 26.1384 17.0947 25.9771 17.0945 25.8088C17.0945 25.6832 17.1318 25.5605 17.2015 25.4561C17.2713 25.3517 17.3704 25.2703 17.4864 25.2223C17.6025 25.1742 17.7301 25.1617 17.8533 25.1862C17.9764 25.2107 18.0895 25.2712 18.1783 25.36C18.2671 25.4487 18.3275 25.5619 18.352 25.685C18.3765 25.8082 18.3639 25.9358 18.3158 26.0518C18.2677 26.1678 18.1863 26.267 18.0819 26.3367ZM10.2037 26.4191C10.0843 26.4191 9.96759 26.4545 9.8683 26.5208C9.76901 26.5872 9.69161 26.6814 9.6459 26.7917C9.60019 26.9021 9.58822 27.0234 9.6115 27.1406C9.63478 27.2577 9.69226 27.3652 9.77668 27.4497C9.8611 27.5341 9.96866 27.5916 10.0858 27.615C10.2029 27.6383 10.3243 27.6263 10.4346 27.5806C10.5449 27.535 10.6392 27.4576 10.7056 27.3583C10.7719 27.2591 10.8073 27.1423 10.8073 27.0229C10.8072 26.8629 10.7435 26.7094 10.6304 26.5962C10.5172 26.4831 10.3638 26.4194 10.2037 26.4191ZM13.8795 18.4364C13.9839 18.3666 14.1066 18.3294 14.2322 18.3294C14.4005 18.3296 14.5618 18.3965 14.6809 18.5155C14.7999 18.6346 14.8668 18.7959 14.867 18.9642C14.867 19.0898 14.8298 19.2125 14.76 19.3169C14.6903 19.4213 14.5911 19.5027 14.4751 19.5507C14.3591 19.5988 14.2315 19.6114 14.1083 19.5869C13.9852 19.5624 13.8721 19.5019 13.7833 19.4131C13.6945 19.3243 13.634 19.2112 13.6095 19.0881C13.585 18.9649 13.5976 18.8373 13.6457 18.7213C13.6937 18.6053 13.7751 18.5061 13.8795 18.4364ZM14.2248 9.55289C14.3504 9.55291 14.4731 9.51569 14.5775 9.44596C14.6819 9.37622 14.7632 9.2771 14.8113 9.16112C14.8593 9.04514 14.8719 8.91752 14.8474 8.79439C14.823 8.67126 14.7625 8.55815 14.6738 8.46937C14.585 8.38059 14.4719 8.32012 14.3488 8.29561C14.2257 8.2711 14.098 8.28366 13.982 8.33169C13.8661 8.37971 13.7669 8.46106 13.6972 8.56543C13.6274 8.6698 13.5901 8.79252 13.5901 8.91806C13.5903 9.08634 13.6572 9.24768 13.7762 9.36669C13.8952 9.4857 14.0565 9.55266 14.2248 9.55289ZM19.7243 18.1439C19.5987 18.1439 19.476 18.1811 19.3716 18.2508C19.2672 18.3205 19.1858 18.4197 19.1377 18.5357C19.0896 18.6517 19.077 18.7793 19.1015 18.9025C19.126 19.0256 19.1864 19.1388 19.2752 19.2276C19.364 19.3164 19.4771 19.3768 19.6002 19.4014C19.7234 19.4259 19.851 19.4133 19.9671 19.3653C20.0831 19.3172 20.1822 19.2358 20.252 19.1314C20.3217 19.027 20.359 18.9043 20.359 18.7787C20.3588 18.6104 20.2919 18.4491 20.1729 18.3301C20.0539 18.2111 19.8926 18.1441 19.7243 18.1439ZM21.098 7.41567C20.8719 7.30737 20.6242 7.25149 20.3735 7.25221C20.0857 7.25201 19.8026 7.32646 19.5521 7.46831C19.3016 7.61016 19.0921 7.81455 18.9442 8.06152C18.7963 8.30849 18.7149 8.58961 18.7081 8.87741C18.7013 9.16521 18.7692 9.44987 18.9052 9.70358L14.5685 14.0404H11.9105C11.7878 13.6633 11.5345 13.3424 11.1963 13.1353C10.8581 12.9282 10.4571 12.8485 10.0654 12.9107C9.67372 12.9728 9.31705 13.1726 9.05952 13.4742C8.80199 13.7758 8.66051 14.1594 8.66051 14.556C8.66051 14.9526 8.80199 15.3361 9.05952 15.6377C9.31705 15.9393 9.67372 16.1391 10.0654 16.2013C10.4571 16.2634 10.8581 16.1838 11.1963 15.9767C11.5345 15.7696 11.7878 15.4486 11.9105 15.0715H14.782C14.9187 15.0715 15.0498 15.0171 15.1465 14.9205L19.6504 10.4164C19.8759 10.5259 20.1232 10.5832 20.3739 10.5838C20.6246 10.5845 20.8722 10.5286 21.0983 10.4202C21.3244 10.3118 21.5231 10.1539 21.6796 9.95802C21.8361 9.76219 21.9464 9.53355 22.0023 9.28915C22.0581 9.04475 22.0581 8.7909 22.0022 8.54652C21.9463 8.30213 21.8359 8.07352 21.6794 7.87772C21.5228 7.68191 21.3241 7.52398 21.098 7.41567ZM20.7262 9.44576C20.6218 9.51552 20.4991 9.55276 20.3735 9.55277C20.2052 9.55258 20.0439 9.4857 19.9248 9.36667C19.8058 9.24764 19.7389 9.08626 19.7387 8.91794C19.7387 8.79241 19.776 8.6697 19.8457 8.56533C19.9155 8.46096 20.0146 8.37961 20.1306 8.33158C20.2466 8.28355 20.3742 8.27099 20.4973 8.29548C20.6204 8.31998 20.7335 8.38043 20.8223 8.46919C20.9111 8.55796 20.9715 8.67105 20.996 8.79417C21.0205 8.91729 21.0079 9.04491 20.9599 9.16089C20.9119 9.27688 20.8305 9.37601 20.7262 9.44576ZM9.97458 14.0281C10.079 13.9584 10.2017 13.9211 10.3273 13.9211C10.4956 13.9213 10.6569 13.9883 10.776 14.1073C10.895 14.2263 10.9619 14.3877 10.9621 14.556C10.9621 14.6815 10.9249 14.8043 10.8551 14.9087C10.7854 15.0131 10.6862 15.0944 10.5702 15.1425C10.4542 15.1905 10.3266 15.2031 10.2034 15.1786C10.0803 15.1541 9.96716 15.0936 9.87838 15.0049C9.7896 14.9161 9.72914 14.803 9.70464 14.6798C9.68015 14.5567 9.69271 14.429 9.74076 14.313C9.78881 14.197 9.87018 14.0979 9.97458 14.0281ZM27.8858 11.3704C29.384 11.3603 30.6067 12.5666 30.6169 14.0648L30.6169 14.0832V15.9161C29.8525 15.2878 28.8936 14.9444 27.9042 14.9446H24.7881V11.3703L27.8858 11.3704ZM29.7459 17.2907C29.2423 16.8256 28.5802 16.5699 27.8946 16.5759H24.7969V18.9954H27.7113C28.7071 18.9792 29.5555 18.2683 29.7459 17.2907Z" fill="#002068"/>
</g>
<defs>
<filter id="filter0_d_3_338" x="42.3796" y="5.72" width="89.5176" height="32.3596" filterUnits="userSpaceOnUse" color-interpolation-filters="sRGB">
<feFlood flood-opacity="0" result="BackgroundImageFix"/>
<feColorMatrix in="SourceAlpha" type="matrix" values="0 0 0 0 0 0 0 0 0 0 0 0 0 0 0 0 0 0 127 0" result="hardAlpha"/>
<feOffset dy="1"/>
<feGaussianBlur stdDeviation="1"/>
<feComposite in2="hardAlpha" operator="out"/>
<feColorMatrix type="matrix" values="0 0 0 0 0 0 0 0 0 0 0 0 0 0 0 0 0 0 0.1 0"/>
<feBlend mode="normal" in2="BackgroundImageFix" result="effect1_dropShadow_3_338"/>
<feBlend mode="normal" in="SourceGraphic" in2="effect1_dropShadow_3_338" result="shape"/>
</filter>
<filter id="filter1_d_3_338" x="0" y="0" width="32.6169" height="40" filterUnits="userSpaceOnUse" color-interpolation-filters="sRGB">
<feFlood flood-opacity="0" result="BackgroundImageFix"/>
<feColorMatrix in="SourceAlpha" type="matrix" values="0 0 0 0 0 0 0 0 0 0 0 0 0 0 0 0 0 0 127 0" result="hardAlpha"/>
<feOffset dy="1"/>
<feGaussianBlur stdDeviation="1"/>
<feComposite in2="hardAlpha" operator="out"/>
<feColorMatrix type="matrix" values="0 0 0 0 0 0 0 0 0 0 0 0 0 0 0 0 0 0 0.1 0"/>
<feBlend mode="normal" in2="BackgroundImageFix" result="effect1_dropShadow_3_338"/>
<feBlend mode="normal" in="SourceGraphic" in2="effect1_dropShadow_3_338" result="shape"/>
</filter>
</defs>
</svg>
