<svg width="15" height="14" viewBox="0 0 15 14" fill="none" xmlns="http://www.w3.org/2000/svg">
<g id="Group">
<path id="Vector" fill-rule="evenodd" clip-rule="evenodd" d="M5.60377 0.0243573C5.78685 0.0734147 5.94296 0.193199 6.03775 0.357353L6.60337 1.33708C6.86302 1.30098 7.12803 1.28236 7.39705 1.28236C7.66606 1.28236 7.93108 1.30098 8.19073 1.33708L8.75635 0.357374C8.85112 0.193213 9.00721 0.073429 9.19031 0.0243717C9.37342 -0.0246857 9.56854 0.000993671 9.73263 0.0957707L12.2084 1.52518C12.3726 1.61996 12.4924 1.77606 12.5415 1.95916C12.5905 2.14225 12.5649 2.33733 12.4701 2.50149L11.9042 3.48157C12.229 3.8971 12.4978 4.35898 12.6989 4.85588H13.8294C14.2241 4.85588 14.5441 5.17586 14.5441 5.57059V8.42941C14.5441 8.61895 14.4688 8.80077 14.3348 8.93478C14.2008 9.06878 14.0189 9.14411 13.8294 9.14411H12.6989C12.4978 9.64097 12.229 10.1029 11.9042 10.5184L12.4701 11.4985C12.6674 11.8403 12.5503 12.2774 12.2085 12.4749L9.7327 13.9043C9.56854 13.999 9.37342 14.0247 9.19031 13.9757C9.00728 13.9266 8.85112 13.8068 8.75635 13.6426L8.19073 12.6629C7.93108 12.699 7.66606 12.7176 7.39705 12.7176C7.12803 12.7176 6.86302 12.699 6.60337 12.6629L6.03775 13.6426C5.94295 13.8068 5.78685 13.9266 5.60376 13.9757C5.42067 14.0247 5.22558 13.999 5.06143 13.9043L2.58561 12.4749C2.42146 12.3801 2.30167 12.2239 2.25262 12.0409C2.20356 11.8578 2.22924 11.6627 2.32402 11.4985L2.88988 10.5184C2.5651 10.1029 2.29634 9.64097 2.09522 9.14411H0.964705C0.569981 9.14411 0.25 8.82414 0.25 8.42941V5.57059C0.25 5.17586 0.569988 4.85588 0.964705 4.85588H2.09522C2.29634 4.35898 2.56511 3.89709 2.88988 3.48156L2.32402 2.50147C2.22925 2.33731 2.20357 2.14223 2.25262 1.95913C2.30168 1.77604 2.42147 1.61994 2.58562 1.52517L5.06144 0.0957564C5.22559 0.000979357 5.42068 -0.0247071 5.60377 0.0243573ZM3.91928 2.40572L4.3809 3.20527C4.53896 3.47903 4.4984 3.82411 4.28116 4.05376C3.82496 4.53604 3.48011 5.12327 3.2863 5.77442C3.19611 6.07753 2.91749 6.28529 2.60129 6.28529H1.67941V7.7147H2.60129C2.91749 7.7147 3.19611 7.92247 3.2863 8.2255C3.4801 8.87674 3.82496 9.46394 4.28116 9.94623C4.49839 10.1759 4.53896 10.5209 4.3809 10.7947L3.91927 11.5943L5.15718 12.309L5.61822 11.5104C5.77615 11.2369 6.09493 11.0995 6.40225 11.1724C6.72079 11.2481 7.05378 11.2882 7.39705 11.2882C7.74032 11.2882 8.0733 11.2481 8.39185 11.1724C8.69917 11.0995 9.01793 11.2369 9.17588 11.5104L9.63693 12.309L10.8748 11.5943L10.4132 10.7947C10.2552 10.5209 10.2957 10.1759 10.5129 9.94623C10.9691 9.46394 11.314 8.87674 11.5078 8.2255C11.598 7.92247 11.8766 7.7147 12.1928 7.7147H13.1147V6.28529H12.1928C11.8766 6.28529 11.598 6.07753 11.5078 5.77442C11.314 5.12328 10.9691 4.53605 10.5129 4.05377C10.2957 3.82412 10.2552 3.47904 10.4132 3.20528L10.8748 2.40573L9.63693 1.69103L9.17588 2.48955C9.01793 2.7631 8.69917 2.90054 8.39185 2.82758C8.0733 2.75196 7.74032 2.71177 7.39705 2.71177C7.05378 2.71177 6.72079 2.75196 6.40225 2.82758C6.09493 2.90054 5.77615 2.7631 5.61822 2.48955L5.15719 1.69101L3.91928 2.40572Z" fill="#2C4177"/>
<path id="Vector_2" fill-rule="evenodd" clip-rule="evenodd" d="M7.39411 6.28537C6.99938 6.28537 6.67941 6.60534 6.67941 7.00007C6.67941 7.3948 6.99938 7.71478 7.39411 7.71478C7.78885 7.71478 8.10882 7.3948 8.10882 7.00007C8.10882 6.60534 7.78885 6.28537 7.39411 6.28537ZM5.25 7.00007C5.25 5.81588 6.20992 4.85596 7.39411 4.85596C8.57831 4.85596 9.53823 5.81588 9.53823 7.00007C9.53823 8.18427 8.57831 9.14419 7.39411 9.14419C6.20992 9.14419 5.25 8.18427 5.25 7.00007Z" fill="#1F88B1"/>
</g>
</svg>
