<svg xmlns="http://www.w3.org/2000/svg" width="18" height="14" fill="none" viewBox="0 0 18 14"><path fill="#2C4177" fill-rule="evenodd" d="M15.3102 10.6327C16.0129 9.81496 16.5382 9.00113 16.8877 8.39318C16.9279 8.32318 16.9734 8.24871 17.0209 8.17075C17.2387 7.81366 17.5 7.38518 17.5 7C17.5 6.60791 17.2429 6.18958 17.0263 5.83695C16.9768 5.75645 16.9294 5.67936 16.8877 5.60682C16.5382 4.99886 16.0129 4.18506 15.3102 3.36725C13.919 1.74814 11.7295 0 8.74999 0C5.77047 0 3.58095 1.74814 2.18973 3.36725C1.48703 4.18506 0.961786 4.99886 0.612232 5.60682C0.568185 5.68347 0.518861 5.76362 0.46784 5.84649C0.254077 6.19386 0.0105124 6.58971 0.000301125 6.97646C-0.0102426 7.36846 0.258172 7.80859 0.479889 8.17215C0.527182 8.24976 0.57235 8.32379 0.612232 8.39318C0.961786 9.00113 1.48703 9.81496 2.18973 10.6327C3.58095 12.2518 5.77047 14 8.74999 14C11.7295 14 13.919 12.2518 15.3102 10.6327ZM2.12936 7.52089C2.01234 7.31736 1.91787 7.14035 1.8461 7C1.91787 6.85965 2.01234 6.68264 2.12936 6.47911C2.44008 5.93863 2.90403 5.22119 3.51706 4.50775C4.75728 3.06435 6.50525 1.75 8.74999 1.75C10.9947 1.75 12.7427 3.06435 13.9829 4.50775C14.5959 5.22119 15.0599 5.93863 15.3706 6.47911C15.4877 6.68264 15.5821 6.85965 15.6539 7C15.5821 7.14035 15.4877 7.31736 15.3706 7.52089C15.0599 8.06137 14.5959 8.77879 13.9829 9.49226C12.7427 10.9357 10.9947 12.25 8.74999 12.25C6.50525 12.25 4.75728 10.9357 3.51706 9.49226C2.90403 8.77879 2.44008 8.06137 2.12936 7.52089Z" clip-rule="evenodd"/><path fill="#1F88B1" fill-rule="evenodd" d="M8.75 3.5C6.817 3.5 5.25 5.067 5.25 7C5.25 8.93296 6.817 10.5 8.75 10.5C10.683 10.5 12.25 8.93296 12.25 7C12.25 5.067 10.683 3.5 8.75 3.5ZM7 7C7 6.03347 7.78347 5.25 8.75 5.25C9.71653 5.25 10.5 6.03347 10.5 7C10.5 7.96653 9.71653 8.75 8.75 8.75C7.78347 8.75 7 7.96653 7 7Z" clip-rule="evenodd"/></svg>