<svg xmlns="http://www.w3.org/2000/svg" width="15" height="14" fill="none" viewBox="0 0 15 14"><g id="Group"><path id="Vector" fill="#2C4177" fill-rule="evenodd" d="M2.35 1.4C1.9634 1.4 1.65 1.7134 1.65 2.1V4.2C1.65 4.5866 1.9634 4.9 2.35 4.9H4.45C4.8366 4.9 5.15 4.5866 5.15 4.2V2.1C5.15 1.7134 4.8366 1.4 4.45 1.4H2.35ZM0.25 2.1C0.25 0.940205 1.1902 0 2.35 0H4.45C5.6098 0 6.55 0.940205 6.55 2.1V4.2C6.55 5.3598 5.6098 6.3 4.45 6.3H2.35C1.1902 6.3 0.25 5.3598 0.25 4.2V2.1Z" clip-rule="evenodd"/><path id="Vector_2" fill="#2C4177" fill-rule="evenodd" d="M2.34976 9.10001C1.96316 9.10001 1.64976 9.4134 1.64976 9.80001V11.9C1.64976 12.2866 1.96316 12.6 2.34976 12.6H4.44976C4.83635 12.6 5.14976 12.2866 5.14976 11.9V9.80001C5.14976 9.4134 4.83635 9.10001 4.44976 9.10001H2.34976ZM0.249756 9.80001C0.249756 8.64018 1.18996 7.70001 2.34976 7.70001H4.44976C5.60955 7.70001 6.54976 8.64018 6.54976 9.80001V11.9C6.54976 13.0598 5.60955 14 4.44976 14H2.34976C1.18996 14 0.249756 13.0598 0.249756 11.9V9.80001Z" clip-rule="evenodd"/><path id="Vector_3" fill="#1F88B1" fill-rule="evenodd" d="M10.0531 1.4C9.66651 1.4 9.35312 1.7134 9.35312 2.1V4.2C9.35312 4.5866 9.66651 4.9 10.0531 4.9H12.1531C12.5397 4.9 12.8531 4.5866 12.8531 4.2V2.1C12.8531 1.7134 12.5397 1.4 12.1531 1.4H10.0531ZM7.95312 2.1C7.95312 0.940205 8.89329 0 10.0531 0H12.1531C13.313 0 14.2531 0.940205 14.2531 2.1V4.2C14.2531 5.3598 13.313 6.3 12.1531 6.3H10.0531C8.89329 6.3 7.95312 5.3598 7.95312 4.2V2.1Z" clip-rule="evenodd"/><path id="Vector_4" fill="#2C4177" fill-rule="evenodd" d="M10.0531 9.09995C9.66651 9.09995 9.35312 9.41334 9.35312 9.79995V11.9C9.35312 12.2866 9.66651 12.6 10.0531 12.6H12.1531C12.5397 12.6 12.8531 12.2866 12.8531 11.9V9.79995C12.8531 9.41334 12.5397 9.09995 12.1531 9.09995H10.0531ZM7.95312 9.79995C7.95312 8.64012 8.89329 7.69995 10.0531 7.69995H12.1531C13.313 7.69995 14.2531 8.64012 14.2531 9.79995V11.9C14.2531 13.0598 13.313 14 12.1531 14H10.0531C8.89329 14 7.95312 13.0598 7.95312 11.9V9.79995Z" clip-rule="evenodd"/></g></svg>