<svg width="24" height="24" viewBox="0 0 24 24" fill="none" xmlns="http://www.w3.org/2000/svg">
<rect width="24" height="24" rx="5" fill="url(#paint0_linear_94_5989)"/>
<path d="M16.9486 7.05136C14.2137 4.31642 9.78671 4.31601 7.05136 7.05136C4.31642 9.78629 4.31601 14.2133 7.05136 16.9486C9.78629 19.6836 14.2133 19.684 16.9486 16.9486C19.6836 14.2137 19.684 9.78671 16.9486 7.05136ZM12 18.1236C8.62341 18.1236 5.87636 15.3766 5.87636 12C5.87636 8.62341 8.62341 5.87636 12 5.87636C15.3766 5.87636 18.1236 8.62341 18.1236 12C18.1236 15.3766 15.3766 18.1236 12 18.1236Z" fill="white"/>
<path d="M14.9743 7.67548C14.0973 7.07066 13.0684 6.75098 11.9988 6.75098C9.10462 6.75098 6.75 9.10559 6.75 11.9998C6.75 13.0694 7.06969 14.0983 7.6745 14.9753C7.83011 15.201 8.15144 15.2287 8.34389 15.0363L15.0353 8.34484C15.2282 8.15189 15.1992 7.83059 14.9743 7.67548ZM8.11975 14.0232C6.61588 11.1497 8.69556 7.62575 11.9988 7.62575C12.7108 7.62575 13.4011 7.79563 14.0222 8.12073L8.11975 14.0232Z" fill="white"/>
<path d="M16.3223 9.02495C16.1674 8.80032 15.8462 8.77076 15.653 8.96399L8.96152 15.6554C8.76857 15.8484 8.79758 16.1697 9.02249 16.3248C9.89956 16.9296 10.9285 17.2493 11.998 17.2493C14.8922 17.2493 17.2468 14.8947 17.2468 12.0005C17.2468 10.9309 16.9272 9.90202 16.3223 9.02495ZM11.998 16.3745C11.286 16.3745 10.5958 16.2046 9.97457 15.8795L15.8771 9.97701C17.381 12.8505 15.3013 16.3745 11.998 16.3745Z" fill="white"/>
<defs>
<linearGradient id="paint0_linear_94_5989" x1="12" y1="0" x2="12" y2="24" gradientUnits="userSpaceOnUse">
<stop stop-color="#266E65"/>
<stop offset="1" stop-color="#2FAB9B"/>
</linearGradient>
</defs>
</svg>
