<svg width="24" height="24" viewBox="0 0 24 24" fill="none" xmlns="http://www.w3.org/2000/svg">
<rect width="24" height="24" rx="5" fill="url(#paint0_linear_94_5985)"/>
<path d="M11.9999 13.7769C11.7583 13.7769 11.5625 13.5779 11.5625 13.3324V10.2209C11.5625 9.9754 11.7583 9.77637 11.9999 9.77637C12.2415 9.77637 12.4374 9.9754 12.4374 10.2209V13.3324C12.4374 13.5779 12.2415 13.7769 11.9999 13.7769Z" fill="white"/>
<path d="M18.8148 16.0089L13.3689 6.78589C12.7511 5.73905 11.2502 5.73702 10.6311 6.78589L5.18525 16.0089C4.67024 16.8811 5.28985 18 6.2947 18H17.7053C18.7103 18 19.3297 16.881 18.8148 16.0089ZM17.7053 17.111H6.29473C5.96878 17.111 5.76893 16.7479 5.93548 16.4662L11.3813 7.24318C11.6607 6.76998 12.339 6.76942 12.6187 7.24318L18.0646 16.4662C18.2309 16.7476 18.0315 17.111 17.7053 17.111Z" fill="white"/>
<path d="M11.9999 15.5552C12.3623 15.5552 12.6561 15.2567 12.6561 14.8884C12.6561 14.5202 12.3623 14.2217 11.9999 14.2217C11.6375 14.2217 11.3438 14.5202 11.3438 14.8884C11.3438 15.2567 11.6375 15.5552 11.9999 15.5552Z" fill="white"/>
<defs>
<linearGradient id="paint0_linear_94_5985" x1="12" y1="0" x2="12" y2="24" gradientUnits="userSpaceOnUse">
<stop stop-color="#6E2626"/>
<stop offset="1" stop-color="#B53232"/>
</linearGradient>
</defs>
</svg>
