<svg width="59" height="55" viewBox="0 0 59 55" fill="none" xmlns="http://www.w3.org/2000/svg">
<path fill-rule="evenodd" clip-rule="evenodd" d="M10.5698 0.437139C10.2425 0.764364 9.56365 3.10023 8.40691 7.87985C2.86699 30.7685 0.606189 40.5016 0.73545 40.9084C0.815857 41.1616 1.08074 41.5489 1.324 41.7692C1.57463 41.996 5.73848 43.1211 10.9232 44.3631C15.9593 45.5695 23.3865 47.3552 27.4284 48.331C31.4701 49.3071 34.8236 50.059 34.8803 50.0023C34.9373 49.9455 34.6933 49.0338 34.3383 47.9763C33.8734 46.5914 33.6928 45.5145 33.6928 44.1265V42.1993H24.2781H14.8634V23.221V4.24272L26.089 4.31269C32.2633 4.35137 37.6449 4.43127 38.0482 4.49055L38.7818 4.59819V8.25873V11.9195H42.5986H46.4154V20.6981V29.4767H47.8148H49.2143V18.3404V7.20377L46.3477 4.34552L43.4813 1.48701H31.0668H18.6524L15.4583 0.723652C11.7176 -0.170237 11.2072 -0.200262 10.5698 0.437139ZM19.3799 10.1587C18.8687 10.4564 18.7901 11.4188 19.2399 11.8686C19.6707 12.2994 29.1399 12.2994 29.5707 11.8686C29.9933 11.446 29.9523 10.76 29.4763 10.2837C29.1414 9.94905 28.3236 9.88518 24.4508 9.89154C21.7847 9.89612 19.6366 10.0094 19.3799 10.1587ZM20.199 11.7923C20.199 11.9322 20.088 11.875 19.9524 11.6651C19.8168 11.4551 19.7058 11.1689 19.7058 11.0289C19.7058 10.889 19.8168 10.9462 19.9524 11.1562C20.088 11.3661 20.199 11.6523 20.199 11.7923ZM19.4745 16.2208C19.2702 16.35 19.2069 16.5773 19.3229 16.765C19.4527 16.9747 19.4196 17.0238 19.2285 16.9055C18.8023 16.6424 18.86 17.479 19.2982 17.9172C19.5878 18.207 20.6478 18.2808 24.5145 18.2808C27.1834 18.2808 29.3801 18.1948 29.3961 18.09C29.5964 16.7719 29.5518 16.4803 29.1142 16.246C28.5287 15.9327 19.9649 15.9101 19.4745 16.2208ZM19.2862 22.7469C19.373 22.9734 19.3303 23.0754 19.1862 22.9864C19.0478 22.9009 18.9346 23.0734 18.9346 23.3698C18.9346 23.6663 19.0478 23.8388 19.1862 23.7533C19.3308 23.664 19.3728 23.7668 19.2852 23.9953C19.1481 24.3528 20.2982 24.3861 30.6747 24.3266L42.2169 24.2604L42.3009 23.5256C42.3668 22.9485 42.3001 22.8233 41.991 22.9421C41.7744 23.0251 41.5184 22.966 41.4225 22.8106C41.3205 22.6457 41.363 22.5991 41.5238 22.6986C41.6757 22.7925 41.8719 22.7528 41.9599 22.6106C42.0673 22.437 38.347 22.352 30.6272 22.352C20.3453 22.352 19.1506 22.3935 19.2862 22.7469ZM19.2527 28.8395C18.7812 29.3752 18.8669 30.1858 19.4267 30.4856C20.1013 30.8466 41.1775 30.8466 41.852 30.4856C42.3474 30.2204 42.4754 29.6057 42.1897 28.8614C42.052 28.5026 40.8164 28.4599 30.803 28.4685C21.4287 28.4767 19.5181 28.538 19.2527 28.8395ZM44.8021 32.8535C44.2647 33.0255 43.9039 33.2444 44.0004 33.3398C44.0968 33.4352 43.964 33.4589 43.7052 33.3924C43.195 33.2611 40.5543 34.8672 39.6266 35.8728C38.4653 37.1321 37.2673 39.5008 36.8551 41.3542C36.3264 43.7311 36.6121 46.0517 37.7274 48.4349C38.6403 50.386 41.3103 53.299 41.9576 53.0506C42.1849 52.9633 42.309 52.9918 42.2335 53.1137C42.0164 53.4651 44.5602 54.4409 46.3571 54.6954C48.0991 54.9419 51.3688 54.5567 51.1085 54.1353C51.0319 54.0114 51.1357 53.9738 51.3393 54.0519C51.7947 54.2267 53.6543 53.304 54.4494 52.5089C54.7718 52.1862 55.0866 51.973 55.1484 52.0348C55.3672 52.2537 57.1135 49.9748 56.9848 49.6387C56.9128 49.4511 56.9565 49.3611 57.0822 49.4387C57.372 49.6178 58.253 47.7913 58.6494 46.1888C58.8293 45.4623 58.8983 44.1135 58.8191 42.8809C58.6843 40.786 58.0041 38.5214 57.5871 38.7789C57.4637 38.8553 57.4207 38.7662 57.4919 38.581C57.8268 37.7079 53.7169 33.5825 52.8454 33.9169C52.6268 34.0008 52.5639 33.9405 52.6779 33.7563C52.8008 33.5576 52.7179 33.5161 52.4235 33.6291C52.1779 33.7232 52.0512 33.6924 52.1339 33.5588C52.5718 32.8499 46.6062 32.2759 44.8021 32.8535ZM50.1632 33.1927C50.0787 33.2772 49.8591 33.2863 49.6757 33.2128C49.4726 33.1316 49.5329 33.0713 49.8293 33.0591C50.0975 33.0482 50.2477 33.1082 50.1632 33.1927ZM54.0878 35.3291C54.2064 35.3291 54.2995 35.4723 54.295 35.6471C54.2901 35.8222 54.0611 35.695 53.7861 35.3644C53.5107 35.0342 53.2932 34.6334 53.3029 34.4739C53.3123 34.3146 53.4443 34.4415 53.596 34.7566C53.7479 35.0716 53.9693 35.3291 54.0878 35.3291ZM19.2399 34.8711C18.7725 35.3385 18.8766 36.298 19.4267 36.5924C19.7346 36.757 22.7733 36.8558 27.5399 36.8558H35.161L35.6144 36.1639C35.8638 35.7833 36.0676 35.3303 36.0676 35.1573C36.0676 34.9843 36.1551 34.8968 36.2622 34.9627C36.3691 35.0288 36.5284 34.9665 36.6164 34.8242C36.8627 34.4258 19.6389 34.4721 19.2399 34.8711ZM55.183 35.8555C55.1026 35.9858 54.9003 36.0833 54.7336 36.0723C54.5168 36.0581 54.5214 36.0156 54.7502 35.9235C54.926 35.8525 54.9942 35.6721 54.9018 35.5224C54.8016 35.3604 54.854 35.3247 55.0316 35.4347C55.1955 35.5359 55.2637 35.7253 55.183 35.8555ZM20.1577 36.2263C20.0794 36.3046 19.9371 36.1634 19.8415 35.9125C19.7035 35.5499 19.7326 35.5207 19.9839 35.77C20.158 35.9428 20.2361 36.1481 20.1577 36.2263ZM54.1828 36.2978C54.1046 36.3761 53.8993 36.298 53.7265 36.124C53.4772 35.8726 53.5064 35.8436 53.869 35.9815C54.1199 36.0772 54.2611 36.2194 54.1828 36.2978ZM56.0764 37.0947C56.269 37.455 56.2542 37.6377 56.0217 37.7718C55.8464 37.8726 55.7848 37.8644 55.8848 37.7537C55.9848 37.6428 55.9522 37.3382 55.8123 37.0769C55.6723 36.8153 55.6151 36.6013 55.685 36.6013C55.755 36.6013 55.9311 36.8235 56.0764 37.0947ZM38.879 38.5229C38.9658 38.7494 38.923 38.8514 38.779 38.7624C38.6406 38.6769 38.5274 38.4993 38.5274 38.3675C38.5274 38.0016 38.7098 38.0822 38.879 38.5229ZM54.885 39.3229C54.7794 39.5988 54.8247 39.6769 55.0207 39.556C55.2146 39.4362 55.2624 39.512 55.1604 39.7776C55.0751 39.9995 54.4754 40.5456 53.8275 40.9911C52.3736 41.9904 51.2222 43.2206 51.4283 43.5545C51.5136 43.6921 51.4596 43.7283 51.3087 43.6351C50.9838 43.4344 49.879 44.887 50.093 45.2333C50.1741 45.3646 50.1064 45.5547 49.9426 45.656C49.7438 45.7789 49.7133 45.7293 49.8505 45.5071C49.9891 45.2827 49.9571 45.2354 49.7522 45.3621C49.58 45.4685 49.5151 45.7891 49.6024 46.101C49.7151 46.5041 49.6904 46.5562 49.5103 46.2957C49.3184 46.0178 49.1517 46.1593 48.7558 46.9351C48.1314 48.159 46.9991 49.3239 46.4337 49.3239C46.2019 49.3239 45.5098 48.8117 44.8955 48.186C43.9602 47.2328 43.7139 47.0985 43.3795 47.359C43.0368 47.626 43.0248 47.6127 43.2953 47.2662C43.5553 46.9323 43.508 46.7662 43.0217 46.3094C42.6983 46.0056 42.3803 45.8104 42.3149 45.8756C42.2497 45.9407 42.1782 45.7529 42.1558 45.4583C42.0976 44.6819 41.6195 44.2692 41.3271 44.7428C41.1449 45.0372 41.1034 44.9992 41.1357 44.569C41.1686 44.1354 41.2683 44.0677 41.608 44.2494C41.9136 44.413 42.0813 44.3695 42.1848 44.0993C42.2653 43.8896 42.6368 43.6021 43.0105 43.4601C43.5686 43.2479 43.8418 43.3054 44.5418 43.782C45.0105 44.101 45.3948 44.4603 45.3958 44.5802C45.3968 44.7 45.5752 44.73 45.7925 44.6466C46.0189 44.5598 46.121 44.6026 46.0319 44.7466C45.9464 44.885 45.9691 44.9975 46.0823 44.9964C46.1955 44.9954 46.5629 44.5911 46.8991 44.0977C47.6914 42.9344 50.3833 40.4448 51.1741 40.1441C51.5456 40.0028 51.7174 39.7937 51.6077 39.6158C51.5077 39.454 51.5324 39.3876 51.6629 39.4682C51.7934 39.5489 52.5235 39.4039 53.2856 39.1458C54.7838 38.6387 55.1329 38.6771 54.885 39.3229ZM55.1922 40.9242C55.2815 41.0687 55.1784 41.1107 54.9499 41.0229C54.6469 40.9066 54.5947 40.9812 54.7306 41.3357C54.8894 41.7491 54.8644 41.7593 54.5072 41.4275C54.2212 41.1619 54.1889 41.0003 54.3952 40.8672C54.7917 40.6117 55.0087 40.627 55.1922 40.9242ZM49.2143 41.01C49.2143 41.0555 48.8993 41.3703 48.5146 41.7097L47.8148 42.3265L48.4316 41.6267C49.0082 40.9728 49.2143 40.8102 49.2143 41.01ZM53.3189 42.0318C53.1632 42.2196 53.1204 42.4669 53.2242 42.5814C53.3278 42.696 53.2642 42.7038 53.0822 42.599C52.8278 42.4522 52.8204 42.326 53.0499 42.0494C53.2138 41.8519 53.4051 41.6904 53.4751 41.6904C53.5451 41.6904 53.4749 41.844 53.3189 42.0318ZM47.4383 43.0837C47.2612 43.297 47.0159 43.4715 46.8932 43.4715C46.7703 43.4715 46.8701 43.2616 47.1151 43.0051C47.6398 42.4552 47.9059 42.5201 47.4383 43.0837ZM44.8887 43.5298C44.8887 43.6789 44.7271 43.6542 44.507 43.4715C44.2971 43.2972 44.1253 43.115 44.1253 43.0667C44.1253 43.0183 44.2971 43.0446 44.507 43.125C44.7169 43.2056 44.8887 43.3878 44.8887 43.5298ZM52.2677 43.0748C52.2677 43.1367 52.1532 43.2578 52.0133 43.3443C51.8734 43.4308 51.7588 43.3802 51.7588 43.2321C51.7588 43.084 51.8734 42.9626 52.0133 42.9626C52.1532 42.9626 52.2677 43.013 52.2677 43.0748ZM41.8352 43.726C41.8352 43.8659 41.7849 43.9804 41.723 43.9804C41.6612 43.9804 41.5401 43.8659 41.4536 43.726C41.367 43.586 41.4177 43.4715 41.5658 43.4715C41.7139 43.4715 41.8352 43.586 41.8352 43.726ZM51.7588 44.2349C51.7588 44.3748 51.6375 44.4893 51.4894 44.4893C51.3413 44.4893 51.2907 44.3748 51.3772 44.2349C51.4637 44.0949 51.5848 43.9804 51.6466 43.9804C51.7085 43.9804 51.7588 44.0949 51.7588 44.2349ZM51.2499 44.8985C51.2499 45.1089 50.7558 45.228 50.6426 45.0448C50.569 44.926 50.6756 44.8285 50.8795 44.8285C51.0833 44.8285 51.2499 44.8601 51.2499 44.8985ZM50.9955 46.1122C50.9955 46.1649 50.795 46.3654 50.5502 46.5575C50.1466 46.8738 50.1377 46.8649 50.454 46.4613C50.7866 46.0374 50.9955 45.9028 50.9955 46.1122ZM37.7956 47.6107C37.5442 47.86 37.5152 47.8308 37.6531 47.4682C37.7487 47.2173 37.891 47.0761 37.9694 47.1545C38.0477 47.2326 37.9696 47.4379 37.7956 47.6107ZM44.1579 47.988C44.4742 48.3916 44.4652 48.4005 44.0617 48.0842C43.6378 47.7516 43.5032 47.5427 43.7126 47.5427C43.7653 47.5427 43.9658 47.7433 44.1579 47.988ZM39.0363 49.9033C39.0363 50.2163 39.0235 50.2013 38.4353 49.1967L37.9882 48.4333L38.5124 49.0341C38.8004 49.3644 39.0363 49.7557 39.0363 49.9033ZM56.0845 49.1817C56.0845 49.2435 55.97 49.3646 55.8301 49.4511C55.6901 49.5376 55.5756 49.487 55.5756 49.3389C55.5756 49.1908 55.6901 49.0695 55.8301 49.0695C55.97 49.0695 56.0845 49.1198 56.0845 49.1817ZM46.6698 49.8328C46.6698 49.9728 46.5553 50.0873 46.4154 50.0873C46.2754 50.0873 46.1609 49.9728 46.1609 49.8328C46.1609 49.6929 46.2754 49.5784 46.4154 49.5784C46.5553 49.5784 46.6698 49.6929 46.6698 49.8328ZM55.827 50.918L54.9512 51.7412L55.6728 50.9348C56.1222 50.4331 56.3219 50.0007 56.2023 49.7898C56.0464 49.5153 56.0756 49.5122 56.3565 49.773C56.6451 50.0412 56.5565 50.2328 55.827 50.918ZM54.0578 52.5865C53.5161 52.7669 53.4591 52.7445 53.3978 52.3269C53.3443 51.9621 53.4105 51.9422 53.8214 52.1987C54.0894 52.3661 54.1957 52.5404 54.0578 52.5865ZM44.6342 53.904C44.8441 54.0397 44.9014 54.1506 44.7614 54.1506C44.6215 54.1506 44.3352 54.0397 44.1253 53.904C43.9154 53.7684 43.8581 53.6575 43.9981 53.6575C44.138 53.6575 44.4243 53.7684 44.6342 53.904Z" fill="#0460A9"/>
</svg>
