<svg width="71" height="71" viewBox="0 0 71 71" fill="none" xmlns="http://www.w3.org/2000/svg">
<path d="M68.7813 0H2.21875C1.03542 0 0 1.03542 0 2.21875V9.61458C0 10.7979 1.03542 11.8333 2.21875 11.8333H68.7813C69.9646 11.8333 71 10.7979 71 9.61458V2.21875C71 1.03542 69.9646 0 68.7813 0Z" fill="#0460A9"/>
<path d="M68.7812 17.7499H17.0103C15.827 17.7499 14.7916 18.7854 14.7916 19.9687V24.4062C14.7916 25.5895 15.827 26.6249 17.0103 26.6249H68.7812C69.9645 26.6249 70.9999 25.5895 70.9999 24.4062V19.9687C70.9999 18.7854 69.9645 17.7499 68.7812 17.7499Z" fill="#0460A9"/>
<path d="M68.7812 47.3333H17.0103C15.827 47.3333 14.7916 48.3687 14.7916 49.5521V53.9896C14.7916 55.1729 15.827 56.2083 17.0103 56.2083H68.7812C69.9645 56.2083 70.9999 55.1729 70.9999 53.9896V49.5521C70.9999 48.3687 69.9645 47.3333 68.7812 47.3333Z" fill="#0460A9"/>
<path d="M68.7813 62.125H11.0938C9.91042 62.125 8.875 61.0896 8.875 59.9062V49.5521C8.875 48.3687 7.83958 47.3333 6.65625 47.3333H2.21875C1.03542 47.3333 0 48.3687 0 49.5521V68.7812C0 69.9646 1.03542 71 2.21875 71H6.65625H8.875H68.7813C69.9646 71 71 69.9646 71 68.7812V64.3437C71 63.1604 69.9646 62.125 68.7813 62.125Z" fill="#0460A9"/>
<path d="M68.7813 32.5416H11.0938C9.91042 32.5416 8.875 31.5062 8.875 30.3229V19.9687C8.875 18.7854 7.83958 17.7499 6.65625 17.7499H2.21875C1.03542 17.7499 0 18.7854 0 19.9687V39.1979C0 40.3812 1.03542 41.4166 2.21875 41.4166H5.17708H8.875H68.7813C69.9646 41.4166 71 40.3812 71 39.1979V34.7604C71 33.577 69.9646 32.5416 68.7813 32.5416Z" fill="#0460A9"/>
</svg>
