<svg width="77" height="71" viewBox="0 0 77 71" fill="none" xmlns="http://www.w3.org/2000/svg">
<path d="M59.7821 38.0565C50.6841 38.0565 43.307 45.4359 43.307 54.5317C43.307 63.6251 50.6841 71 59.7821 71C68.8755 71 76.2526 63.6252 76.2526 54.5317C76.2526 45.4358 68.8755 38.0565 59.7821 38.0565ZM60.8391 66.7073V65.285C60.8391 64.6967 60.3647 64.2212 59.7821 64.2212C59.1937 64.2212 58.7204 64.698 58.7204 65.285V66.7073C52.8219 66.2002 48.1101 61.4872 47.6028 55.5898H49.0296C49.6123 55.5898 50.0889 55.1152 50.0889 54.5327C50.0889 53.9399 49.6123 53.471 49.0296 53.471H47.6028C48.1099 47.5713 52.8229 42.8629 58.7204 42.3535V43.778C58.7204 44.3641 59.195 44.8396 59.7821 44.8396C60.3648 44.8396 60.8391 44.3629 60.8391 43.778V42.3535C66.7399 42.8629 71.4518 47.5713 71.9567 53.471H70.5299C69.944 53.471 69.4706 53.9409 69.4706 54.5327C69.4706 55.1165 69.9451 55.5898 70.5299 55.5898H71.9567C71.4529 61.4871 66.7399 66.199 60.8391 66.7073Z" fill="#0460A9"/>
<path d="M65.9193 52.9391H62.0979C61.5884 52.2044 60.7421 51.7165 59.7819 51.7165C59.7673 51.7165 59.7515 51.7209 59.7345 51.7209L56.2523 46.8186C55.7452 46.1052 54.7512 45.9396 54.0355 46.4444C53.3221 46.9539 53.1508 47.9501 53.6614 48.6657L57.1459 53.5702C57.0389 53.8711 56.9702 54.1912 56.9702 54.5327C56.9702 56.0857 58.2268 57.3422 59.7819 57.3422C60.7421 57.3422 61.5929 56.8588 62.0979 56.1217H65.9193C66.7961 56.1217 67.5095 55.413 67.5095 54.5338C67.5095 53.6503 66.7962 52.9391 65.9193 52.9391Z" fill="#0460A9"/>
<path d="M15.8542 21.7437C18.737 21.7437 21.0698 19.4087 21.0698 16.5292V5.21446C21.0698 2.33393 18.737 0 15.8542 0C12.9737 0 10.642 2.33393 10.642 5.21446V16.5304C10.642 19.4087 12.9735 21.7437 15.8542 21.7437Z" fill="#0460A9"/>
<path d="M47.7922 21.7437C50.6751 21.7437 53.0077 19.4087 53.0077 16.5292V5.21446C53.0077 2.33393 50.6749 0 47.7922 0C44.9139 0 42.5801 2.33393 42.5801 5.21446V16.5304C42.5788 19.4087 44.914 21.7437 47.7922 21.7437Z" fill="#0460A9"/>
<path d="M22.9203 36.2217C22.9203 34.7331 21.7167 33.5272 20.2246 33.5272H15.2277C13.739 33.5272 12.5298 34.7331 12.5298 36.2217V41.2165C12.5298 42.7074 13.739 43.9168 15.2277 43.9168H20.2246C21.7155 43.9168 22.9203 42.7074 22.9203 41.2165V36.2217Z" fill="#0460A9"/>
<path d="M37.0208 36.2251C37.0208 34.7364 35.8138 33.5317 34.3285 33.5317H29.3293C27.8406 33.5317 26.6357 34.7364 26.6357 36.2251V41.221C26.6357 42.7074 27.8405 43.9167 29.3293 43.9167H34.3285C35.815 43.9167 37.0208 42.7074 37.0208 41.221V36.2251Z" fill="#0460A9"/>
<path d="M43.4276 33.5272C41.9366 33.5272 40.7296 34.7331 40.7296 36.2217V41.2165C40.7296 42.5654 41.7349 43.6293 43.0242 43.831C45.0008 40.7522 47.8002 38.2592 51.1147 36.6477V36.2217C51.1147 34.7331 49.91 33.5272 48.4189 33.5272H43.4276Z" fill="#0460A9"/>
<path d="M15.2288 47.0665C13.7401 47.0665 12.5308 48.2712 12.5308 49.7599V54.7568C12.5308 56.2455 13.7401 57.4502 15.2288 57.4502H20.228C21.7167 57.4502 22.9203 56.2455 22.9203 54.7568V49.7599C22.9203 48.2712 21.7167 47.0665 20.228 47.0665H15.2288Z" fill="#0460A9"/>
<path d="M34.3227 47.0688H29.328C27.8394 47.0688 26.6346 48.2759 26.6346 49.7645V54.757C26.6346 56.2456 27.8394 57.4504 29.328 57.4504H34.3227C35.8091 57.4504 37.0162 56.2456 37.0162 54.757V49.7645C37.0162 48.2757 35.8091 47.0688 34.3227 47.0688Z" fill="#0460A9"/>
<path d="M41.6074 62.6107H16.2565C11.8929 62.6107 8.34181 59.0597 8.34181 54.7006V28.2225H55.3092V35.1511C56.7484 34.8198 58.2394 34.6259 59.782 34.6259C61.1051 34.6259 62.3965 34.7623 63.6486 35.0114V10.1078H56.1364V16.5292C56.1364 21.1294 52.3959 24.871 47.7922 24.871C43.1909 24.871 39.4505 21.1296 39.4505 16.5292V10.1078H24.1981V16.5292C24.1981 21.1294 20.4554 24.871 15.8541 24.871C11.2549 24.871 7.51225 21.1296 7.51225 16.5292V10.1078H0V54.6995C0 63.6746 7.27789 70.956 16.2565 70.956H47.3911C47.7608 70.956 48.1258 70.9256 48.4888 70.9018C45.4977 68.8349 43.1085 65.9667 41.6074 62.6107Z" fill="#0460A9"/>
</svg>
