<svg width="48" height="48" viewBox="0 0 48 48" fill="none" xmlns="http://www.w3.org/2000/svg">
<path d="M12.7399 33.2701C12.2909 33.7191 12.2909 34.4469 12.7399 34.8959C13.1888 35.3448 13.9167 35.3448 14.3656 34.8959L12.7399 33.2701ZM34.6677 14.1176C34.6677 13.4827 34.153 12.9681 33.5181 12.9681L23.1719 12.9681C22.537 12.9681 22.0223 13.4827 22.0223 14.1176C22.0223 14.7525 22.537 15.2672 23.1719 15.2672L32.3685 15.2672L32.3685 24.4639C32.3685 25.0988 32.8832 25.6134 33.5181 25.6134C34.153 25.6134 34.6677 25.0988 34.6677 24.4639L34.6677 14.1176ZM14.3656 34.8959L34.331 14.9305L32.7052 13.3048L12.7399 33.2701L14.3656 34.8959Z" fill="white"/>
<circle cx="24" cy="24" r="22.9714" stroke="white" stroke-width="2.05714"/>
</svg>
