<svg xmlns="http://www.w3.org/2000/svg" width="454" height="180" fill="none" viewBox="0 0 454 180"><path fill="#000" d="M160.542 152.973L144.966 136.119C141.135 137.226 136.922 137.779 132.326 137.779C124.069 137.779 116.451 135.864 109.471 132.034C102.577 128.118 97.0866 122.713 93.0009 115.818C89.0003 108.839 87 101.008 87 92.3257C87 83.6436 89.0003 75.8552 93.0009 68.9606C97.0866 62.066 102.577 56.7035 109.471 52.8732C116.451 48.9577 124.069 47 132.326 47C140.667 47 148.285 48.9577 155.18 52.8732C162.16 56.7035 167.65 62.066 171.65 68.9606C175.651 75.8552 177.651 83.6436 177.651 92.3257C177.651 100.497 175.864 107.902 172.289 114.542C168.799 121.096 163.947 126.373 157.734 130.374L179.056 152.973H160.542ZM101.938 92.3257C101.938 98.8798 103.215 104.668 105.769 109.69C108.407 114.627 112.025 118.457 116.621 121.181C121.218 123.82 126.452 125.139 132.326 125.139C138.199 125.139 143.434 123.82 148.03 121.181C152.626 118.457 156.201 114.627 158.755 109.69C161.394 104.668 162.713 98.8798 162.713 92.3257C162.713 85.7715 161.394 80.026 158.755 75.0891C156.201 70.1523 152.626 66.3645 148.03 63.7258C143.434 61.0871 138.199 59.7678 132.326 59.7678C126.452 59.7678 121.218 61.0871 116.621 63.7258C112.025 66.3645 108.407 70.1523 105.769 75.0891C103.215 80.026 101.938 85.7715 101.938 92.3257Z"/><path fill="#000" d="M276.17 78.4088V117.351C276.17 119.989 276.766 121.904 277.958 123.096C279.234 124.203 281.362 124.756 284.341 124.756H293.279V136.885H281.788C275.234 136.885 270.212 135.353 266.722 132.289C263.232 129.225 261.487 124.245 261.487 117.351V78.4088H253.188V66.5347H261.487V49.0429H276.17V66.5347H293.279V78.4088H276.17Z"/><path fill="#000" d="M367.957 99.9863C367.957 102.625 367.787 105.008 367.446 107.136H313.694C314.12 112.754 316.205 117.265 319.95 120.67C323.695 124.075 328.292 125.777 333.739 125.777C341.57 125.777 347.103 122.5 350.338 115.946H366.042C363.914 122.415 360.041 127.735 354.423 131.906C348.891 135.992 341.996 138.034 333.739 138.034C327.015 138.034 320.972 136.545 315.609 133.566C310.332 130.501 306.161 126.245 303.097 120.798C300.118 115.265 298.628 108.881 298.628 101.646C298.628 94.4111 300.075 88.0697 302.969 82.6221C305.948 77.0894 310.076 72.8335 315.354 69.8544C320.716 66.8752 326.845 65.3856 333.739 65.3856C340.379 65.3856 346.294 66.8326 351.487 69.7267C356.679 72.6207 360.722 76.7064 363.616 81.9838C366.51 87.176 367.957 93.1769 367.957 99.9863ZM352.763 95.3899C352.678 90.0275 350.763 85.729 347.018 82.4945C343.273 79.26 338.634 77.6427 333.101 77.6427C328.079 77.6427 323.781 79.26 320.206 82.4945C316.631 85.6439 314.503 89.9423 313.822 95.3899H352.763Z"/><circle cx="191.5" cy="33.5" r="6.5" fill="#C5C5C5"/><circle cx="191.5" cy="62.5" r="6.5" fill="#C5C5C5"/><circle cx="238" cy="62.5" r="6.5" fill="#C5C5C5"/><circle cx="238" cy="33.5" r="6.5" fill="#C5C5C5"/><path fill="#000" d="M246.187 80V136.893H232.347V129.002C230.162 131.753 227.289 133.939 223.727 135.557C220.247 137.095 216.524 137.864 212.558 137.864C207.298 137.864 202.563 136.771 198.354 134.586C194.227 132.401 190.949 129.164 188.521 124.874C186.174 120.584 185 115.405 185 109.334V80H198.719V107.271C198.719 113.26 200.216 117.873 203.21 121.111C206.205 124.267 210.292 125.845 215.472 125.845C220.652 125.845 224.739 124.267 227.734 121.111C230.809 117.873 232.347 113.26 232.347 107.271V80H246.187Z"/><path fill="#C5C5C5" d="M384.637 164.42C392.017 162.659 397.343 159.891 400.614 156.117C403.802 152.426 405.395 147.645 405.395 141.774V124.161C405.395 120.303 406.402 117.116 408.415 114.599C410.344 111.999 413.531 110.364 417.976 109.693V105.918C413.531 105.247 410.344 103.654 408.415 101.138C406.402 98.5376 405.395 95.3085 405.395 91.4503V73.8369C405.395 68.0496 403.802 63.3108 400.614 59.6204C397.343 55.9299 392.017 53.1202 384.637 51.1911V54.9654C388.83 56.2235 391.682 57.859 393.192 59.872C394.618 61.8849 395.33 64.8625 395.33 68.8045V90.1922C395.33 95.1407 396.421 98.9989 398.602 101.767C400.698 104.535 404.011 106.547 408.54 107.806C404.011 109.064 400.698 111.077 398.602 113.844C396.421 116.612 395.33 120.47 395.33 125.419V146.807C395.33 150.749 394.618 153.726 393.192 155.739C391.682 157.836 388.83 159.472 384.637 160.646V164.42Z"/><path fill="#C5C5C5" d="M418.881 164.42C426.262 162.659 431.588 159.891 434.859 156.117C438.046 152.426 439.64 147.645 439.64 141.774V124.161C439.64 120.303 440.647 117.116 442.659 114.599C444.589 111.999 447.776 110.364 452.221 109.693V105.918C447.776 105.247 444.589 103.654 442.659 101.138C440.647 98.5376 439.64 95.3085 439.64 91.4503V73.8369C439.64 68.0496 438.046 63.3108 434.859 59.6204C431.588 55.9299 426.262 53.1202 418.881 51.1911V54.9654C423.075 56.2235 425.927 57.859 427.436 59.872C428.862 61.8849 429.575 64.8625 429.575 68.8045V90.1922C429.575 95.1407 430.666 98.9989 432.846 101.767C434.943 104.535 438.256 106.547 442.785 107.806C438.256 109.064 434.943 111.077 432.846 113.844C430.666 116.612 429.575 120.47 429.575 125.419V146.807C429.575 150.749 428.862 153.726 427.436 155.739C425.927 157.836 423.075 159.472 418.881 160.646V164.42Z"/><path fill="#C5C5C5" d="M69.415 164.42C62.0341 162.659 56.7082 159.891 53.4371 156.117C50.2499 152.426 48.6563 147.645 48.6563 141.774V124.161C48.6563 120.303 47.6499 117.116 45.6369 114.599C43.7078 111.999 40.5206 110.364 36.0753 109.693V105.918C40.5206 105.247 43.7078 103.654 45.6369 101.138C47.6499 98.5376 48.6563 95.3085 48.6563 91.4503V73.8369C48.6563 68.0496 50.2499 63.3108 53.4371 59.6204C56.7082 55.9299 62.0341 53.1202 69.415 51.1911V54.9654C65.2213 56.2235 62.3696 57.859 60.8599 59.872C59.4341 61.8849 58.7211 64.8625 58.7211 68.8045V90.1922C58.7211 95.1407 57.6308 98.9989 55.4501 101.767C53.3532 104.535 50.0402 106.547 45.5111 107.806C50.0402 109.064 53.3532 111.077 55.4501 113.844C57.6308 116.612 58.7211 120.47 58.7211 125.419V146.807C58.7211 150.749 59.4341 153.726 60.8599 155.739C62.3696 157.836 65.2213 159.472 69.415 160.646V164.42Z"/><path fill="#C5C5C5" d="M35.1186 164.42C27.7378 162.659 22.4118 159.891 19.1408 156.117C15.9536 152.426 14.36 147.645 14.36 141.774V124.161C14.36 120.303 13.3535 117.116 11.3405 114.599C9.41145 111.999 6.22426 110.364 1.77897 109.693V105.918C6.22426 105.247 9.41145 103.654 11.3405 101.138C13.3535 98.5376 14.36 95.3085 14.36 91.4503V73.8369C14.36 68.0496 15.9536 63.3108 19.1408 59.6204C22.4118 55.9299 27.7378 53.1202 35.1186 51.1911V54.9654C30.925 56.2235 28.0733 57.859 26.5635 59.872C25.1377 61.8849 24.4248 64.8625 24.4248 68.8045V90.1922C24.4248 95.1407 23.3344 98.9989 21.1537 101.767C19.0569 104.535 15.7439 106.547 11.2147 107.806C15.7439 109.064 19.0569 111.077 21.1537 113.844C23.3344 116.612 24.4248 120.47 24.4248 125.419V146.807C24.4248 150.749 25.1377 153.726 26.5635 155.739C28.0733 157.836 30.925 159.472 35.1186 160.646V164.42Z"/></svg>