<svg width="260" height="166" viewBox="0 0 260 166" fill="none" xmlns="http://www.w3.org/2000/svg">
<rect x="-26.7888" y="0.211246" width="286.578" height="165.001" rx="4.83829" fill="#FAFAFA" stroke="#0460A9" stroke-width="0.422491" stroke-dasharray="2.11 2.11"/>
<path d="M-8.47584 100.653V91.7563H-5.1873C-2.53255 91.7563 -1.21713 93.574 -1.21713 96.2407C-1.21713 98.8954 -2.6043 100.653 -5.271 100.653H-8.47584ZM-7.24413 99.589H-5.31884C-3.30984 99.589 -2.48471 98.2856 -2.48471 96.2407C-2.48471 94.1958 -3.22613 92.8206 -5.24709 92.8206H-7.24413V99.589ZM1.23937 100.653H0.127249V94.2317H1.22742V95.3917H1.26329C1.65792 94.6502 2.31562 94.148 3.16467 94.148C3.34404 94.148 3.45167 94.1719 3.57125 94.2197V95.2721H3.53537C3.37992 95.2242 3.27229 95.2123 3.08096 95.2123C2.08842 95.2123 1.23937 95.9537 1.23937 97.1615V100.653ZM7.22303 100.833C5.28578 100.833 4.07798 99.3259 4.07798 97.4485C4.07798 95.583 5.28578 94.0762 7.22303 94.0762C9.16028 94.0762 10.3442 95.583 10.3442 97.4485C10.3442 99.3259 9.16028 100.833 7.22303 100.833ZM7.21107 99.9239C8.52648 99.9239 9.20811 98.8357 9.20811 97.4485C9.20811 96.0613 8.52648 94.9612 7.21107 94.9612C5.89565 94.9612 5.21403 96.0613 5.21403 97.4485C5.21403 98.8357 5.89565 99.9239 7.21107 99.9239ZM14.5505 99.9239C15.7344 99.9239 16.3323 98.8835 16.3323 97.4844C16.3323 96.0733 15.7463 95.0209 14.5625 95.0209C13.1992 95.0209 12.5774 96.1211 12.5774 97.4844C12.5774 98.8357 13.1275 99.9239 14.5505 99.9239ZM12.6372 100.881V102.83H11.525V94.2317H12.6252V95.2362H12.6611C13.1394 94.5067 13.7852 94.0762 14.706 94.0762C16.3442 94.0762 17.4683 95.3438 17.4683 97.4604C17.4683 99.5173 16.404 100.845 14.6701 100.845C13.7971 100.845 13.0916 100.486 12.6491 99.8043H12.6132C12.6252 100.031 12.6372 100.402 12.6372 100.881ZM22.6143 102.89C22.2556 102.89 21.849 102.83 21.6696 102.758V101.801H21.7175C21.837 101.873 22.1121 101.921 22.3871 101.921C22.8296 101.921 23.1166 101.753 23.3438 101.144C23.3438 101.12 23.5949 100.402 23.571 100.33L21.1195 94.2317H22.3273L23.6547 97.7953C23.9178 98.5247 24.1928 99.5292 24.1928 99.5292H24.2168C24.2168 99.5292 24.5157 98.5128 24.7668 97.7953L26.0464 94.2317H27.2063L24.4798 101.239C23.9537 102.591 23.4395 102.89 22.6143 102.89ZM30.7076 100.833C28.7704 100.833 27.5626 99.3259 27.5626 97.4485C27.5626 95.583 28.7704 94.0762 30.7076 94.0762C32.6449 94.0762 33.8287 95.583 33.8287 97.4485C33.8287 99.3259 32.6449 100.833 30.7076 100.833ZM30.6956 99.9239C32.0111 99.9239 32.6927 98.8357 32.6927 97.4485C32.6927 96.0613 32.0111 94.9612 30.6956 94.9612C29.3802 94.9612 28.6986 96.0613 28.6986 97.4485C28.6986 98.8357 29.3802 99.9239 30.6956 99.9239ZM37.1502 100.797C35.8228 100.797 34.9737 99.9956 34.9737 98.6563V94.2317H36.0859V98.5965C36.0859 99.4097 36.6001 99.888 37.485 99.888C38.4656 99.888 39.0994 99.1346 39.0994 98.1421V94.2317H40.2115V100.653H39.1113V99.7564H39.0874C38.633 100.39 38.0709 100.797 37.1502 100.797ZM42.8717 100.653H41.7595V94.2317H42.8597V95.3917H42.8956C43.2902 94.6502 43.9479 94.148 44.797 94.148C44.9763 94.148 45.084 94.1719 45.2035 94.2197V95.2721H45.1677C45.0122 95.2242 44.9046 95.2123 44.7132 95.2123C43.7207 95.2123 42.8717 95.9537 42.8717 97.1615V100.653ZM57.3476 101.443L55.9006 100.271C55.2668 100.641 54.5015 100.845 53.6405 100.845C50.9499 100.845 49.2877 98.8596 49.2877 96.2048C49.2877 93.5381 50.9499 91.565 53.6405 91.565C56.3192 91.565 57.9933 93.5381 57.9933 96.2048C57.9933 97.6159 57.527 98.8357 56.6779 99.6727L57.9575 100.701L57.3476 101.443ZM53.6405 99.7923C54.1428 99.7923 54.5852 99.6967 54.9798 99.5173L53.8199 98.5845L54.4178 97.8431L55.7811 98.9433C56.4148 98.2975 56.7377 97.3289 56.7377 96.2048C56.7377 94.1599 55.6615 92.6173 53.6405 92.6173C51.6196 92.6173 50.5313 94.1599 50.5313 96.2048C50.5313 98.2377 51.6196 99.7923 53.6405 99.7923ZM61.4756 100.797C60.1482 100.797 59.2991 99.9956 59.2991 98.6563V94.2317H60.4113V98.5965C60.4113 99.4097 60.9255 99.888 61.8104 99.888C62.791 99.888 63.4248 99.1346 63.4248 98.1421V94.2317H64.5369V100.653H63.4367V99.7564H63.4128C62.9584 100.39 62.3963 100.797 61.4756 100.797ZM69.0506 100.594C68.7516 100.665 68.4407 100.701 68.1537 100.701C67.2927 100.689 66.6948 100.342 66.6948 99.3977V95.0927H65.6903V94.2317H66.6948V92.2107H67.795V94.2317H69.1224V95.0927H67.795V99.1466C67.795 99.6129 68.0461 99.7445 68.4527 99.7445C68.644 99.7445 68.8951 99.6967 69.0147 99.6608H69.0506V100.594ZM72.9455 94.9372C71.7855 94.9372 71.1756 95.7743 71.0321 96.9104H74.7512C74.6914 95.6787 74.0576 94.9372 72.9455 94.9372ZM75.8035 98.8237C75.5165 100.02 74.4881 100.833 73.0053 100.833C71.0321 100.833 69.8722 99.3259 69.8722 97.4485C69.8722 95.583 71.1039 94.0762 72.9455 94.0762C73.9021 94.0762 74.6436 94.4469 75.1458 95.0688C75.672 95.7026 75.9351 96.6234 75.9351 97.7116H71.0082C71.0919 98.9672 71.7736 99.9239 73.0172 99.9239C73.9021 99.9239 74.512 99.5053 74.7153 98.8237H75.8035ZM83.2628 100.594C82.9638 100.665 82.6529 100.701 82.3659 100.701C81.5049 100.689 80.907 100.342 80.907 99.3977V95.0927H79.9025V94.2317H80.907V92.2107H82.0072V94.2317H83.3345V95.0927H82.0072V99.1466C82.0072 99.6129 82.2583 99.7445 82.6649 99.7445C82.8562 99.7445 83.1073 99.6967 83.2269 99.6608H83.2628V100.594ZM87.1577 94.9372C85.9977 94.9372 85.3878 95.7743 85.2443 96.9104H88.9634C88.9036 95.6787 88.2698 94.9372 87.1577 94.9372ZM90.0157 98.8237C89.7287 100.02 88.7003 100.833 87.2175 100.833C85.2443 100.833 84.0844 99.3259 84.0844 97.4485C84.0844 95.583 85.3161 94.0762 87.1577 94.0762C88.1143 94.0762 88.8557 94.4469 89.358 95.0688C89.8842 95.7026 90.1473 96.6234 90.1473 97.7116H85.2204C85.3041 98.9672 85.9857 99.9239 87.2294 99.9239C88.1143 99.9239 88.7242 99.5053 88.9275 98.8237H90.0157ZM91.3329 100.653V94.2317H92.4331V95.1884H92.4689C92.8636 94.4948 93.5452 94.0762 94.3703 94.0762C95.1476 94.0762 95.7694 94.4828 96.0325 95.2721H96.0564C96.5109 94.4709 97.2642 94.0762 98.0415 94.0762C99.2134 94.0762 100.027 94.8296 100.027 96.1689V100.653H98.9145V96.2646C98.9145 95.4754 98.4003 95.009 97.7545 95.009C96.9414 95.009 96.2358 95.7145 96.2358 96.6951V100.653H95.1356V96.2646C95.1356 95.4754 94.6932 95.009 94.0355 95.009C93.2701 95.009 92.445 95.7145 92.445 96.6951V100.653H91.3329ZM104.542 99.9239C105.726 99.9239 106.323 98.8835 106.323 97.4844C106.323 96.0733 105.737 95.0209 104.554 95.0209C103.19 95.0209 102.569 96.1211 102.569 97.4844C102.569 98.8357 103.119 99.9239 104.542 99.9239ZM102.628 100.881V102.83H101.516V94.2317H102.616V95.2362H102.652C103.131 94.5067 103.776 94.0762 104.697 94.0762C106.335 94.0762 107.459 95.3438 107.459 97.4604C107.459 99.5173 106.395 100.845 104.661 100.845C103.788 100.845 103.083 100.486 102.64 99.8043H102.604C102.616 100.031 102.628 100.402 102.628 100.881ZM108.676 100.653V91.7563H109.788V100.653H108.676ZM113.537 99.9717C114.817 99.9717 115.415 99.027 115.415 98.2856V97.2332C115.092 97.4365 114.53 97.592 114.004 97.6877C112.952 97.867 112.258 98.0584 112.258 98.9433C112.258 99.7684 112.892 99.9717 113.537 99.9717ZM113.262 100.785C112.043 100.785 111.086 100.187 111.086 98.9552C111.086 97.4604 112.186 97.1376 113.848 96.9343C114.793 96.8267 115.403 96.6712 115.403 96.0135C115.403 95.3199 114.913 94.8894 114.028 94.8894C113.011 94.8894 112.521 95.3677 112.485 96.1331H111.409C111.457 95.0449 112.282 94.0762 114.016 94.0762C114.626 94.0762 115.164 94.1839 115.57 94.423C116.109 94.7459 116.431 95.3079 116.431 96.1689V99.1705C116.431 99.6847 116.551 99.9597 117.113 99.8402H117.161V100.617C117.005 100.665 116.826 100.713 116.563 100.713C115.881 100.713 115.546 100.39 115.427 99.7086H115.415C115.008 100.271 114.351 100.785 113.262 100.785ZM120.913 100.594C120.614 100.665 120.303 100.701 120.016 100.701C119.155 100.689 118.557 100.342 118.557 99.3977V95.0927H117.553V94.2317H118.557V92.2107H119.657V94.2317H120.985V95.0927H119.657V99.1466C119.657 99.6129 119.908 99.7445 120.315 99.7445C120.506 99.7445 120.757 99.6967 120.877 99.6608H120.913V100.594ZM124.808 94.9372C123.648 94.9372 123.038 95.7743 122.894 96.9104H126.613C126.554 95.6787 125.92 94.9372 124.808 94.9372ZM127.666 98.8237C127.379 100.02 126.35 100.833 124.868 100.833C122.894 100.833 121.734 99.3259 121.734 97.4485C121.734 95.583 122.966 94.0762 124.808 94.0762C125.764 94.0762 126.506 94.4469 127.008 95.0688C127.534 95.7026 127.797 96.6234 127.797 97.7116H122.87C122.954 98.9672 123.636 99.9239 124.879 99.9239C125.764 99.9239 126.374 99.5053 126.578 98.8237H127.666ZM133.272 96.7429V100.653H132.159V91.7563H133.272V94.0882C133.272 94.3991 133.26 94.8535 133.236 95.1644H133.272C133.75 94.4828 134.396 94.0762 135.328 94.0762C136.668 94.0762 137.493 94.8296 137.493 96.1689V100.653H136.393V96.3005C136.393 95.4754 135.855 95.009 134.982 95.009C133.989 95.009 133.272 95.7145 133.272 96.7429ZM141.718 94.9372C140.558 94.9372 139.948 95.7743 139.804 96.9104H143.523C143.463 95.6787 142.83 94.9372 141.718 94.9372ZM144.576 98.8237C144.289 100.02 143.26 100.833 141.777 100.833C139.804 100.833 138.644 99.3259 138.644 97.4485C138.644 95.583 139.876 94.0762 141.718 94.0762C142.674 94.0762 143.416 94.4469 143.918 95.0688C144.444 95.7026 144.707 96.6234 144.707 97.7116H139.78C139.864 98.9672 140.546 99.9239 141.789 99.9239C142.674 99.9239 143.284 99.5053 143.487 98.8237H144.576ZM147.005 100.653H145.893V94.2317H146.993V95.3917H147.029C147.423 94.6502 148.081 94.148 148.93 94.148C149.11 94.148 149.217 94.1719 149.337 94.2197V95.2721H149.301C149.145 95.2242 149.038 95.2123 148.847 95.2123C147.854 95.2123 147.005 95.9537 147.005 97.1615V100.653ZM152.917 94.9372C151.757 94.9372 151.147 95.7743 151.003 96.9104H154.723C154.663 95.6787 154.029 94.9372 152.917 94.9372ZM155.775 98.8237C155.488 100.02 154.459 100.833 152.977 100.833C151.003 100.833 149.844 99.3259 149.844 97.4485C149.844 95.583 151.075 94.0762 152.917 94.0762C153.873 94.0762 154.615 94.4469 155.117 95.0688C155.643 95.7026 155.906 96.6234 155.906 97.7116H150.98C151.063 98.9672 151.745 99.9239 152.989 99.9239C153.873 99.9239 154.483 99.5053 154.687 98.8237H155.775ZM163.067 100.833C161.129 100.833 159.922 99.3259 159.922 97.4485C159.922 95.583 161.129 94.0762 163.067 94.0762C165.004 94.0762 166.188 95.583 166.188 97.4485C166.188 99.3259 165.004 100.833 163.067 100.833ZM163.055 99.9239C164.37 99.9239 165.052 98.8357 165.052 97.4485C165.052 96.0613 164.37 94.9612 163.055 94.9612C161.739 94.9612 161.058 96.0613 161.058 97.4485C161.058 98.8357 161.739 99.9239 163.055 99.9239ZM168.481 100.653H167.369V94.2317H168.469V95.3917H168.505C168.899 94.6502 169.557 94.148 170.406 94.148C170.586 94.148 170.693 94.1719 170.813 94.2197V95.2721H170.777C170.621 95.2242 170.514 95.2123 170.322 95.2123C169.33 95.2123 168.481 95.9537 168.481 97.1615V100.653Z" fill="black"/>
<path d="M177.169 100.821C175.77 100.821 174.957 99.9478 174.957 98.5726V94.2676H176.475V98.3573C176.475 99.1107 176.906 99.5532 177.671 99.5532C178.532 99.5532 179.082 98.8954 179.082 98.0105V94.2676H180.589V100.653H179.118V99.7445H179.094C178.628 100.438 178.066 100.821 177.169 100.821ZM185.133 99.6488C186.138 99.6488 186.676 98.7639 186.676 97.5083C186.676 96.2407 186.162 95.3319 185.121 95.3319C183.973 95.3319 183.435 96.3005 183.435 97.5083C183.435 98.7161 183.961 99.6488 185.133 99.6488ZM183.495 101.084V102.794H181.976V94.2676H183.447V95.2123H183.483C183.937 94.4828 184.571 94.1002 185.468 94.1002C187.13 94.1002 188.219 95.4395 188.219 97.4724C188.219 99.5292 187.142 100.857 185.42 100.857C184.571 100.857 183.878 100.486 183.483 99.8402H183.447C183.471 100.079 183.495 100.498 183.495 101.084ZM189.311 100.653V91.7563H190.841V100.653H189.311ZM195.195 100.845C193.21 100.845 191.93 99.3618 191.93 97.4724C191.93 95.571 193.21 94.1002 195.195 94.1002C197.18 94.1002 198.435 95.571 198.435 97.4724C198.435 99.3618 197.18 100.845 195.195 100.845ZM195.183 99.6967C196.295 99.6967 196.893 98.7519 196.893 97.4724C196.893 96.1809 196.295 95.2242 195.183 95.2242C194.059 95.2242 193.473 96.1809 193.473 97.4724C193.473 98.7519 194.059 99.6967 195.183 99.6967ZM201.837 99.7684C202.877 99.7684 203.451 99.0509 203.451 98.3334V97.3887C203.152 97.58 202.674 97.7116 202.208 97.8072C201.275 97.9866 200.737 98.1779 200.737 98.8835C200.737 99.5651 201.251 99.7684 201.837 99.7684ZM201.395 100.809C200.151 100.809 199.218 100.163 199.218 98.9194C199.218 97.4724 200.318 97.1256 201.837 96.9462C202.889 96.8147 203.415 96.6473 203.415 96.0733C203.415 95.5232 203.033 95.1525 202.267 95.1525C201.418 95.1525 201 95.5471 200.964 96.1809H199.529C199.577 95.0927 200.438 94.1002 202.256 94.1002C202.985 94.1002 203.547 94.2078 203.966 94.4709C204.563 94.8296 204.874 95.4395 204.874 96.2885V99.6488C204.874 100.175 204.97 100.45 205.114 100.546V100.653H203.643C203.547 100.51 203.463 100.259 203.427 99.8282H203.404C202.985 100.39 202.411 100.809 201.395 100.809ZM209.041 99.6129C210.165 99.6129 210.727 98.728 210.727 97.4724C210.727 96.1929 210.165 95.284 209.041 95.284C208.012 95.284 207.498 96.2048 207.498 97.4604C207.498 98.74 208.012 99.6129 209.041 99.6129ZM208.73 100.857C207.044 100.857 205.955 99.5532 205.955 97.4724C205.955 95.4395 207.103 94.1002 208.73 94.1002C209.615 94.1002 210.272 94.5187 210.691 95.1884H210.715C210.691 94.8416 210.667 94.3274 210.667 93.861V91.7563H212.186V100.653H210.715V99.7206H210.691C210.296 100.462 209.603 100.857 208.73 100.857ZM218.934 99.7684C219.974 99.7684 220.548 99.0509 220.548 98.3334V97.3887C220.249 97.58 219.771 97.7116 219.304 97.8072C218.372 97.9866 217.833 98.1779 217.833 98.8835C217.833 99.5651 218.348 99.7684 218.934 99.7684ZM218.491 100.809C217.248 100.809 216.315 100.163 216.315 98.9194C216.315 97.4724 217.415 97.1256 218.934 96.9462C219.986 96.8147 220.512 96.6473 220.512 96.0733C220.512 95.5232 220.129 95.1525 219.364 95.1525C218.515 95.1525 218.097 95.5471 218.061 96.1809H216.626C216.674 95.0927 217.535 94.1002 219.352 94.1002C220.082 94.1002 220.644 94.2078 221.062 94.4709C221.66 94.8296 221.971 95.4395 221.971 96.2885V99.6488C221.971 100.175 222.067 100.45 222.21 100.546V100.653H220.739C220.644 100.51 220.56 100.259 220.524 99.8282H220.5C220.082 100.39 219.508 100.809 218.491 100.809ZM229.82 95.3199H228.504V100.653H226.986V95.3199H226.005V94.2676H226.986V93.562C226.986 92.9163 227.141 92.4738 227.476 92.1749C227.847 91.852 228.421 91.7204 229.15 91.7324C229.353 91.7324 229.593 91.7444 229.832 91.7683V92.9043C228.827 92.8565 228.504 92.9641 228.504 93.6577V94.2676H229.82V95.3199ZM230.741 100.653V94.2676H232.259V100.653H230.741ZM231.494 91.6965C231.972 91.6965 232.331 92.0672 232.331 92.5456C232.331 93.0359 231.972 93.3827 231.494 93.3827C231.016 93.3827 230.657 93.0359 230.657 92.5456C230.657 92.0672 231.016 91.6965 231.494 91.6965ZM233.676 100.653V91.7563H235.206V100.653H233.676ZM239.464 95.2003C238.472 95.2003 237.957 95.8819 237.826 96.8864H241.007C240.947 95.8341 240.385 95.2003 239.464 95.2003ZM242.454 98.8476C242.143 99.9956 241.114 100.845 239.548 100.845C237.515 100.845 236.295 99.3618 236.295 97.4724C236.295 95.571 237.575 94.1002 239.464 94.1002C240.397 94.1002 241.126 94.423 241.664 94.997C242.286 95.6547 242.585 96.6592 242.573 97.8431H237.802C237.909 98.9433 238.507 99.6847 239.56 99.6847C240.289 99.6847 240.768 99.3738 240.971 98.8476H242.454Z" fill="#0460A9"/>
<path d="M174.311 101.909H242.944V102.722H174.311V101.909Z" fill="#0460A9"/>
<path d="M46.6976 126.562L46.1594 117.665H47.3433L47.5825 122.879C47.6184 123.752 47.5705 125.271 47.5705 125.271H47.5944C47.5944 125.271 48.0967 123.764 48.5033 122.891L50.9189 117.665H52.1864L52.5093 122.891C52.5691 123.764 52.5572 125.271 52.5572 125.271H52.5811C52.5811 125.271 53.0714 123.752 53.454 122.879L55.7859 117.665H57.0176L52.8681 126.562H51.7081L51.3852 120.799C51.3374 120.021 51.3852 118.646 51.3852 118.646H51.3613C51.3613 118.646 50.883 120.009 50.5242 120.799L47.8575 126.562H46.6976ZM58.8355 126.742C57.0656 126.742 56.1209 125.498 56.1209 123.908C56.1209 121.827 57.6038 119.985 59.6606 119.985C61.4543 119.985 62.3871 121.229 62.3871 122.82C62.3871 124.912 60.9162 126.742 58.8355 126.742ZM58.8953 125.857C60.402 125.857 61.275 124.314 61.275 122.784C61.275 121.683 60.7488 120.858 59.5888 120.858C58.118 120.858 57.2211 122.413 57.2211 123.956C57.2211 125.056 57.7473 125.857 58.8953 125.857ZM64.0127 126.562H62.9245L64.1801 120.141H65.2444L65.0172 121.277H65.0531C65.4955 120.535 66.1413 120.069 66.9664 120.069C67.1697 120.069 67.3132 120.093 67.373 120.117L67.2414 121.181H67.1936C67.086 121.145 66.9664 121.109 66.7511 121.109C65.7945 121.109 64.9693 121.731 64.7182 122.999L64.0127 126.562ZM69.9496 125.869C71.4085 125.869 72.2576 124.231 72.2576 122.772C72.2576 121.707 71.7434 120.906 70.6193 120.906C69.1843 120.906 68.4668 122.568 68.4668 124.039C68.4668 125.116 68.9092 125.869 69.9496 125.869ZM69.6746 126.742C68.2994 126.742 67.3307 125.737 67.3307 124.075C67.3307 121.779 68.694 119.985 70.5714 119.985C71.5759 119.985 72.1858 120.476 72.5326 121.265H72.5565C72.5924 121.014 72.6761 120.524 72.7479 120.129L73.2382 117.665H74.3264L72.5804 126.562H71.5281L71.6836 125.761H71.6716C71.1335 126.371 70.4877 126.742 69.6746 126.742ZM73.9068 128.189L74.0383 127.495C74.5645 127.304 74.8276 126.981 74.8754 126.586C74.4449 126.622 74.1699 126.287 74.1699 125.905C74.1699 125.498 74.4688 125.199 74.8635 125.199C75.3418 125.199 75.6288 125.678 75.6288 126.228C75.6288 127.208 75.0428 127.89 73.9068 128.189ZM82.763 118.682L82.1292 121.935H84.4013C85.7645 121.935 86.4342 121.169 86.4342 119.961C86.4342 119.16 85.8961 118.682 84.9394 118.682H82.763ZM84.3893 122.891H81.9378L81.2203 126.562H80.0126L81.7465 117.665H85.1068C85.9319 117.665 86.5418 117.893 86.9723 118.311C87.3789 118.706 87.6181 119.28 87.6181 119.938C87.6181 121.731 86.494 122.891 84.3893 122.891ZM87.6617 126.562L89.3956 117.665H92.3494C94.6095 117.665 95.7814 119.184 95.7814 121.217C95.7814 124.494 94.0474 126.562 90.9024 126.562H87.6617ZM89.0728 125.522H90.9981C93.5213 125.522 94.5736 123.657 94.5736 121.229C94.5736 119.734 93.8441 118.682 92.1819 118.682H90.4241L89.0728 125.522ZM102.295 122.425H98.3127L97.5115 126.562H96.2918L98.0257 117.665H104.017L103.802 118.694H99.0302L98.5041 121.432H102.498L102.295 122.425ZM102.378 128.189L102.509 127.495C103.036 127.304 103.299 126.981 103.347 126.586C102.916 126.622 102.641 126.287 102.641 125.905C102.641 125.498 102.94 125.199 103.335 125.199C103.813 125.199 104.1 125.678 104.1 126.228C104.1 127.208 103.514 127.89 102.378 128.189ZM115.073 125.474L114.869 126.562H108.52L110.253 117.665H116.46L116.257 118.694H111.258L110.72 121.444H115.264L115.061 122.425H110.529L109.943 125.474H115.073ZM115.697 126.562L118.699 123.142L117.216 120.141H118.412L119.07 121.648C119.213 121.97 119.416 122.533 119.416 122.533H119.44C119.44 122.533 119.871 121.959 120.122 121.648L121.366 120.141H122.633L119.978 123.154L121.736 126.562H120.54L119.667 124.733C119.5 124.374 119.261 123.764 119.261 123.764H119.237C119.237 123.764 118.783 124.386 118.496 124.733L116.965 126.562H115.697ZM125.27 126.742C123.572 126.742 122.603 125.642 122.603 124.063C122.603 121.839 123.99 119.985 126.131 119.985C127.781 119.985 128.535 121.014 128.57 122.234H127.506C127.494 121.432 127.028 120.87 126.035 120.87C124.517 120.87 123.703 122.521 123.703 124.099C123.703 125.187 124.218 125.857 125.282 125.857C126.215 125.857 126.92 125.307 127.219 124.29H128.295C127.889 125.881 126.741 126.742 125.27 126.742ZM132.657 120.822C131.485 120.822 130.756 121.755 130.469 122.831H134.116C134.308 121.672 133.853 120.822 132.657 120.822ZM134.906 124.721C134.439 126.06 133.315 126.742 131.988 126.742C130.146 126.742 129.225 125.522 129.225 123.956C129.225 121.839 130.612 119.985 132.741 119.985C134.439 119.985 135.24 121.098 135.24 122.628C135.24 122.939 135.204 123.274 135.157 123.609H130.325C130.314 123.728 130.314 123.848 130.314 123.968C130.314 125.175 130.899 125.857 132.047 125.857C132.837 125.857 133.518 125.486 133.817 124.721H134.906ZM135.866 126.562L137.6 117.665H138.689L136.955 126.562H135.866ZM143.894 125.941C145.089 125.941 145.735 125.163 145.891 124.398L146.13 123.178C145.759 123.405 145.245 123.537 144.42 123.657C143.427 123.812 142.758 124.099 142.758 124.948C142.758 125.666 143.308 125.941 143.894 125.941ZM143.702 126.694C142.435 126.694 141.645 126.048 141.645 125.032C141.645 123.573 142.674 123.13 144.288 122.939C145.687 122.784 146.405 122.688 146.381 121.755C146.369 121.169 145.927 120.799 145.077 120.799C144.121 120.799 143.547 121.253 143.379 122.066H142.339C142.518 120.894 143.487 119.985 145.101 119.985C146.62 119.985 147.589 120.775 147.278 122.365L146.74 125.175C146.644 125.654 146.764 125.869 147.302 125.773H147.338L147.194 126.527C147.051 126.574 146.895 126.622 146.632 126.622C146.07 126.622 145.699 126.335 145.675 125.749H145.651C145.233 126.335 144.527 126.694 143.702 126.694ZM150.04 122.521L149.251 126.562H148.163L149.418 120.141H150.495L150.303 121.098H150.315C150.793 120.416 151.547 119.985 152.408 119.985C153.663 119.985 154.524 120.834 154.237 122.257L153.376 126.562H152.288L153.137 122.281C153.317 121.408 152.946 120.894 152.013 120.894C151.057 120.894 150.243 121.504 150.04 122.521ZM157.71 125.869C159.169 125.869 160.018 124.231 160.018 122.772C160.018 121.707 159.504 120.906 158.38 120.906C156.945 120.906 156.227 122.568 156.227 124.039C156.227 125.116 156.67 125.869 157.71 125.869ZM157.435 126.742C156.06 126.742 155.091 125.737 155.091 124.075C155.091 121.779 156.455 119.985 158.332 119.985C159.337 119.985 159.946 120.476 160.293 121.265H160.317C160.353 121.014 160.437 120.524 160.508 120.129L160.999 117.665H162.087L160.341 126.562H159.289L159.444 125.761H159.432C158.894 126.371 158.248 126.742 157.435 126.742ZM173.156 118.694H170.274L168.744 126.562H167.548L169.079 118.694H166.209L166.412 117.665H173.348L173.156 118.694ZM175.364 120.822C174.192 120.822 173.463 121.755 173.176 122.831H176.823C177.014 121.672 176.56 120.822 175.364 120.822ZM177.612 124.721C177.146 126.06 176.022 126.742 174.694 126.742C172.853 126.742 171.932 125.522 171.932 123.956C171.932 121.839 173.319 119.985 175.448 119.985C177.146 119.985 177.947 121.098 177.947 122.628C177.947 122.939 177.911 123.274 177.863 123.609H173.032C173.02 123.728 173.02 123.848 173.02 123.968C173.02 125.175 173.606 125.857 174.754 125.857C175.543 125.857 176.225 125.486 176.524 124.721H177.612ZM177.848 126.562L180.849 123.142L179.367 120.141H180.562L181.22 121.648C181.364 121.97 181.567 122.533 181.567 122.533H181.591C181.591 122.533 182.021 121.959 182.272 121.648L183.516 120.141H184.784L182.129 123.154L183.887 126.562H182.691L181.818 124.733C181.651 124.374 181.411 123.764 181.411 123.764H181.388C181.388 123.764 180.933 124.386 180.646 124.733L179.115 126.562H177.848ZM187.597 126.539C187.382 126.574 187.142 126.598 186.832 126.598C185.959 126.598 185.385 126.084 185.576 125.139L186.389 120.99H185.397L185.564 120.141H186.557L186.951 118.108H188.027L187.633 120.141H188.829L188.649 120.99H187.465L186.676 125.008C186.58 125.522 186.796 125.701 187.214 125.701C187.406 125.701 187.621 125.666 187.728 125.642H187.764L187.597 126.539Z" fill="#8E8E8E"/>
<path fill-rule="evenodd" clip-rule="evenodd" d="M103.591 35.1381C103.374 35.3555 102.923 36.9073 102.155 40.0826C98.4741 55.2888 96.9722 61.7549 97.058 62.0252C97.1115 62.1934 97.2874 62.4507 97.449 62.5971C97.6155 62.7477 100.382 63.4953 103.826 64.3204C107.172 65.1218 112.106 66.3082 114.792 66.9565C117.477 67.6049 119.705 68.1045 119.742 68.0668C119.78 68.0291 119.618 67.4234 119.382 66.7208C119.073 65.8007 118.953 65.0853 118.953 64.1632V62.8828H112.699H106.444V50.2746V37.6663L113.902 37.7128C118.004 37.7385 121.579 37.7916 121.847 37.831L122.334 37.9025V40.3344V42.7664H124.87H127.406V48.5985V54.4305H128.335H129.265V47.0321V39.6335L127.361 37.7346L125.456 35.8356H117.209H108.961L106.839 35.3284C104.354 34.7346 104.015 34.7146 103.591 35.1381ZM109.445 41.5966C109.105 41.7944 109.053 42.4337 109.352 42.7326C109.638 43.0188 115.929 43.0188 116.215 42.7326C116.496 42.4518 116.468 41.9961 116.152 41.6796C115.93 41.4573 115.386 41.4149 112.813 41.4191C111.042 41.4222 109.615 41.4974 109.445 41.5966ZM109.989 42.6819C109.989 42.7749 109.915 42.7368 109.825 42.5974C109.735 42.4579 109.661 42.2677 109.661 42.1748C109.661 42.0818 109.735 42.1198 109.825 42.2593C109.915 42.3987 109.989 42.5889 109.989 42.6819ZM109.507 45.624C109.372 45.7098 109.33 45.8608 109.407 45.9855C109.493 46.1248 109.471 46.1575 109.344 46.0789C109.061 45.9041 109.099 46.4599 109.39 46.751C109.583 46.9435 110.287 46.9925 112.856 46.9925C114.629 46.9925 116.088 46.9354 116.099 46.8658C116.232 45.9901 116.202 45.7964 115.912 45.6407C115.523 45.4326 109.833 45.4176 109.507 45.624ZM109.382 49.9596C109.44 50.1101 109.412 50.1779 109.316 50.1187C109.224 50.0619 109.149 50.1765 109.149 50.3735C109.149 50.5704 109.224 50.685 109.316 50.6282C109.412 50.5689 109.44 50.6372 109.382 50.789C109.291 51.0265 110.055 51.0486 116.948 51.0091L124.616 50.9651L124.672 50.4769C124.716 50.0935 124.672 50.0103 124.466 50.0893C124.322 50.1444 124.152 50.1052 124.089 50.0019C124.021 49.8924 124.049 49.8614 124.156 49.9275C124.257 49.9899 124.387 49.9635 124.446 49.869C124.517 49.7537 122.045 49.6973 116.917 49.6973C110.086 49.6973 109.292 49.7248 109.382 49.9596ZM109.36 54.0073C109.047 54.3631 109.104 54.9017 109.476 55.1008C109.924 55.3407 123.926 55.3407 124.374 55.1008C124.703 54.9247 124.788 54.5163 124.598 54.0218C124.507 53.7834 123.686 53.755 117.033 53.7608C110.806 53.7662 109.536 53.8069 109.36 54.0073ZM126.334 56.6739C125.977 56.7882 125.737 56.9336 125.801 56.997C125.865 57.0604 125.777 57.0761 125.605 57.032C125.266 56.9448 123.512 58.0118 122.895 58.6798C122.124 59.5164 121.328 61.0901 121.054 62.3214C120.703 63.9005 120.893 65.4422 121.634 67.0254C122.24 68.3217 124.014 70.2569 124.444 70.0919C124.595 70.0339 124.678 70.0529 124.627 70.1339C124.483 70.3673 126.173 71.0156 127.367 71.1846C128.524 71.3484 130.696 71.0925 130.523 70.8126C130.473 70.7302 130.542 70.7052 130.677 70.7571C130.979 70.8733 132.215 70.2603 132.743 69.732C132.957 69.5177 133.166 69.376 133.207 69.4171C133.353 69.5625 134.513 68.0485 134.427 67.8252C134.38 67.7006 134.409 67.6408 134.492 67.6923C134.685 67.8113 135.27 66.5979 135.533 65.5333C135.653 65.0507 135.699 64.1545 135.646 63.3357C135.556 61.9439 135.105 60.4394 134.828 60.6105C134.746 60.6612 134.717 60.6021 134.764 60.479C134.987 59.899 132.256 57.1583 131.677 57.3804C131.532 57.4362 131.49 57.3961 131.566 57.2737C131.648 57.1417 131.593 57.1141 131.397 57.1892C131.234 57.2517 131.15 57.2313 131.205 57.1425C131.496 56.6716 127.532 56.2902 126.334 56.6739ZM129.895 56.8993C129.839 56.9554 129.693 56.9615 129.572 56.9126C129.437 56.8587 129.477 56.8186 129.674 56.8105C129.852 56.8033 129.952 56.8432 129.895 56.8993ZM132.503 58.3186C132.582 58.3186 132.643 58.4138 132.64 58.5299C132.637 58.6462 132.485 58.5617 132.302 58.3421C132.119 58.1227 131.975 57.8564 131.981 57.7504C131.988 57.6446 132.075 57.729 132.176 57.9382C132.277 58.1475 132.424 58.3186 132.503 58.3186ZM109.352 58.0143C109.041 58.3248 109.11 58.9623 109.476 59.1579C109.68 59.2673 111.699 59.3329 114.866 59.3329H119.929L120.23 58.8732C120.396 58.6203 120.531 58.3194 120.531 58.2045C120.531 58.0895 120.589 58.0314 120.66 58.0752C120.731 58.1191 120.837 58.0777 120.896 57.9832C121.059 57.7185 109.617 57.7492 109.352 58.0143ZM133.23 58.6683C133.177 58.7549 133.043 58.8196 132.932 58.8124C132.788 58.8029 132.791 58.7747 132.943 58.7135C133.06 58.6663 133.105 58.5465 133.044 58.4471C132.977 58.3394 133.012 58.3157 133.13 58.3887C133.239 58.456 133.284 58.5818 133.23 58.6683ZM109.961 58.9146C109.909 58.9667 109.815 58.8729 109.751 58.7062C109.66 58.4653 109.679 58.4459 109.846 58.6115C109.961 58.7263 110.013 58.8627 109.961 58.9146ZM132.566 58.9621C132.514 59.0142 132.378 58.9623 132.263 58.8467C132.097 58.6797 132.117 58.6604 132.357 58.752C132.524 58.8156 132.618 58.9101 132.566 58.9621ZM133.824 59.4916C133.952 59.731 133.942 59.8523 133.788 59.9414C133.671 60.0084 133.63 60.003 133.697 59.9294C133.763 59.8557 133.741 59.6534 133.648 59.4798C133.555 59.306 133.517 59.1638 133.564 59.1638C133.61 59.1638 133.727 59.3114 133.824 59.4916ZM122.399 60.4404C122.456 60.5909 122.428 60.6587 122.332 60.5995C122.24 60.5427 122.165 60.4247 122.165 60.3372C122.165 60.0941 122.286 60.1477 122.399 60.4404ZM133.032 60.9719C132.962 61.1552 132.992 61.2071 133.123 61.1268C133.251 61.0472 133.283 61.0975 133.215 61.274C133.159 61.4214 132.76 61.7842 132.33 62.0802C131.364 62.744 130.599 63.5614 130.736 63.7832C130.793 63.8746 130.757 63.8986 130.656 63.8367C130.441 63.7034 129.707 64.6684 129.849 64.8985C129.903 64.9857 129.858 65.112 129.749 65.1793C129.617 65.2609 129.597 65.228 129.688 65.0804C129.78 64.9313 129.759 64.8999 129.622 64.984C129.508 65.0547 129.465 65.2677 129.523 65.475C129.598 65.7427 129.581 65.7774 129.462 65.6043C129.334 65.4197 129.223 65.5137 128.96 66.0291C128.546 66.8422 127.793 67.6161 127.418 67.6161C127.264 67.6161 126.804 67.2758 126.396 66.8601C125.774 66.2269 125.611 66.1376 125.389 66.3107C125.161 66.4881 125.153 66.4793 125.333 66.249C125.506 66.0272 125.474 65.9168 125.151 65.6134C124.936 65.4116 124.725 65.2819 124.681 65.3252C124.638 65.3685 124.591 65.2437 124.576 65.0479C124.537 64.5322 124.219 64.258 124.025 64.5726C123.904 64.7682 123.877 64.743 123.898 64.4571C123.92 64.1691 123.986 64.1241 124.212 64.2448C124.415 64.3535 124.526 64.3246 124.595 64.1451C124.648 64.0058 124.895 63.8148 125.144 63.7204C125.514 63.5795 125.696 63.6177 126.161 63.9343C126.472 64.1463 126.728 64.385 126.728 64.4646C126.729 64.5442 126.847 64.5641 126.992 64.5087C127.142 64.451 127.21 64.4795 127.151 64.5751C127.094 64.6671 127.109 64.7418 127.184 64.7411C127.26 64.7405 127.504 64.4718 127.727 64.1441C128.253 63.3712 130.042 61.7172 130.567 61.5174C130.814 61.4236 130.928 61.2847 130.855 61.1665C130.789 61.059 130.805 61.0149 130.892 61.0685C130.979 61.122 131.464 61.0257 131.97 60.8543C132.965 60.5174 133.197 60.5429 133.032 60.9719ZM133.236 62.0357C133.296 62.1317 133.227 62.1596 133.076 62.1013C132.874 62.0241 132.84 62.0736 132.93 62.3091C133.035 62.5838 133.019 62.5905 132.781 62.3701C132.591 62.1936 132.57 62.0863 132.707 61.9979C132.97 61.8281 133.115 61.8383 133.236 62.0357ZM129.265 62.0927C129.265 62.123 129.056 62.3321 128.8 62.5576L128.335 62.9673L128.745 62.5025C129.128 62.068 129.265 61.96 129.265 62.0927ZM131.992 62.7716C131.888 62.8963 131.86 63.0607 131.929 63.1367C131.998 63.2128 131.956 63.218 131.835 63.1484C131.666 63.0508 131.661 62.967 131.813 62.7832C131.922 62.6521 132.049 62.5447 132.096 62.5447C132.142 62.5447 132.096 62.6468 131.992 62.7716ZM128.085 63.4704C127.967 63.6121 127.805 63.728 127.723 63.728C127.641 63.728 127.708 63.5886 127.87 63.4182C128.219 63.0529 128.396 63.096 128.085 63.4704ZM126.391 63.7668C126.391 63.8658 126.284 63.8494 126.138 63.728C125.998 63.6122 125.884 63.4912 125.884 63.4591C125.884 63.427 125.998 63.4444 126.138 63.4978C126.277 63.5514 126.391 63.6724 126.391 63.7668ZM131.294 63.4645C131.294 63.5056 131.218 63.586 131.125 63.6435C131.032 63.701 130.956 63.6674 130.956 63.569C130.956 63.4706 131.032 63.39 131.125 63.39C131.218 63.39 131.294 63.4234 131.294 63.4645ZM124.363 63.8971C124.363 63.9901 124.329 64.0661 124.288 64.0661C124.247 64.0661 124.167 63.9901 124.109 63.8971C124.052 63.8041 124.085 63.728 124.184 63.728C124.282 63.728 124.363 63.8041 124.363 63.8971ZM130.956 64.2352C130.956 64.3282 130.875 64.4042 130.777 64.4042C130.678 64.4042 130.644 64.3282 130.702 64.2352C130.759 64.1422 130.84 64.0661 130.881 64.0661C130.922 64.0661 130.956 64.1422 130.956 64.2352ZM130.617 64.6761C130.617 64.8159 130.289 64.895 130.214 64.7733C130.165 64.6943 130.236 64.6296 130.371 64.6296C130.507 64.6296 130.617 64.6505 130.617 64.6761ZM130.448 65.4824C130.448 65.5174 130.315 65.6506 130.153 65.7782C129.884 65.9883 129.879 65.9824 130.089 65.7143C130.31 65.4327 130.448 65.3433 130.448 65.4824ZM121.679 66.4779C121.512 66.6436 121.493 66.6241 121.584 66.3832C121.648 66.2166 121.742 66.1227 121.794 66.1748C121.847 66.2267 121.795 66.3631 121.679 66.4779ZM125.906 66.7286C126.116 66.9967 126.11 67.0026 125.842 66.7925C125.56 66.5716 125.471 66.4328 125.61 66.4328C125.645 66.4328 125.778 66.566 125.906 66.7286ZM122.503 68.001C122.503 68.2089 122.495 68.199 122.104 67.5316L121.807 67.0244L122.155 67.4235C122.347 67.643 122.503 67.903 122.503 68.001ZM133.829 67.5216C133.829 67.5627 133.753 67.6431 133.66 67.7006C133.567 67.7581 133.491 67.7244 133.491 67.6261C133.491 67.5277 133.567 67.447 133.66 67.447C133.753 67.447 133.829 67.4805 133.829 67.5216ZM127.575 67.9542C127.575 68.0472 127.499 68.1232 127.406 68.1232C127.313 68.1232 127.237 68.0472 127.237 67.9542C127.237 67.8612 127.313 67.7851 127.406 67.7851C127.499 67.7851 127.575 67.8612 127.575 67.9542ZM133.658 68.6752L133.076 69.222L133.556 68.6863C133.854 68.353 133.987 68.0657 133.908 67.9256C133.804 67.7432 133.823 67.7412 134.01 67.9145C134.202 68.0926 134.143 68.2199 133.658 68.6752ZM132.483 69.7836C132.123 69.9034 132.085 69.8886 132.044 69.6112C132.009 69.3688 132.053 69.3556 132.326 69.526C132.504 69.6372 132.574 69.753 132.483 69.7836ZM126.222 70.6589C126.362 70.749 126.4 70.8227 126.307 70.8227C126.214 70.8227 126.024 70.749 125.884 70.6589C125.745 70.5688 125.707 70.4951 125.8 70.4951C125.893 70.4951 126.083 70.5688 126.222 70.6589Z" fill="#0460A9"/>
</svg>
