<svg width="178" height="178" viewBox="0 0 178 178" fill="none" xmlns="http://www.w3.org/2000/svg">
<path d="M154 92.5L136.123 88.266C135.428 88.1014 134.874 87.5786 134.668 86.8945L132.341 79.1377C132.131 78.4364 131.554 77.9061 130.838 77.7553L113 74" stroke="black" stroke-width="5"/>
<path d="M66 104.5L48.1231 100.266C47.4281 100.101 46.8736 99.5786 46.6684 98.8945L44.3413 91.1377C44.1309 90.4364 43.5541 89.9061 42.8377 89.7553L25 86" stroke="black" stroke-width="5"/>
<path d="M103.5 113L99.266 130.877C99.1014 131.572 98.5786 132.126 97.8945 132.332L90.1377 134.659C89.4364 134.869 88.9061 135.446 88.7553 136.162L85 154" stroke="black" stroke-width="5"/>
<path d="M93.5 23L89.266 40.8769C89.1014 41.5719 88.5786 42.1264 87.8945 42.3316L80.1377 44.6587C79.4364 44.8691 78.9061 45.4459 78.7553 46.1623L75 64" stroke="black" stroke-width="5"/>
<path fill-rule="evenodd" clip-rule="evenodd" d="M70.3255 1.53369C43.0865 7.34469 19.9885 25.9277 8.14753 51.5567C-15.4435 102.615 14.3755 162.843 69.5145 175.508C86.4035 179.387 107.027 177.478 123.713 170.492L131.326 167.305L154.323 172.511C166.971 175.374 177.402 177.634 177.504 177.533C177.605 177.431 175.387 166.927 172.574 154.19L167.46 131.032L170.26 124.444C186.3 86.7037 175.536 44.0117 143.573 18.5977C132.601 9.87369 117.467 3.15969 103.761 0.935686C94.7525 -0.525314 78.6255 -0.237315 70.3255 1.53369ZM107.826 28.8897C117.902 32.2477 124.658 36.5477 132.935 44.8727C145.156 57.1647 150.826 70.9527 150.826 88.3767C150.826 106.111 145.117 119.751 132.398 132.408C116.206 148.521 95.0575 154.435 73.4215 148.902C61.9545 145.969 54.4815 141.598 45.2315 132.414C36.4275 123.671 31.2145 114.722 28.3405 103.417C26.3975 95.7717 26.3975 80.9817 28.3405 73.3367C34.0475 50.8847 52.2335 33.1017 75.3255 27.3927C83.6855 25.3257 99.2875 26.0447 107.826 28.8897Z" fill="black"/>
<circle cx="73" cy="74" r="13" fill="#0460A9"/>
<circle cx="73" cy="104" r="13" fill="#E74A21"/>
<circle cx="105" cy="74" r="13" fill="#EC9A1E"/>
<circle cx="105" cy="104" r="13" fill="#09C705"/>
</svg>
