<svg width="475" height="216" viewBox="0 0 475 216" fill="none" xmlns="http://www.w3.org/2000/svg">
<path d="M50.7315 153.104C50.7315 155.321 51.0842 157.539 51.7897 159.756C52.4952 162.074 53.6542 163.989 55.2667 165.5C56.9799 167.012 59.2475 167.869 62.0694 168.07C62.3717 167.768 62.8252 167.617 63.4299 167.617C64.7401 167.617 65.3952 168.272 65.3952 169.582C65.3952 170.892 64.7401 171.547 63.4299 171.547C62.8252 171.547 62.3717 171.346 62.0694 170.943C58.542 170.741 55.7202 169.733 53.6038 167.919C51.4874 166.206 49.9756 163.989 49.0686 161.268C48.1616 158.647 47.7081 155.926 47.7081 153.104V121.812C47.7081 119.494 47.3049 117.277 46.4987 115.16C45.6925 112.943 44.2815 111.129 42.2659 109.718C40.2503 108.307 37.4284 107.602 33.8003 107.602V104.578C37.4284 104.578 40.2503 103.873 42.2659 102.462C44.2815 101.051 45.6925 99.2368 46.4987 97.0196C47.3049 94.8024 47.7081 92.5853 47.7081 90.3681V59.0755C47.7081 56.2537 48.1616 53.5326 49.0686 50.9123C49.9756 48.1912 51.4874 45.974 53.6038 44.2607C55.7202 42.4467 58.542 41.4388 62.0694 41.2373C62.4725 40.8342 62.926 40.6326 63.4299 40.6326C64.7401 40.6326 65.3952 41.2877 65.3952 42.5978C65.3952 43.908 64.7401 44.5631 63.4299 44.5631C62.8252 44.5631 62.3717 44.4119 62.0694 44.1095C57.8366 44.4119 54.8635 46.1252 53.1503 49.2494C51.5378 52.2728 50.7315 55.5482 50.7315 59.0755V90.3681C50.7315 93.6938 50.0764 96.8181 48.7663 99.7407C47.4561 102.563 45.1885 104.679 41.9636 106.09C45.1885 107.4 47.4561 109.516 48.7663 112.439C50.0764 115.362 50.7315 118.486 50.7315 121.812V153.104Z" fill="black"/>
<path d="M423.546 153.104C423.546 155.321 423.193 157.539 422.487 159.756C421.782 162.074 420.623 163.989 419.01 165.5C417.297 167.012 415.03 167.869 412.208 168.07C411.905 167.768 411.452 167.617 410.847 167.617C409.537 167.617 408.882 168.272 408.882 169.582C408.882 170.892 409.537 171.547 410.847 171.547C411.452 171.547 411.905 171.346 412.208 170.943C415.735 170.741 418.557 169.733 420.673 167.919C422.79 166.206 424.301 163.989 425.208 161.268C426.116 158.647 426.569 155.926 426.569 153.104V121.812C426.569 119.494 426.972 117.277 427.778 115.16C428.585 112.943 429.996 111.129 432.011 109.718C434.027 108.307 436.849 107.602 440.477 107.602V104.578C436.849 104.578 434.027 103.873 432.011 102.462C429.996 101.051 428.585 99.2368 427.778 97.0196C426.972 94.8024 426.569 92.5853 426.569 90.3681V59.0755C426.569 56.2537 426.116 53.5326 425.208 50.9123C424.301 48.1912 422.79 45.974 420.673 44.2607C418.557 42.4467 415.735 41.4388 412.208 41.2373C411.805 40.8342 411.351 40.6326 410.847 40.6326C409.537 40.6326 408.882 41.2877 408.882 42.5978C408.882 43.908 409.537 44.5631 410.847 44.5631C411.452 44.5631 411.905 44.4119 412.208 44.1095C416.441 44.4119 419.414 46.1252 421.127 49.2494C422.739 52.2728 423.546 55.5482 423.546 59.0755V90.3681C423.546 93.6938 424.201 96.8181 425.511 99.7407C426.821 102.563 429.089 104.679 432.314 106.09C429.089 107.4 426.821 109.516 425.511 112.439C424.201 115.362 423.546 118.486 423.546 121.812V153.104Z" fill="black"/>
<path d="M17.4742 153.104C17.4742 155.321 17.8269 157.539 18.5324 159.756C19.2379 162.074 20.3968 163.989 22.0093 165.5C23.7226 167.012 25.9902 167.869 28.8121 168.07C29.1144 167.768 29.5679 167.617 30.1726 167.617C31.4828 167.617 32.1378 168.272 32.1378 169.582C32.1378 170.892 31.4828 171.547 30.1726 171.547C29.5679 171.547 29.1144 171.346 28.8121 170.943C25.2847 170.741 22.4628 169.733 20.3464 167.919C18.23 166.206 16.7183 163.989 15.8113 161.268C14.9043 158.647 14.4507 155.926 14.4507 153.104V121.812C14.4507 119.494 14.0476 117.277 13.2414 115.16C12.4351 112.943 11.0242 111.129 9.00857 109.718C6.99295 108.307 4.17108 107.602 0.542958 107.602V104.578C4.17108 104.578 6.99295 103.873 9.00857 102.462C11.0242 101.051 12.4351 99.2368 13.2414 97.0196C14.0476 94.8024 14.4507 92.5853 14.4507 90.3681V59.0755C14.4507 56.2537 14.9043 53.5326 15.8113 50.9123C16.7183 48.1912 18.23 45.974 20.3464 44.2607C22.4628 42.4467 25.2847 41.4388 28.8121 41.2373C29.2152 40.8342 29.6687 40.6326 30.1726 40.6326C31.4828 40.6326 32.1378 41.2877 32.1378 42.5978C32.1378 43.908 31.4828 44.5631 30.1726 44.5631C29.5679 44.5631 29.1144 44.4119 28.8121 44.1095C24.5793 44.4119 21.6062 46.1252 19.8929 49.2494C18.2804 52.2728 17.4742 55.5482 17.4742 59.0755V90.3681C17.4742 93.6938 16.8191 96.8181 15.509 99.7407C14.1988 102.563 11.9312 104.679 8.70623 106.09C11.9312 107.4 14.1988 109.516 15.509 112.439C16.8191 115.362 17.4742 118.486 17.4742 121.812V153.104Z" fill="black"/>
<path d="M457.526 153.104C457.526 155.321 457.173 157.539 456.468 159.756C455.762 162.074 454.603 163.989 452.991 165.5C451.277 167.012 449.01 167.869 446.188 168.07C445.886 167.768 445.432 167.617 444.827 167.617C443.517 167.617 442.862 168.272 442.862 169.582C442.862 170.892 443.517 171.547 444.827 171.547C445.432 171.547 445.886 171.346 446.188 170.943C449.715 170.741 452.537 169.733 454.654 167.919C456.77 166.206 458.282 163.989 459.189 161.268C460.096 158.647 460.549 155.926 460.549 153.104V121.812C460.549 119.494 460.952 117.277 461.759 115.16C462.565 112.943 463.976 111.129 465.991 109.718C468.007 108.307 470.829 107.602 474.457 107.602V104.578C470.829 104.578 468.007 103.873 465.991 102.462C463.976 101.051 462.565 99.2368 461.759 97.0196C460.952 94.8024 460.549 92.5853 460.549 90.3681V59.0755C460.549 56.2537 460.096 53.5326 459.189 50.9123C458.282 48.1912 456.77 45.974 454.654 44.2607C452.537 42.4467 449.715 41.4388 446.188 41.2373C445.785 40.8342 445.331 40.6326 444.827 40.6326C443.517 40.6326 442.862 41.2877 442.862 42.5978C442.862 43.908 443.517 44.5631 444.827 44.5631C445.432 44.5631 445.886 44.4119 446.188 44.1095C450.421 44.4119 453.394 46.1252 455.107 49.2494C456.72 52.2728 457.526 55.5482 457.526 59.0755V90.3681C457.526 93.6938 458.181 96.8181 459.491 99.7407C460.801 102.563 463.069 104.679 466.294 106.09C463.069 107.4 460.801 109.516 459.491 112.439C458.181 115.362 457.526 118.486 457.526 121.812V153.104Z" fill="black"/>
<path d="M162.988 180.273L144.545 160.318C140.01 161.628 135.021 162.283 129.579 162.283C119.804 162.283 110.784 160.016 102.52 155.481C94.3563 150.845 87.8559 144.445 83.0184 136.282C78.2817 128.018 75.9133 118.746 75.9133 108.466C75.9133 98.1867 78.2817 88.9652 83.0184 80.802C87.8559 72.6387 94.3563 66.2895 102.52 61.7543C110.784 57.1184 119.804 54.8004 129.579 54.8004C139.456 54.8004 148.476 57.1184 156.639 61.7543C164.903 66.2895 171.403 72.6387 176.14 80.802C180.877 88.9652 183.245 98.1867 183.245 108.466C183.245 118.141 181.129 126.909 176.896 134.77C172.764 142.53 167.019 148.779 159.662 153.516L184.908 180.273H162.988ZM93.6004 108.466C93.6004 116.227 95.1121 123.08 98.1356 129.026C101.26 134.871 105.543 139.406 110.985 142.631C116.427 145.755 122.625 147.317 129.579 147.317C136.533 147.317 142.731 145.755 148.173 142.631C153.616 139.406 157.848 134.871 160.872 129.026C163.996 123.08 165.558 116.227 165.558 108.466C165.558 100.706 163.996 93.9035 160.872 88.0582C157.848 82.2129 153.616 77.7281 148.173 74.6039C142.731 71.4797 136.533 69.9176 129.579 69.9176C122.625 69.9176 116.427 71.4797 110.985 74.6039C105.543 77.7281 101.26 82.2129 98.1356 88.0582C95.1121 93.9035 93.6004 100.706 93.6004 108.466Z" fill="black"/>
<path d="M297.817 91.9886V138.096C297.817 141.22 298.522 143.488 299.933 144.899C301.445 146.209 303.964 146.864 307.492 146.864H318.074V161.225H304.468C296.708 161.225 290.762 159.411 286.63 155.783C282.498 152.155 280.432 146.259 280.432 138.096V91.9886H270.606V77.9297H280.432V57.2192H297.817V77.9297H318.074V91.9886H297.817Z" fill="black"/>
<path d="M398.205 117.537C398.205 120.661 398.004 123.483 397.601 126.002H333.957C334.461 132.654 336.93 137.995 341.365 142.026C345.799 146.058 351.241 148.073 357.691 148.073C366.963 148.073 373.514 144.193 377.344 136.433H395.938C393.418 144.092 388.833 150.391 382.181 155.33C375.63 160.167 367.467 162.586 357.691 162.586C349.73 162.586 342.574 160.822 336.225 157.295C329.976 153.667 325.038 148.628 321.41 142.178C317.883 135.627 316.119 128.068 316.119 119.502C316.119 110.935 317.832 103.427 321.259 96.9773C324.786 90.4265 329.674 85.3875 335.923 81.8601C342.272 78.3328 349.528 76.5691 357.691 76.5691C365.552 76.5691 372.556 78.2824 378.704 81.709C384.852 85.1355 389.639 89.973 393.065 96.2215C396.492 102.369 398.205 109.474 398.205 117.537ZM380.216 112.094C380.115 105.745 377.847 100.656 373.413 96.8261C368.979 92.9965 363.486 91.0816 356.935 91.0816C350.989 91.0816 345.9 92.9965 341.667 96.8261C337.434 100.555 334.915 105.644 334.108 112.094H380.216Z" fill="black"/>
<path d="M260.838 84.3994V160.555H245.082V151.571C242.594 154.704 239.323 157.191 235.269 159.034C231.307 160.785 227.068 161.66 222.553 161.66C216.564 161.66 211.174 160.416 206.383 157.929C201.683 155.441 197.952 151.755 195.187 146.872C192.515 141.988 191.179 136.091 191.179 129.18V84.3994H206.797V126.831C206.797 133.649 208.502 138.901 211.911 142.587C215.32 146.181 219.974 147.977 225.871 147.977C231.768 147.977 236.421 146.181 239.83 142.587C243.331 138.901 245.082 133.649 245.082 126.831V84.3994H260.838Z" fill="#D3D3D3"/>
<path d="M197.749 98.7188C198.955 99.9248 200.664 100.528 202.875 100.528C204.885 100.528 206.493 99.9248 207.699 98.7188C208.905 97.3118 209.508 95.7037 209.508 93.8947C209.508 91.8847 208.905 90.2767 207.699 89.0707C206.493 87.6637 204.885 86.9602 202.875 86.9602C200.664 86.9602 198.955 87.6637 197.749 89.0707C196.543 90.2767 195.94 91.8847 195.94 93.8947C195.94 95.5027 196.543 97.1107 197.749 98.7188Z" fill="black"/>
<path d="M242.573 98.7188C243.779 99.9248 245.487 100.528 247.698 100.528C249.708 100.528 251.317 99.9248 252.523 98.7188C253.729 97.3118 254.332 95.7037 254.332 93.8947C254.332 91.8847 253.729 90.2767 252.523 89.0707C251.317 87.6637 249.708 86.9602 247.698 86.9602C245.487 86.9602 243.779 87.6637 242.573 89.0707C241.367 90.2767 240.764 91.8847 240.764 93.8947C240.764 95.5027 241.367 97.1107 242.573 98.7188Z" fill="black"/>
<path d="M202.875 145.288C200.664 145.288 198.955 144.585 197.749 143.178C196.543 141.972 195.94 140.464 195.94 138.655C195.94 136.645 196.543 135.037 197.749 133.831C198.955 132.424 200.664 131.72 202.875 131.72C204.885 131.72 206.493 132.424 207.699 133.831C208.905 135.037 209.508 136.645 209.508 138.655C209.508 140.464 208.905 141.972 207.699 143.178C206.493 144.585 204.885 145.288 202.875 145.288Z" fill="black"/>
<path d="M247.698 145.288C245.487 145.288 243.779 144.585 242.573 143.178C241.367 141.972 240.764 140.464 240.764 138.655C240.764 136.645 241.367 135.037 242.573 133.831C243.779 132.424 245.487 131.72 247.698 131.72C249.708 131.72 251.317 132.424 252.523 133.831C253.729 135.037 254.332 136.645 254.332 138.655C254.332 140.464 253.729 141.972 252.523 143.178C251.317 144.585 249.708 145.288 247.698 145.288Z" fill="black"/>
</svg>
