<svg width="125" height="125" viewBox="0 0 125 125" fill="none" xmlns="http://www.w3.org/2000/svg">
<path d="M108.443 64.75L95.9288 61.7862C95.4423 61.671 95.0541 61.305 94.9105 60.8262L93.2815 55.3964C93.1343 54.9055 92.7305 54.5343 92.229 54.4287L79.7426 51.8" stroke="#F1F5F9" stroke-width="3.5"/>
<path d="M46.8425 73.1504L34.3287 70.1866C33.8422 70.0714 33.454 69.7054 33.3104 69.2266L31.6814 63.7968C31.5342 63.3059 31.1304 62.9347 30.6289 62.8291L18.1425 60.2004" stroke="#F1F5F9" stroke-width="3.5"/>
<path d="M73.0925 79.0996L70.1287 91.6135C70.0135 92.1 69.6476 92.4881 69.1687 92.6318L63.7389 94.2607C63.248 94.408 62.8768 94.8117 62.7712 95.3132L60.1425 107.8" stroke="#F1F5F9" stroke-width="3.5"/>
<path d="M66.0925 16.0996L63.1287 28.6135C63.0135 29.1 62.6476 29.4881 62.1687 29.6318L56.7389 31.2607C56.248 31.408 55.8768 31.8117 55.7712 32.3132L53.1425 44.7996" stroke="#F1F5F9" stroke-width="3.5"/>
<path fill-rule="evenodd" clip-rule="evenodd" d="M49.8704 1.07358C30.8031 5.14128 14.6345 18.1494 6.34585 36.0897C-10.1679 71.8303 10.7055 113.99 49.3027 122.855C61.125 125.571 75.5611 124.234 87.2413 119.344L92.5704 117.113L108.668 120.757C117.522 122.762 124.824 124.344 124.895 124.273C124.966 124.201 123.413 116.849 121.444 107.933L117.864 91.7222L119.824 87.1106C131.052 60.6926 123.517 30.8082 101.143 13.0184C93.4629 6.91158 82.8691 2.21178 73.2749 0.65498C66.9693 -0.36772 55.6805 -0.16612 49.8704 1.07358ZM76.1204 20.2228C83.1736 22.5734 87.9028 25.5834 93.6967 31.4109C102.251 40.0153 106.22 49.6669 106.22 61.8637C106.22 74.2775 102.224 83.8255 93.3209 92.6854C81.9865 103.964 67.1828 108.104 52.0377 104.231C44.0107 102.178 38.7796 99.1184 32.3046 92.6896C26.1418 86.5695 22.4927 80.3052 20.4809 72.3917C19.1208 67.0402 19.1208 56.6872 20.4809 51.3357C24.4758 35.6193 37.2061 23.1712 53.3704 19.1749C59.2225 17.728 70.1439 18.2313 76.1204 20.2228Z" fill="white"/>
<circle cx="51.7426" cy="51.7992" r="9.1" fill="#0460A9"/>
<circle cx="51.7426" cy="72.7992" r="9.1" fill="#E74A21"/>
<circle cx="74.1425" cy="51.7992" r="9.1" fill="#EC9A1E"/>
<circle cx="74.1425" cy="72.7992" r="9.1" fill="#09C705"/>
</svg>
