<svg xmlns="http://www.w3.org/2000/svg" width="44" height="54" fill="none" viewBox="0 0 44 54"><g filter="url(#filter0_d_193_7647)"><path fill="#1C2B52" fill-rule="evenodd" d="M17.1166 2L17.2142 2.00011C26.8284 2.00011 31.3069 5.06692 31.3069 11.736V14.154C31.2877 14.1535 31.2686 14.1533 31.2494 14.1533C30.8715 14.1526 30.4997 14.2488 30.1696 14.4329C29.8395 14.617 29.5623 14.8828 29.3643 15.2047C29.1664 15.5267 29.0544 15.894 29.0391 16.2717C29.0238 16.6493 29.1057 17.0245 29.277 17.3614L26.0337 20.6047C25.9053 20.733 25.8331 20.9071 25.8331 21.0887V23.5122C25.3333 23.6801 24.9098 24.0207 24.6387 24.4729C24.3677 24.9251 24.2668 25.4592 24.3544 25.979C24.4419 26.4989 24.7121 26.9706 25.1163 27.3091C25.5205 27.6476 26.0322 27.8307 26.5594 27.8256C27.0866 27.8206 27.5946 27.6275 27.9922 27.2813C28.3898 26.9351 28.6508 26.4583 28.7283 25.9368C28.8058 25.4153 28.6947 24.8833 28.4149 24.4364C28.1352 23.9896 27.7052 23.6572 27.2022 23.499V21.3721L30.2421 18.3323C30.5399 18.4855 30.8687 18.5691 31.2036 18.5768C31.2381 18.5776 31.2725 18.5775 31.3069 18.5767V29.7388H24.0682L21.2039 26.8744C21.4478 26.407 21.5168 25.8678 21.3987 25.354C21.2806 24.8401 20.983 24.3853 20.5594 24.0712C20.1359 23.7572 19.6142 23.6046 19.0882 23.6409C18.5622 23.6771 18.0664 23.8999 17.6899 24.2691C17.3135 24.6383 17.0812 25.1297 17.0347 25.6549C16.9882 26.1801 17.1306 26.7046 17.4363 27.1342C17.7421 27.5638 18.191 27.8701 18.7025 27.9982C19.214 28.1263 19.7543 28.0678 20.2265 27.833L23.3008 30.9073C23.4291 31.0357 23.6032 31.1078 23.7848 31.1079H31.3069V34.2676H25.9923C25.8488 33.8218 25.5677 33.4329 25.1893 33.1569C24.811 32.8808 24.3549 32.7317 23.8866 32.7311C23.4792 32.731 23.0797 32.8434 22.7322 33.056C22.3847 33.2685 22.1026 33.573 21.9172 33.9357C21.7317 34.2984 21.65 34.7053 21.6811 35.1115C21.7122 35.5176 21.855 35.9073 22.0935 36.2375C22.3321 36.5678 22.6572 36.8257 23.0331 36.9828C23.409 37.1399 23.8209 37.1902 24.2235 37.128C24.6261 37.0658 25.0037 36.8937 25.3147 36.6305C25.6257 36.3673 25.8579 36.0234 25.9857 35.6366H31.3069V45.8116C31.2462 48.0153 29.4106 49.7526 27.2069 49.6919C25.2099 49.6369 23.5612 48.1142 23.3478 46.128V45.8359V39.5562C23.3613 38.9514 22.8818 38.4503 22.2772 38.4369L22.2609 38.4367L22.2525 38.4366C21.6476 38.4365 21.1571 38.9268 21.157 39.5317L21.1572 39.5564V45.7873V46.1037C21.0054 48.1748 19.2908 49.7835 17.2142 49.8033C15.105 49.8321 13.3515 48.1862 13.2469 46.0794V45.7873V39.5564C13.2604 38.9515 12.7813 38.4503 12.1764 38.4368C12.16 38.4364 12.1436 38.4364 12.1273 38.4368C11.5225 38.4232 11.0213 38.9024 11.0077 39.5072C11.0075 39.516 11.0074 39.5247 11.0074 39.5335C11.0074 39.5412 11.0075 39.5488 11.0077 39.5565V45.7874V46.0795C10.8303 47.7524 9.64367 49.0738 8.11726 49.5027V45.7189C8.11724 45.5374 8.0451 45.3633 7.91671 45.2349L4.72815 42.0464C4.59979 41.918 4.42569 41.8459 4.24415 41.8458H3.04861V39.5565H2.99989V33.5722H4.88477L8.38109 37.0686C8.50945 37.1969 8.68354 37.2691 8.86509 37.2691H11.846C11.9944 37.6942 12.2711 38.0627 12.6379 38.3237C13.0048 38.5847 13.4436 38.7253 13.8938 38.726C14.2948 38.726 14.688 38.6149 15.0297 38.4051C15.3714 38.1953 15.6483 37.8949 15.8297 37.5373C16.0111 37.1796 16.0899 36.7788 16.0573 36.3791C16.0247 35.9794 15.8821 35.5966 15.6452 35.2731C15.4083 34.9495 15.0864 34.6979 14.7152 34.5462C14.344 34.3945 13.9381 34.3485 13.5424 34.4135C13.1467 34.4784 12.7767 34.6517 12.4735 34.9141C12.1702 35.1765 11.9456 35.5177 11.8246 35.9H9.14852L5.6522 32.4037C5.52384 32.2753 5.34975 32.2032 5.1682 32.2031H2.99989V16.4988L6.33064 13.168H17.12C17.2748 13.6704 17.6038 14.1012 18.0477 14.3828C18.4917 14.6644 19.0215 14.7784 19.542 14.7043C20.0625 14.6303 20.5395 14.373 20.8873 13.9787C21.2351 13.5845 21.4309 13.0791 21.4394 12.5534C21.4479 12.0277 21.2687 11.5163 20.9339 11.1109C20.5991 10.7056 20.1307 10.4329 19.6129 10.342C19.095 10.2511 18.5618 10.3478 18.1089 10.6149C17.656 10.8819 17.3133 11.3018 17.1422 11.7989H6.04696C5.86542 11.7989 5.69132 11.8711 5.56296 11.9995L3.09824 14.4643C3.92641 7.45502 9.88242 2.01258 17.1166 2ZM31.3069 15.5245V17.2062C31.2878 17.2076 31.2686 17.2082 31.2494 17.2082C31.0259 17.208 30.8117 17.1191 30.6536 16.9611C30.4956 16.8031 30.4067 16.5889 30.4064 16.3654C30.4064 16.1987 30.4558 16.0358 30.5484 15.8972C30.641 15.7585 30.7726 15.6505 30.9266 15.5867C31.0473 15.5367 31.1775 15.5156 31.3069 15.5245ZM3.04861 43.215H3.9607L6.74815 46.0025V49.6397C6.70464 49.6365 6.66101 49.6326 6.6173 49.628C4.63597 49.4178 3.11295 47.7788 3.04861 45.7874V43.215ZM14.6461 29.4786C15.119 29.2467 15.659 29.1911 16.1692 29.3218C16.6793 29.4526 17.1261 29.761 17.4292 30.1917C17.7323 30.6224 17.8718 31.1471 17.8226 31.6714C17.7734 32.1957 17.5388 32.6853 17.1609 33.0521C16.783 33.419 16.2867 33.6389 15.7611 33.6725C15.2355 33.706 14.7152 33.551 14.2937 33.2353C13.8722 32.9195 13.5772 32.4637 13.4618 31.9499C13.3463 31.4361 13.4179 30.8979 13.6637 30.4322L6.92049 23.689C6.7921 23.5606 6.71996 23.3865 6.71993 23.205V19.1455C6.21922 18.9826 5.79306 18.6463 5.5181 18.1973C5.24313 17.7482 5.1374 17.2157 5.21989 16.6957C5.3024 16.1756 5.56773 15.702 5.96818 15.3601C6.36862 15.0182 6.87792 14.8303 7.40449 14.8303C7.93105 14.8303 8.44035 15.0182 8.8408 15.3601C9.24125 15.702 9.50657 16.1756 9.58908 16.6957C9.67158 17.2157 9.56584 17.7482 9.29087 18.1973C9.01591 18.6463 8.58976 18.9826 8.08904 19.1455V22.9216L14.6461 29.4786ZM15.6199 32.3048C15.7867 32.3048 15.9496 32.2554 16.0883 32.1627C16.2269 32.0701 16.3349 31.9384 16.3987 31.7844C16.4626 31.6304 16.4792 31.4609 16.4467 31.2974C16.4142 31.1338 16.3339 30.9836 16.216 30.8657C16.0981 30.7478 15.9479 30.6676 15.7844 30.635C15.6209 30.6025 15.4514 30.6192 15.2973 30.683C15.1433 30.7468 15.0116 30.8548 14.919 30.9935C14.8264 31.1321 14.777 31.2951 14.777 31.4618C14.7772 31.6853 14.8661 31.8996 15.0241 32.0576C15.1822 32.2156 15.3964 32.3045 15.6199 32.3048ZM8.24728 17.0432C8.24726 16.8765 8.19781 16.7135 8.10518 16.5749C8.01254 16.4363 7.88089 16.3283 7.72687 16.2645C7.57285 16.2008 7.40337 16.1841 7.23988 16.2166C7.07639 16.2492 6.92621 16.3295 6.80835 16.4474C6.69048 16.5652 6.61023 16.7154 6.57772 16.8789C6.54522 17.0424 6.56194 17.2119 6.62575 17.3659C6.68956 17.5199 6.7976 17.6516 6.93622 17.7442C7.07484 17.8367 7.23781 17.8862 7.40451 17.8861C7.62798 17.8858 7.84219 17.7969 8.00019 17.6389C8.15818 17.4809 8.24704 17.2666 8.24728 17.0432ZM24.355 35.6442C24.2163 35.7368 24.0533 35.7862 23.8866 35.7862C23.6632 35.7859 23.4489 35.697 23.2909 35.5389C23.133 35.3809 23.0441 35.1667 23.0438 34.9432C23.0438 34.7765 23.0933 34.6135 23.1859 34.4749C23.2786 34.3362 23.4102 34.2282 23.5643 34.1644C23.7183 34.1006 23.8878 34.0839 24.0513 34.1164C24.2149 34.149 24.3651 34.2293 24.483 34.3472C24.6009 34.4651 24.6811 34.6153 24.7136 34.7789C24.7461 34.9424 24.7294 35.1119 24.6656 35.2659C24.6017 35.42 24.4937 35.5516 24.355 35.6442ZM13.8938 35.7536C13.7353 35.7536 13.5803 35.8006 13.4485 35.8887C13.3166 35.9767 13.2138 36.1019 13.1531 36.2484C13.0924 36.3949 13.0765 36.556 13.1075 36.7116C13.1384 36.8671 13.2147 37.0099 13.3268 37.1221C13.4389 37.2342 13.5817 37.3106 13.7372 37.3415C13.8927 37.3725 14.0539 37.3566 14.2004 37.296C14.3469 37.2353 14.4721 37.1326 14.5602 37.0007C14.6483 36.8689 14.6954 36.7139 14.6954 36.5554C14.6952 36.3429 14.6106 36.1391 14.4604 35.9888C14.3101 35.8385 14.1064 35.7539 13.8938 35.7536ZM18.7746 25.1536C18.9132 25.0609 19.0762 25.0115 19.2429 25.0115C19.4664 25.0118 19.6807 25.1007 19.8387 25.2587C19.9968 25.4167 20.0856 25.631 20.0859 25.8545C20.0859 26.0212 20.0365 26.1842 19.9438 26.3228C19.8512 26.4614 19.7196 26.5695 19.5655 26.6333C19.4115 26.6971 19.242 26.7138 19.0785 26.6813C18.9149 26.6487 18.7647 26.5685 18.6468 26.4506C18.5289 26.3327 18.4487 26.1825 18.4161 26.0189C18.3836 25.8554 18.4003 25.6859 18.4641 25.5319C18.5279 25.3779 18.636 25.2462 18.7746 25.1536ZM19.2331 13.3573C19.3998 13.3573 19.5628 13.3079 19.7014 13.2153C19.84 13.1227 19.948 12.9911 20.0119 12.8371C20.0757 12.6831 20.0924 12.5136 20.0599 12.3501C20.0274 12.1866 19.9471 12.0364 19.8293 11.9185C19.7114 11.8006 19.5612 11.7203 19.3977 11.6878C19.2342 11.6552 19.0648 11.6719 18.9107 11.7357C18.7567 11.7995 18.6251 11.9075 18.5324 12.0461C18.4398 12.1847 18.3903 12.3476 18.3903 12.5143C18.3906 12.7378 18.4794 12.952 18.6374 13.11C18.7954 13.2681 19.0096 13.357 19.2331 13.3573ZM26.5357 24.7651C26.369 24.765 26.206 24.8144 26.0673 24.907C25.9287 24.9996 25.8206 25.1313 25.7568 25.2853C25.6929 25.4393 25.6762 25.6088 25.7087 25.7724C25.7412 25.9359 25.8215 26.0861 25.9394 26.204C26.0572 26.322 26.2075 26.4023 26.371 26.4348C26.5345 26.4674 26.704 26.4507 26.8581 26.3869C27.0121 26.3231 27.1438 26.215 27.2364 26.0764C27.3291 25.9378 27.3785 25.7748 27.3785 25.608C27.3782 25.3846 27.2894 25.1703 27.1314 25.0123C26.9734 24.8543 26.7592 24.7654 26.5357 24.7651ZM28.3598 10.5193C28.0596 10.3755 27.7308 10.3013 27.3979 10.3023C27.0156 10.302 26.6397 10.4009 26.3071 10.5892C25.9744 10.7776 25.6963 11.049 25.4999 11.3769C25.3035 11.7049 25.1954 12.0782 25.1864 12.4603C25.1773 12.8425 25.2675 13.2205 25.4481 13.5574L19.6895 19.3162H16.16C15.997 18.8154 15.6607 18.3892 15.2116 18.1142C14.7625 17.8392 14.23 17.7335 13.7099 17.816C13.1898 17.8985 12.7162 18.1638 12.3742 18.5643C12.0322 18.9648 11.8444 19.4741 11.8444 20.0008C11.8444 20.5274 12.0322 21.0367 12.3742 21.4372C12.7162 21.8377 13.1898 22.103 13.7099 22.1855C14.23 22.268 14.7625 22.1623 15.2116 21.8873C15.6607 21.6123 15.997 21.1861 16.16 20.6853H19.9729C20.1545 20.6853 20.3286 20.6132 20.4569 20.4848L26.4376 14.5039C26.7371 14.6494 27.0655 14.7254 27.3984 14.7262C27.7313 14.7271 28.0601 14.6528 28.3603 14.509C28.6605 14.3651 28.9243 14.1553 29.1322 13.8952C29.34 13.6352 29.4864 13.3316 29.5606 13.0071C29.6348 12.6825 29.6347 12.3454 29.5605 12.0209C29.4863 11.6964 29.3397 11.3928 29.1318 11.1328C28.9239 10.8728 28.66 10.6631 28.3598 10.5193ZM27.8661 13.215C27.7275 13.3077 27.5646 13.3571 27.3979 13.3571C27.1744 13.3569 26.9601 13.2681 26.802 13.11C26.644 12.9519 26.5551 12.7377 26.5549 12.5141C26.5549 12.3474 26.6044 12.1845 26.697 12.0459C26.7896 11.9073 26.9212 11.7993 27.0752 11.7355C27.2293 11.6717 27.3987 11.6551 27.5622 11.6876C27.7257 11.7201 27.8759 11.8004 27.9937 11.9183C28.1116 12.0361 28.1919 12.1863 28.2244 12.3498C28.2569 12.5133 28.2403 12.6827 28.1765 12.8368C28.1127 12.9908 28.0047 13.1224 27.8661 13.215ZM13.5893 19.2999C13.7279 19.2072 13.8909 19.1578 14.0576 19.1578C14.2811 19.158 14.4954 19.2469 14.6534 19.405C14.8114 19.563 14.9003 19.7773 14.9006 20.0008C14.9006 20.1675 14.8512 20.3305 14.7585 20.4691C14.6659 20.6077 14.5342 20.7158 14.3802 20.7796C14.2262 20.8434 14.0567 20.8601 13.8932 20.8276C13.7296 20.795 13.5794 20.7147 13.4615 20.5968C13.3436 20.479 13.2634 20.3287 13.2308 20.1652C13.1983 20.0017 13.215 19.8322 13.2788 19.6782C13.3426 19.5241 13.4507 19.3925 13.5893 19.2999ZM37.3733 15.7706C39.3628 15.7572 40.9864 17.359 40.9999 19.3484L41 19.3729V21.8068C39.9849 20.9724 38.7116 20.5165 37.3978 20.5168H33.26V15.7705L37.3733 15.7706ZM39.8433 23.6321C39.1745 23.0144 38.2953 22.675 37.3849 22.6829H33.2715V25.8957H37.1416C38.4638 25.8742 39.5904 24.9302 39.8433 23.6321Z" clip-rule="evenodd"/></g><defs><filter id="filter0_d_193_7647" width="43.312" height="53.115" x=".344" y=".672" color-interpolation-filters="sRGB" filterUnits="userSpaceOnUse"><feFlood flood-opacity="0" result="BackgroundImageFix"/><feColorMatrix in="SourceAlpha" result="hardAlpha" type="matrix" values="0 0 0 0 0 0 0 0 0 0 0 0 0 0 0 0 0 0 127 0"/><feOffset dy="1.328"/><feGaussianBlur stdDeviation="1.328"/><feComposite in2="hardAlpha" operator="out"/><feColorMatrix type="matrix" values="0 0 0 0 0 0 0 0 0 0 0 0 0 0 0 0 0 0 0.1 0"/><feBlend in2="BackgroundImageFix" mode="normal" result="effect1_dropShadow_193_7647"/><feBlend in="SourceGraphic" in2="effect1_dropShadow_193_7647" mode="normal" result="shape"/></filter></defs></svg>