<svg width="301" height="222" viewBox="0 0 301 222" fill="none" xmlns="http://www.w3.org/2000/svg">
<path d="M241.489 253.365C189.74 296.408 119.68 281.263 119.68 281.263C119.68 281.263 26.4824 266.118 4.17852 167.277C-18.1253 68.4359 56.1251 17.8474 56.1251 17.8474C56.1251 17.8474 95.7465 -13.6674 129.184 7.05866C144.885 16.7908 148.292 39.7388 155.457 66.8404C162.622 100.319 189.691 101.116 202.429 97.1305C215.167 93.1449 229.497 79.5941 261.343 84.3768C293.188 89.1594 299.607 122.639 299.607 122.639C299.607 122.639 313.158 193.751 241.489 253.365Z" fill="url(#paint0_linear_93_5814)"/>
<defs>
<linearGradient id="paint0_linear_93_5814" x1="217.554" y1="93.9416" x2="56.9014" y2="306.936" gradientUnits="userSpaceOnUse">
<stop stop-color="#4EE3CF"/>
<stop offset="1" stop-color="#0966AC"/>
</linearGradient>
</defs>
</svg>
