<svg width="100" height="71" viewBox="0 0 100 71" fill="none" xmlns="http://www.w3.org/2000/svg">
<path d="M83.3333 0C85.5435 0 87.6631 0.935042 89.2259 2.59943C90.7887 4.26381 91.6667 6.5212 91.6667 8.875V53.25C91.6667 58.1756 87.9583 62.125 83.3333 62.125H100V71H0V62.125H16.6667C14.4565 62.125 12.3369 61.19 10.7741 59.5256C9.21131 57.8612 8.33333 55.6038 8.33333 53.25V8.875C8.33333 3.94937 12.0417 0 16.6667 0H83.3333ZM83.3333 8.875H16.6667V53.25H83.3333V8.875ZM50 35.5C59.2083 35.5 66.6667 39.4937 66.6667 44.375V48.8125H33.3333V44.375C33.3333 39.4937 40.7917 35.5 50 35.5ZM50 13.3125C52.2101 13.3125 54.3297 14.2475 55.8926 15.9119C57.4554 17.5763 58.3333 19.8337 58.3333 22.1875C58.3333 24.5413 57.4554 26.7987 55.8926 28.4631C54.3297 30.1275 52.2101 31.0625 50 31.0625C45.375 31.0625 41.6667 27.1131 41.6667 22.1875C41.6667 17.2619 45.4167 13.3125 50 13.3125Z" fill="#0460A9"/>
</svg>
